<svg width="1920" height="223" viewBox="0 0 1920 223" fill="none" xmlns="http://www.w3.org/2000/svg">
<path d="M1613.27 118.32C1527.68 155.286 1453.83 187.217 1349.37 152.873C1247.05 119.226 1167.46 98.5663 1086.9 99.2821C1007.7 100.03 927.572 121.272 818.983 170.327C628.311 256.43 559.47 215.827 408.636 126.828C389.8 115.71 370.312 104.217 348.96 91.9838C248.323 34.383 157.343 13.0646 98.7273 5.32919C48.7856 -1.25955 13.1832 0.615708 0 1.74973V6.01341C28.4934 3.5743 174.48 -2.99542 346.826 95.6583C368.166 107.873 387.628 119.359 406.451 130.465C482.236 175.186 537.019 207.502 597.755 218.215C612.08 220.751 626.604 222.023 641.156 222.016C692.292 222.016 748.602 206.774 820.752 174.185C1031.33 79.0598 1132.22 85.9336 1348.03 156.896C1454.06 191.74 1528.62 159.525 1614.98 122.21C1695.5 87.4161 1786.67 48.0863 1920 62.6576V58.4003C1785.8 43.829 1694.19 83.3488 1613.27 118.32Z" fill="white"/>
</svg>
