<svg width="67" height="69" viewBox="0 0 67 69" fill="none" xmlns="http://www.w3.org/2000/svg">
<path d="M43.2053 34.0057C43.2053 39.7265 38.6887 44.3633 33.1162 44.3633C27.5452 44.3633 23.0285 39.7265 23.0285 34.0057C23.0285 28.2849 27.5452 23.6481 33.1162 23.6481C38.6887 23.6481 43.2053 28.2849 43.2053 34.0057ZM55.6591 25.0208V25.1432C55.503 24.7218 55.3324 24.307 55.1546 23.8982L55.2421 23.9879C55.2421 23.9879 53.0401 20.8879 60.1092 13.6304L56.5349 9.95894L52.9592 6.28827C45.8915 13.5465 42.8708 11.2856 42.8708 11.2856L42.9603 11.3777C42.5607 11.1936 42.1531 11.02 41.7419 10.8583H41.8648C41.8648 10.8583 38.1727 10.2639 38.1727 -0.000177666H33.1169H28.0611C28.0611 10.2639 24.3697 10.8583 24.3697 10.8583H24.4919C24.08 11.0193 23.6745 11.1929 23.2749 11.3769L23.3631 11.2856C23.3631 11.2856 20.3438 13.5458 13.2747 6.28827L9.69961 9.95894L6.12531 13.6296C13.1944 20.8879 10.9925 23.9879 10.9925 23.9879L11.077 23.9004C10.9 24.3085 10.7316 24.7218 10.5755 25.141V25.0208C10.5755 25.0208 9.99665 28.8117 0 28.8117V34.0027V39.1945C9.99665 39.1945 10.5755 42.9854 10.5755 42.9854V42.8704C10.7309 43.2859 10.8964 43.697 11.0734 44.1021L10.9917 44.0175C10.9917 44.0175 13.1944 47.1176 6.12531 54.3751L9.69961 58.0472L13.2747 61.7179C20.3438 54.4597 23.3631 56.7205 23.3631 56.7205L23.2843 56.6389C23.6767 56.8185 24.0735 56.9884 24.4781 57.1472H24.3697C24.3697 57.1472 28.0611 57.7415 28.0611 68.0063H33.1169H38.1727C38.1727 57.7415 41.8648 57.1472 41.8648 57.1472H41.755C42.1597 56.9884 42.5578 56.8185 42.9502 56.6382L42.8708 56.7198C42.8708 56.7198 45.8915 54.4597 52.9592 61.7179L56.5349 58.0472L60.1092 54.3751C53.0416 47.1176 55.2421 44.0175 55.2421 44.0175L55.1604 44.1028C55.3375 43.697 55.5037 43.2859 55.6591 42.8689V42.9854C55.6591 42.9854 56.2372 39.1945 66.2338 39.1945V34.0027V28.8117C56.2372 28.8117 55.6591 25.0208 55.6591 25.0208Z" fill="#02687F"/>
<mask id="mask0_264_1810" style="mask-type:luminance" maskUnits="userSpaceOnUse" x="12" y="12" width="42" height="43">
<path d="M38.1062 54.8218V52.5283C46.0129 50.28 51.8361 42.8259 51.8361 34.0027C51.8361 23.4055 43.438 14.7849 33.1169 14.7849C24.0127 14.7849 16.4052 21.4926 14.7387 30.3484H12.5418C14.2358 20.2616 22.8174 12.5656 33.1169 12.5656C44.6297 12.5656 53.9969 22.1819 53.9969 34.0027C53.9969 44.0591 47.2183 52.5194 38.1062 54.8218Z" fill="white"/>
</mask>
<g mask="url(#mask0_264_1810)">
<path d="M12.5418 54.8218H53.997V12.5655H12.5418V54.8218Z" fill="#0C768C"/>
</g>
</svg>
