<svg width="201" height="200" viewBox="0 0 201 200" fill="none" xmlns="http://www.w3.org/2000/svg">
<path d="M131.113 100.008C131.113 116.834 117.406 130.47 100.496 130.47C83.591 130.47 69.8841 116.834 69.8841 100.008C69.8841 83.1844 83.591 69.5485 100.496 69.5485C117.406 69.5485 131.113 83.1844 131.113 100.008ZM168.908 73.5858V73.9448C168.431 72.705 167.919 71.4857 167.379 70.2846L167.647 70.5481C167.647 70.5481 160.957 61.4325 182.415 40.0863L171.564 29.2891L160.718 18.4946C139.265 39.8408 130.098 33.1895 130.098 33.1895L130.371 33.4608C129.156 32.9209 127.923 32.4094 126.671 31.9342H127.045C127.045 31.9342 115.846 30.1855 115.846 2.18381e-06H100.499H85.1538C85.1538 30.1855 73.9547 31.9342 73.9547 31.9342H74.3233C73.0746 32.4094 71.8441 32.9209 70.6292 33.4582L70.9018 33.1895C70.9018 33.1895 61.7353 39.8408 40.2846 18.4946L29.4334 29.2891L18.5847 40.0837C40.038 61.4325 33.3559 70.5481 33.3559 70.5481L33.6155 70.2898C33.0781 71.4909 32.5668 72.705 32.0917 73.9397V73.5858C32.0917 73.5858 30.3368 84.7342 0 84.7342V100V115.268C30.3368 115.268 32.0917 126.417 32.0917 126.417V126.078C32.5642 127.298 33.0678 128.509 33.6051 129.702L33.3533 129.454C33.3533 129.454 40.038 138.57 18.5847 159.914L29.4334 170.711L40.2846 181.505C61.7353 160.162 70.9018 166.81 70.9018 166.81L70.6577 166.57C71.8493 167.1 73.0565 167.598 74.2818 168.068H73.9547C73.9547 168.068 85.1538 169.815 85.1538 200H100.499H115.846C115.846 169.815 127.045 168.068 127.045 168.068H126.713C127.944 167.598 129.148 167.1 130.34 166.568L130.098 166.81C130.098 166.81 139.265 160.162 160.718 181.505L171.564 170.711L182.415 159.914C160.962 138.57 167.647 129.454 167.647 129.454L167.395 129.702C167.932 128.509 168.433 127.298 168.908 126.071V126.417C168.908 126.417 170.663 115.268 201 115.268V100V84.7342C170.663 84.7342 168.908 73.5858 168.908 73.5858Z" fill="#0B3A42"/>
<path d="M92.6016 163C61.2893 159.056 37 132.419 37 100.251C37 65.376 65.5532 37 100.649 37C131.349 37 157.044 58.7083 163 87.4886H156.254C150.412 62.3492 127.7 43.551 100.649 43.551C69.1859 43.551 43.5874 68.9858 43.5874 100.251C43.5874 128.804 64.9351 152.494 92.6016 156.392V163Z" fill="#125661"/>
</svg>
