<svg width="251" height="249" viewBox="0 0 251 249" fill="none" xmlns="http://www.w3.org/2000/svg">
<path d="M161.477 109.837C169.646 129.545 160.158 152.087 140.291 160.191C120.428 168.295 97.7049 158.89 89.5329 139.182C81.3585 119.474 90.8445 96.9298 110.709 88.8279C130.576 80.7237 153.305 90.1267 161.477 109.837ZM193.051 60.7677L193.227 61.188C192.065 59.9648 190.87 58.7865 189.656 57.6341L190.094 57.8159C190.094 57.8159 177.811 50.3398 192.658 15.0514L174.669 7.60603L156.673 0.160608C141.84 35.4466 127.834 32.0509 127.834 32.0509L128.286 32.2351C126.596 32.1856 124.901 32.1761 123.202 32.2187L123.637 32.0392C123.637 32.0392 109.631 35.3592 94.9722 -6.83896e-06L76.9427 7.35571L58.9086 14.709C73.5697 50.073 61.2557 57.4854 61.2557 57.4854L61.6889 57.3083C60.4534 58.4653 59.2585 59.6507 58.0921 60.8668L58.2802 60.4205C58.2802 60.4205 50.739 72.6029 15.1682 57.8797L7.6626 75.7294L0.15947 93.5719C35.7303 108.295 32.3073 122.178 32.3073 122.178L32.4858 121.75C32.4334 123.417 32.4262 125.082 32.4643 126.756L32.2953 126.341C32.2953 126.341 35.6446 140.242 0 154.783L7.4127 172.666L14.823 190.551C50.4747 176.008 57.9492 188.23 57.9492 188.23L57.7874 187.833C58.9324 189.038 60.113 190.214 61.3223 191.352L60.9082 191.184C60.9082 191.184 73.184 198.658 58.3444 233.944L76.3333 241.394L94.3246 248.837C109.162 213.553 123.164 216.947 123.164 216.947L122.757 216.781C124.423 216.833 126.077 216.84 127.744 216.8L127.36 216.954C127.36 216.954 141.369 213.634 156.028 249L174.057 241.644L192.089 234.289C177.428 198.922 189.744 191.512 189.744 191.512L189.349 191.671C190.563 190.535 191.744 189.371 192.886 188.176L192.72 188.575C192.72 188.575 200.263 176.395 235.83 191.116L243.34 173.271L250.843 155.423C215.27 140.7 218.697 126.82 218.697 126.82L218.526 127.233C218.569 125.576 218.578 123.918 218.536 122.253L218.705 122.659C218.705 122.659 215.358 108.756 251 94.2142L243.587 76.3315L236.175 58.4464C200.525 72.9878 193.051 60.7677 193.051 60.7677Z" fill="#A6A6A6"/>
<path d="M205.951 127H197.615C198.006 117.124 196.301 107.016 192.247 97.2953C180.792 69.8431 153.808 53.2146 125.409 53.2146C116.28 53.2146 107.008 54.9321 98.0548 58.5595C69.356 70.1904 52.3144 98.079 53.3785 127H45.0421C43.9828 94.8481 62.9693 63.8974 94.8841 50.962C104.868 46.9146 115.216 45 125.394 45C157.078 45 187.177 63.5455 199.95 94.17C204.433 104.914 206.337 116.082 205.951 127Z" fill="#C4C4C4"/>
</svg>
