<svg width="476" height="379" viewBox="0 0 476 379" fill="none" xmlns="http://www.w3.org/2000/svg">
<path d="M119.81 378.705C104.679 378.705 93.4628 378.705 90.2098 378.705C81.5984 378.705 80.0701 372.398 73.9972 372.398C72.777 372.398 71.3738 372.652 69.6921 373.262C65.2216 374.889 52.4436 376.498 39.0791 376.498C22.4023 376.499 4.80941 373.992 1.2806 365.886C-1.20827 360.165 0.176075 355.313 3.3255 351.237C3.04567 352.553 2.99052 353.916 3.19905 355.332C3.05375 357.299 3.41429 359.371 4.40446 361.548C7.38168 368.096 17.2241 370.446 29.6335 370.446C46.2295 370.446 67.4145 366.243 82.9168 362.255C82.5926 362.576 82.3679 362.816 82.2522 362.965C81.7248 363.645 81.5257 364.357 81.593 365.045H81.5809V369.159H81.6616C82.1244 371.187 84.8743 372.935 88.4057 372.935C89.7107 372.935 100.44 372.935 115.497 372.935C116.862 374.871 118.298 376.793 119.81 378.705ZM13.4128 313.145C4.53499 313.145 0.934868 312.54 3.01475 308.576C3.30534 308.022 3.81925 307.388 4.51209 306.694C5.20359 307.615 6.28256 308.247 7.64673 308.247H29.8757C28.8209 309.799 27.8738 311.399 27.0263 313.03C21.6153 313.042 17.0668 313.145 13.4128 313.145Z" fill="#DBDAD8"/>
<mask id="mask0_264_6" style="mask-type:luminance" maskUnits="userSpaceOnUse" x="114" y="308" width="333" height="71">
<path d="M373.338 378.705C354.918 378.705 232.648 378.705 232.648 378.705C204.367 378.705 152.788 378.705 119.81 378.705C118.298 376.793 116.862 374.871 115.497 372.935C157.125 372.935 231.824 372.935 231.824 372.935C231.824 372.935 370.328 372.935 375.24 372.935C378.772 372.935 381.522 371.187 381.984 369.159H382.066V365.045H382.053C382.122 364.357 381.921 363.645 381.395 362.965C379.21 360.15 337.668 324.675 337.668 324.675C341.74 324.675 345.041 321.168 345.041 316.84V314.089C351.013 315.796 357.945 317.776 365.26 319.863C372.696 321.983 380.521 324.212 388.124 326.377C388.123 326.378 388.123 326.378 388.123 326.378C396.436 328.745 404.476 331.035 411.448 333.019C411.448 333.019 411.448 333.019 411.45 333.017C424.711 336.791 434.101 339.462 434.101 339.462L440.22 328.762C445.983 337.266 448.833 343.88 445.125 345.327C444.178 345.698 442.839 345.865 441.184 345.865C433.337 345.866 418.322 342.106 403.613 338.347C388.909 334.588 374.511 330.828 367.903 330.828C364.564 330.828 363.213 331.787 364.811 334.19C373.408 347.11 391.138 357.836 391.138 365.886C391.138 373.937 391.76 378.705 373.338 378.705ZM122.46 327.684C122.04 326.055 121.544 324.344 120.961 322.582C122.277 323.881 124.04 324.675 125.978 324.675C125.978 324.675 124.653 325.808 122.46 327.684ZM118.606 316.426C117.404 313.687 115.972 310.923 114.264 308.247H118.606V316.426Z" fill="white"/>
</mask>
<g mask="url(#mask0_264_6)">
<path d="M373.338 378.705C354.918 378.705 232.648 378.705 232.648 378.705C204.367 378.705 152.788 378.705 119.81 378.705C118.298 376.793 116.862 374.871 115.497 372.935C157.125 372.935 231.824 372.935 231.824 372.935C231.824 372.935 370.328 372.935 375.24 372.935C378.772 372.935 381.522 371.187 381.984 369.159H382.066V365.045H382.053C382.122 364.357 381.921 363.645 381.395 362.965C379.21 360.15 337.668 324.675 337.668 324.675C341.74 324.675 345.041 321.168 345.041 316.84V314.089C351.013 315.796 357.945 317.776 365.26 319.863C372.696 321.983 380.521 324.212 388.124 326.377C388.123 326.378 388.123 326.378 388.123 326.378C396.436 328.745 404.476 331.035 411.448 333.019C411.448 333.019 411.448 333.019 411.45 333.017C424.711 336.791 434.101 339.462 434.101 339.462L440.22 328.762C445.983 337.266 448.833 343.88 445.125 345.327C444.178 345.698 442.839 345.865 441.184 345.865C433.337 345.866 418.322 342.106 403.613 338.347C388.909 334.588 374.511 330.828 367.903 330.828C364.564 330.828 363.213 331.787 364.811 334.19C373.408 347.11 391.138 357.836 391.138 365.886C391.138 373.937 391.76 378.705 373.338 378.705ZM122.46 327.684C122.04 326.055 121.544 324.344 120.961 322.582C122.277 323.881 124.04 324.675 125.978 324.675C125.978 324.675 124.653 325.808 122.46 327.684ZM118.606 316.426C117.404 313.687 115.972 310.923 114.264 308.247H118.606V316.426Z" fill="url(#paint0_linear_264_6)"/>
</g>
<path d="M166.716 226.062L97.8876 252.173C96.0526 252.87 96.0526 256.269 97.8876 256.965L166.716 283.078C167.063 283.21 167.432 283.21 167.778 283.078L236.606 256.965C238.441 256.269 238.441 252.87 236.606 252.173L167.778 226.062C167.432 225.93 167.063 225.93 166.716 226.062Z" fill="#B1B1B0"/>
<path d="M236.606 252.173L167.778 226.062C167.432 225.93 167.063 225.93 166.716 226.062L97.8877 252.173C97.3791 252.367 97.0172 252.77 96.7912 253.263C97.0172 253.755 97.3791 254.159 97.8877 254.352L166.716 280.463C167.063 280.595 167.432 280.595 167.778 280.463L236.606 254.352C237.115 254.159 237.477 253.755 237.704 253.263C237.477 252.77 237.115 252.367 236.606 252.173Z" fill="#E9E8E7"/>
<path d="M170.174 254.57L206.28 240.668L202.518 239.241L164.32 254.57H170.174Z" fill="#B1B1B0"/>
<path d="M164.32 254.57H170.174V24.6341H164.32V254.57Z" fill="#D0D2D1"/>
<path d="M167.248 254.57H170.174V24.6341H167.248V254.57Z" fill="#A7A9A8"/>
<path d="M204.184 -3.05176e-05H130.31L93.374 66.0063L130.31 132.011H204.184L241.121 66.0063L204.184 -3.05176e-05Z" fill="#FBCB17"/>
<path d="M136.55 120.86H197.944L228.641 66.0062L197.944 11.1525H136.55L105.853 66.0062L136.55 120.86ZM199.989 124.513H134.506L101.765 66.0062L134.506 7.49789H199.989L232.73 66.0062L199.989 124.513Z" fill="#2E2D2D"/>
<path d="M174.779 82.9162C174.779 87.2079 171.407 90.6876 167.248 90.6876C163.088 90.6876 159.715 87.2079 159.715 82.9162C159.715 78.6245 163.088 75.1462 167.248 75.1462C171.407 75.1462 174.779 78.6245 174.779 82.9162Z" fill="#2E2D2D"/>
<path d="M167.248 22.0178C160.194 22.0178 155.55 30.0085 156.773 37.5787C157.996 45.1488 161.461 70.8032 167.248 70.8032C173.034 70.8032 176.498 45.1488 177.721 37.5787C178.944 30.0085 174.301 22.0178 167.248 22.0178Z" fill="#2E2D2D"/>
<path d="M157.134 100.968C157.069 100.903 156.949 100.815 156.773 100.704C156.606 100.593 156.398 100.487 156.148 100.385C155.907 100.283 155.644 100.195 155.357 100.121C155.07 100.038 154.778 99.9962 154.482 99.9962C153.964 99.9962 153.57 100.093 153.302 100.288C153.043 100.482 152.913 100.755 152.913 101.107C152.913 101.375 152.996 101.588 153.163 101.746C153.329 101.903 153.579 102.037 153.913 102.148C154.246 102.259 154.662 102.38 155.162 102.509C155.81 102.667 156.37 102.861 156.842 103.092C157.324 103.315 157.689 103.611 157.939 103.981C158.198 104.342 158.328 104.823 158.328 105.425C158.328 105.953 158.231 106.406 158.036 106.786C157.842 107.156 157.574 107.457 157.231 107.688C156.889 107.92 156.5 108.091 156.065 108.202C155.63 108.304 155.167 108.355 154.676 108.355C154.186 108.355 153.695 108.304 153.205 108.202C152.714 108.1 152.242 107.957 151.788 107.772C151.335 107.577 150.918 107.346 150.539 107.077L151.386 105.425C151.469 105.508 151.617 105.619 151.83 105.758C152.043 105.888 152.302 106.022 152.607 106.161C152.913 106.291 153.246 106.402 153.607 106.494C153.968 106.587 154.334 106.633 154.704 106.633C155.222 106.633 155.616 106.545 155.884 106.369C156.153 106.193 156.287 105.943 156.287 105.619C156.287 105.323 156.18 105.092 155.968 104.925C155.755 104.759 155.458 104.615 155.079 104.495C154.699 104.365 154.251 104.226 153.732 104.078C153.112 103.902 152.594 103.708 152.177 103.495C151.761 103.273 151.45 102.995 151.247 102.662C151.043 102.329 150.941 101.912 150.941 101.412C150.941 100.737 151.099 100.172 151.413 99.7185C151.737 99.2556 152.172 98.9085 152.719 98.6771C153.265 98.4364 153.871 98.3161 154.537 98.3161C155 98.3161 155.435 98.367 155.843 98.4688C156.259 98.5707 156.648 98.7049 157.009 98.8715C157.37 99.0381 157.694 99.2186 157.981 99.413L157.134 100.968ZM167.149 100.066H163.997V108.244H162.095V100.066H158.943V98.3855H167.149V100.066ZM172.349 108.313C171.627 108.313 170.97 108.174 170.377 107.897C169.794 107.619 169.29 107.244 168.864 106.772C168.447 106.291 168.123 105.754 167.892 105.161C167.661 104.56 167.545 103.944 167.545 103.315C167.545 102.657 167.665 102.033 167.906 101.44C168.156 100.838 168.494 100.306 168.919 99.8434C169.355 99.3714 169.864 99.0011 170.447 98.7327C171.039 98.455 171.687 98.3161 172.391 98.3161C173.103 98.3161 173.751 98.4596 174.335 98.7465C174.927 99.0335 175.431 99.4176 175.848 99.899C176.264 100.38 176.588 100.917 176.82 101.51C177.051 102.102 177.167 102.713 177.167 103.342C177.167 103.99 177.047 104.615 176.806 105.217C176.565 105.809 176.227 106.341 175.792 106.814C175.367 107.276 174.857 107.642 174.265 107.91C173.682 108.179 173.043 108.313 172.349 108.313ZM169.489 103.315C169.489 103.74 169.554 104.152 169.683 104.55C169.813 104.948 169.998 105.305 170.239 105.619C170.488 105.925 170.789 106.17 171.141 106.355C171.502 106.531 171.909 106.619 172.363 106.619C172.826 106.619 173.238 106.527 173.599 106.341C173.96 106.147 174.26 105.893 174.501 105.578C174.742 105.254 174.922 104.897 175.043 104.509C175.172 104.111 175.237 103.713 175.237 103.315C175.237 102.889 175.168 102.482 175.029 102.093C174.899 101.695 174.709 101.343 174.459 101.038C174.219 100.723 173.918 100.477 173.557 100.302C173.205 100.116 172.807 100.024 172.363 100.024C171.891 100.024 171.474 100.121 171.113 100.316C170.762 100.501 170.465 100.751 170.225 101.065C169.984 101.38 169.799 101.732 169.669 102.121C169.549 102.509 169.489 102.907 169.489 103.315ZM178.637 108.244V98.3855H182.816C183.27 98.3855 183.686 98.4781 184.066 98.6632C184.445 98.8484 184.774 99.0983 185.052 99.413C185.338 99.7277 185.561 100.079 185.718 100.468C185.875 100.857 185.954 101.255 185.954 101.662C185.954 102.218 185.824 102.745 185.565 103.245C185.306 103.745 184.95 104.152 184.496 104.467C184.043 104.782 183.506 104.939 182.886 104.939H180.553V108.244H178.637ZM180.553 103.259H182.774C183.006 103.259 183.214 103.194 183.399 103.065C183.584 102.935 183.732 102.75 183.844 102.509C183.955 102.259 184.01 101.977 184.01 101.662C184.01 101.32 183.945 101.028 183.816 100.788C183.695 100.547 183.533 100.366 183.33 100.246C183.135 100.126 182.923 100.066 182.691 100.066H180.553V103.259Z" fill="#2E2D2D"/>
<path d="M204.184 132.011H130.31C141.533 130.341 151.295 127.781 159.76 124.513H199.989L232.73 66.0063L199.989 7.49794H197.563C194.914 3.46997 192.2 0.81749 189.822 -3.05176e-05H204.184L241.121 66.0063L204.184 132.011ZM197.944 120.86H168.119C174.699 117.619 180.334 113.899 185.147 109.814H185.973V109.104C213.779 84.779 212.962 48.1441 205.182 24.0845L228.641 66.0063L197.944 120.86Z" fill="#E2B710"/>
<path d="M199.989 124.513H159.76C162.698 123.379 165.487 122.156 168.119 120.86H197.944L228.641 66.0062L205.182 24.0845C203.024 17.4138 200.329 11.7049 197.563 7.49789H199.989L232.73 66.0062L199.989 124.513Z" fill="#2A2928"/>
<mask id="mask1_264_6" style="mask-type:luminance" maskUnits="userSpaceOnUse" x="185" y="109" width="1" height="1">
<path d="M185.973 109.814H185.147C185.426 109.577 185.7 109.342 185.973 109.104V109.814Z" fill="white"/>
</mask>
<g mask="url(#mask1_264_6)">
<path d="M185.147 109.814H185.973V109.103H185.147V109.814Z" fill="#E2B710"/>
</g>
<path d="M411.617 171.941L407.916 170.158L411.562 162.103C412.285 160.507 411.825 158.572 410.466 157.503L374.713 129.36C372.645 127.733 371.943 124.788 373.043 122.356L379.987 107.024C381.286 104.153 384.608 102.908 387.393 104.248L395.298 108.06L393.569 111.878L385.662 108.068C384.921 107.71 384.033 108.042 383.688 108.808L376.744 124.141C376.452 124.789 376.638 125.575 377.191 126.009L412.944 154.153C415.818 156.414 416.794 160.51 415.264 163.888L411.617 171.941Z" fill="#959595"/>
<path d="M376.744 124.141L383.688 108.808C384.033 108.042 384.921 107.71 385.663 108.068L393.569 111.878L393.613 111.784L391.127 108.808C391.127 108.808 389.185 107.871 386.871 106.757C384.557 105.642 383.147 105.767 381.461 109.491C379.775 113.213 377.961 117.225 376.405 120.661C375.189 123.346 375.698 124.581 377.008 125.805C376.615 125.354 376.49 124.703 376.744 124.141Z" fill="#7B7E7F"/>
<path d="M472.284 131.9C469.816 130.711 435.515 114.18 435.515 114.18C435.515 114.18 401.216 97.6485 398.747 96.4604C396.28 95.2709 394.419 96.0606 393.885 97.2404C393.395 98.3203 389.891 106.064 389.296 107.376L389.209 107.569C388.614 108.882 385.108 116.624 384.62 117.704C384.086 118.884 384.693 120.863 387.16 122.052C389.629 123.242 423.928 139.773 423.928 139.773C423.928 139.773 458.228 156.304 460.697 157.494C463.164 158.683 465.025 157.892 465.559 156.712C466.048 155.632 469.553 147.89 470.148 146.577L470.236 146.384C470.83 145.072 474.336 137.329 474.824 136.25C475.359 135.069 474.752 133.09 472.284 131.9Z" fill="#FBBF5C"/>
<path d="M387.107 112.211C386.02 114.611 384.882 117.122 384.62 117.704C384.086 118.884 384.693 120.863 387.16 122.052C389.629 123.242 423.928 139.773 423.928 139.773C423.928 139.773 458.228 156.304 460.697 157.494C463.164 158.683 465.025 157.892 465.559 156.712C465.822 156.131 466.958 153.62 468.047 151.22L387.107 112.211Z" fill="#F9AB5B"/>
<path d="M472.285 131.9C469.816 130.711 435.515 114.18 435.515 114.18C435.515 114.18 401.216 97.6485 398.747 96.4603C396.28 95.2708 394.419 96.0606 393.885 97.2404C393.775 97.4833 393.506 98.076 393.159 98.8449L474.098 137.853C474.446 137.084 474.714 136.492 474.824 136.25C475.359 135.069 474.752 133.09 472.285 131.9Z" fill="#F9AB5B"/>
<path d="M391.256 103.046C390.377 104.99 389.557 106.8 389.296 107.376L389.209 107.569L389.092 107.827L470.031 146.836L470.148 146.577L470.236 146.384C470.497 145.809 471.316 143.998 472.196 142.055L391.256 103.046Z" fill="#FBCB65"/>
<path d="M374.713 129.36L410.466 157.503C411.825 158.572 412.285 160.507 411.562 162.103L409.206 167.307L410.706 167.896C410.706 167.896 412.521 163.888 413.472 161.787C414.423 159.686 411.555 156.559 408.989 154.509C406.424 152.458 381.836 132.815 377.175 129.289C372.513 125.764 373.043 122.356 374.448 119.253L373.043 122.356C371.943 124.788 372.645 127.733 374.713 129.36Z" fill="#7B7E7F"/>
<path d="M418.813 173.013C420.172 170.013 419.106 168.108 417.645 167.404C416.185 166.7 412.533 164.94 412.533 164.94C412.533 164.94 408.882 163.18 407.421 162.476C405.961 161.773 403.861 162.153 402.502 165.152C401.145 168.152 383.346 205.17 382.441 207.169C381.535 209.17 382.676 213.2 384.745 214.197C386.814 215.195 389.248 216.367 389.248 216.367C389.248 216.367 391.683 217.541 393.752 218.538C395.821 219.534 399.549 217.852 400.455 215.851C401.36 213.852 417.454 176.014 418.813 173.013Z" fill="#F8A510"/>
<path d="M413.962 175.397C412.198 180.286 399.758 208.096 398.201 211.533C396.875 214.463 385.291 210.641 383.049 205.876C382.732 206.544 382.52 206.994 382.441 207.169C381.535 209.17 382.676 213.2 384.745 214.197C386.814 215.195 389.248 216.367 389.248 216.367C389.248 216.367 391.683 217.541 393.752 218.538C395.821 219.534 399.549 217.852 400.455 215.851C401.36 213.852 417.454 176.014 418.813 173.013C420.172 170.013 419.106 168.108 417.645 167.404C417.016 167.1 415.978 166.6 415 166.128C416.604 166.903 415.723 170.509 413.962 175.397Z" fill="#F68B16"/>
<path d="M399.904 187.852C396.18 196.077 392.304 202.333 391.248 201.825C390.192 201.315 392.356 194.234 396.081 186.009C399.803 177.783 403.679 171.528 404.735 172.037C405.791 172.545 403.63 179.626 399.904 187.852Z" fill="#FBC60C"/>
<path d="M271.508 245.82L265.935 232.018L273.043 220.084L286.264 223.279L291.838 237.08C294.76 232.047 295.411 225.701 293.055 219.87C289.115 210.111 278.252 205.497 268.795 209.564C259.337 213.63 254.865 224.836 258.804 234.594C261.16 240.425 265.987 244.417 271.508 245.82Z" fill="#D2D3D2"/>
<path d="M291.838 237.08L290.815 238.312L285.585 225.364L286.264 223.279L291.838 237.08Z" fill="#B8B9BA"/>
<path d="M285.585 225.364L273.982 222.409L273.043 220.084L286.264 223.279L285.585 225.364Z" fill="#9C9EA0"/>
<path d="M271.508 245.82L273.077 245.938L267.846 232.99L265.935 232.018L271.508 245.82Z" fill="#9C9EA0"/>
<path d="M267.846 232.99L273.982 222.409L273.043 220.084L265.935 232.018L267.846 232.99Z" fill="#B8B9BA"/>
<path d="M239.74 108.014L245.313 121.816L238.205 133.75L224.984 130.555L219.41 116.754C216.488 121.787 215.837 128.133 218.193 133.964C222.133 143.722 232.995 148.337 242.453 144.27C251.911 140.205 256.384 128.998 252.442 119.24C250.088 113.409 245.261 109.417 239.74 108.014Z" fill="#D2D3D2"/>
<path d="M219.41 116.754L220.433 115.522L225.663 128.472L224.984 130.555L219.41 116.754Z" fill="#B8B9BA"/>
<path d="M225.663 128.472L237.266 131.425L238.205 133.75L224.984 130.555L225.663 128.472Z" fill="#9C9EA0"/>
<path d="M239.74 108.014L238.172 107.896L243.402 120.845L245.313 121.816L239.74 108.014Z" fill="#9C9EA0"/>
<path d="M243.402 120.845L237.266 131.425L238.205 133.75L245.313 121.816L243.402 120.845Z" fill="#B8B9BA"/>
<path d="M239.406 155.517L258.835 203.695C262.309 212.296 258.826 219.824 258.826 219.824L264.385 217.436L264.624 218.028L277.557 212.469L277.316 211.875L282.875 209.485C282.875 209.485 275.24 206.736 271.768 198.136L252.34 149.958C248.866 141.359 252.349 133.83 252.349 133.83L240.323 138.998L228.3 144.169C228.3 144.169 235.932 146.918 239.406 155.517Z" fill="#D2D3D2"/>
<path d="M229.837 144.888C232.245 146.167 236.901 149.315 239.406 155.517L258.835 203.694C262.022 211.587 259.36 218.559 258.898 219.656L258.831 219.813L258.826 219.824C256.972 224.383 256.817 229.672 258.804 234.594C261.16 240.425 265.987 244.417 271.508 245.82L265.935 232.018L273.043 220.084L286.264 223.279C286.264 223.279 267.658 215.623 265.316 209.534C262.975 203.445 238.915 150.553 241.318 144.759C243.722 138.964 251.022 138.819 251.022 138.819C251.215 137.453 251.503 136.307 251.761 135.462C254.218 130.601 254.646 124.695 252.442 119.24C250.088 113.409 245.261 109.417 239.74 108.014L245.313 121.816L238.205 133.75L224.984 130.555L219.41 116.754C216.488 121.787 215.837 128.133 218.193 133.964C220.395 139.42 224.762 143.265 229.837 144.888Z" fill="#C4C4C4"/>
<path d="M295.439 115.491L296.53 143.385C296.572 144.43 295.785 145.311 294.772 145.353L285.237 145.751C284.224 145.793 283.37 144.981 283.33 143.936L281.219 90.0187C281.177 88.9749 281.964 88.0935 282.977 88.0505L292.512 87.6535C293.525 87.6119 294.379 88.4253 294.419 89.469L295.439 115.491Z" fill="#959595"/>
<path d="M294.425 89.5954L295.439 115.491L295.524 117.676C293.35 117.768 290.122 117.902 288.924 117.951C287.05 118.03 287.826 121.197 287.898 123.046C287.954 124.465 288.454 137.222 288.782 145.603L285.237 145.751C284.224 145.793 283.37 144.981 283.33 143.936L281.223 90.145L294.425 89.5954Z" fill="#7A7B7C"/>
<path d="M322.12 108.988C323.098 109.78 324.424 108.493 323.894 107.333C321.595 102.301 312.779 90.0089 300.827 90.5072C286.81 91.0915 280.291 91.3636 276.705 91.5135L275.972 91.5441C273.946 91.6287 272.371 93.3901 272.453 95.4804L273.132 112.8C273.209 114.796 274.841 116.349 276.777 116.268L299.432 115.323C301.367 115.243 302.872 113.559 302.794 111.562L302.553 105.41C302.458 102.98 304.595 101.11 306.904 101.592C310.659 102.376 316.309 104.296 322.12 108.988Z" fill="#C3C9C1"/>
<path d="M272.555 98.0856L272.789 104.055L273.023 110.025C273.023 110.025 266.988 109.939 264.576 115.261L264.151 104.415L263.727 93.5705C266.548 98.6728 272.555 98.0856 272.555 98.0856Z" fill="#959595"/>
<path d="M256.321 117.121L260.888 116.931C262.957 116.844 264.568 115.044 264.483 112.91L263.818 95.9204C263.735 93.787 261.99 92.127 259.922 92.213L255.352 92.4032C253.283 92.4893 251.674 94.2895 251.757 96.4229L252.422 113.412C252.507 115.548 254.252 117.208 256.321 117.121Z" fill="#C3C9C1"/>
<path d="M277.839 111.091C281.505 110.937 289.696 110.596 294.181 110.408C298.667 110.222 299.857 107.432 299.965 103.94C300.072 100.448 301.79 97.3722 308.23 99.2516C314.671 101.131 318.362 104.766 321.376 106.662C322.451 107.338 323.25 107.409 323.836 107.21L323.894 107.333C324.424 108.493 323.098 109.78 322.12 108.988C316.309 104.296 310.659 102.376 306.905 101.592C304.595 101.11 302.458 102.98 302.553 105.41L302.794 111.562C302.872 113.559 301.367 115.243 299.432 115.323L276.777 116.268C274.841 116.349 273.209 114.796 273.132 112.8L272.555 98.0857C272.555 98.0857 274.172 111.243 277.839 111.091Z" fill="#B1B1B0"/>
<path d="M264.576 115.261L264.296 108.133C268.052 105.488 271.631 105.734 271.567 104.105C271.512 102.729 271.397 99.7582 271.331 98.0856C272.079 98.1328 272.555 98.0856 272.555 98.0856L272.789 104.055L273.023 110.025C273.023 110.025 266.988 109.939 264.576 115.261Z" fill="#7A7B7C"/>
<path d="M262.842 116.85L254.367 117.203C253.376 117.244 252.542 116.449 252.501 115.427L252.09 104.917C252.205 107.86 253.076 110.267 255.154 110.179C257.232 110.093 258.82 110.027 260.898 109.941C262.976 109.853 264.296 108.133 264.151 104.415L264.562 114.925C264.603 115.946 263.832 116.808 262.842 116.85Z" fill="#B1B1B0"/>
<path d="M280.596 141.47C280.588 139.738 281.91 138.31 283.588 138.241L289.708 137.985L295.828 137.73C297.505 137.66 298.936 138.973 299.062 140.701L305.619 232.476C305.752 234.292 304.4 235.86 302.637 235.934L293.558 236.311L284.48 236.691C282.718 236.765 281.246 235.315 281.236 233.492L280.596 141.47Z" fill="#F68714"/>
<path d="M287.255 236.575L284.48 236.691C282.718 236.765 281.246 235.315 281.236 233.492L280.596 141.47C280.588 139.738 281.91 138.31 283.588 138.241L286.536 138.117L287.255 236.575Z" fill="#F36C17"/>
<path d="M291.826 137.898L295.828 137.73C297.505 137.66 298.936 138.973 299.062 140.701L305.619 232.476C305.752 234.292 304.4 235.86 302.637 235.934L297.666 236.14L291.826 137.898Z" fill="#F79813"/>
<path d="M334.099 126.64L332.699 126.33L332.171 126.213L331.641 126.097L330.241 125.787L327.027 133.109L328.077 138.694L321.705 169.411L324.586 170.047L330.956 139.33L334.128 134.676L334.099 126.64Z" fill="#959595"/>
<path d="M308.793 226.442L313.749 227.536C315.993 228.033 318.203 226.556 318.684 224.241L330.209 168.668C330.688 166.353 329.259 164.074 327.014 163.578L322.056 162.483C319.811 161.989 317.602 163.465 317.122 165.78L305.598 221.351C305.116 223.668 306.547 225.947 308.793 226.442Z" fill="#CCCCC9"/>
<path d="M319.955 162.02L322.605 162.606L309.342 226.565L306.69 225.979C305.607 225.739 304.916 224.638 305.148 223.521L317.571 163.612C317.804 162.493 318.871 161.781 319.955 162.02Z" fill="#E9E8E7"/>
<path d="M328.116 163.821L329.115 164.042C330.2 164.281 330.89 165.383 330.659 166.5L318.233 226.409C318.002 227.526 316.935 228.24 315.852 228.001L314.852 227.78L328.116 163.821Z" fill="#B1B1B0"/>
<path d="M347.365 134.841L387.21 149.215L383.674 159.646L343.829 145.272L347.365 134.841Z" fill="#E9E8E7"/>
<path d="M383.674 159.646L363.751 152.459L343.829 145.272C343.829 145.272 339.818 156.448 343.566 159.179C347.312 161.906 354.48 167.018 352.608 172.539C350.736 178.062 334.976 202.902 345.383 206.656C355.789 210.411 358.468 180.849 360.339 175.328C362.211 169.806 370.903 170.417 375.481 170.692C380.059 170.967 383.674 159.646 383.674 159.646Z" fill="#F79813"/>
<path d="M395.197 129.259C395.4 128.57 394.314 127.664 392.537 126.674L388.812 134.339L390.584 125.679C388.539 124.71 386.05 123.707 383.61 122.782L381.382 127.37L382.411 122.334C380.739 121.712 379.131 121.139 377.748 120.65L374.819 126.678L376.167 120.092C375.683 119.922 375.248 119.768 374.877 119.633C373.273 119.054 370.533 118.019 367.529 116.962L365.796 120.528L366.592 116.636C364.429 115.888 362.18 115.154 360.152 114.588L356.262 122.595L358.012 114.038C355.397 113.436 353.477 113.301 353.171 114.098C352.24 116.516 347.365 134.841 347.365 134.841L367.287 142.028L387.21 149.215C387.21 149.215 394.464 131.749 395.197 129.259Z" fill="#FBBF5C"/>
<path d="M395.197 129.259C395.4 128.57 394.314 127.664 392.537 126.674L388.812 134.339L390.584 125.679C388.539 124.71 386.05 123.707 383.61 122.782L381.382 127.37L382.411 122.334C380.739 121.712 379.131 121.139 377.748 120.65L374.819 126.678L376.167 120.092C375.683 119.922 375.248 119.768 374.877 119.633C373.273 119.054 370.533 118.019 367.529 116.962L365.796 120.528L366.592 116.636C364.429 115.888 362.18 115.154 360.152 114.588L356.262 122.595L358.012 114.038C355.397 113.436 353.477 113.301 353.171 114.098C352.777 115.121 351.678 118.989 350.54 123.113C351.066 122.68 351.697 122.584 351.728 124.595C351.778 128.055 354.249 129.463 356.332 126.599C358.415 123.736 360.287 123.952 360.848 125.417C361.408 126.883 362.793 127.553 364.35 125.59C365.905 123.626 368.873 123.894 369.112 126.964C369.349 130.035 372.229 131.877 373.857 130.684C375.485 129.492 376.485 130.479 376.759 132.131C377.034 133.781 378.477 136.253 380.521 134.982C382.566 133.71 383.965 132.207 385.145 133.321C386.324 134.436 386.803 139.257 389.033 137.766C390.842 136.556 391.984 135.258 392.719 135.741C393.94 132.697 394.948 130.108 395.197 129.259Z" fill="#51AEE5"/>
<path d="M378.703 157.853C376.292 163.623 373.494 168.009 369.95 167.319C364.42 166.242 360.045 167.992 358.53 174.102C357.015 180.212 354.814 194.911 350.921 200.162C347.029 205.414 341.892 199.757 342.629 195.564C341.256 200.817 341.454 205.241 345.383 206.656C355.789 210.411 358.468 180.849 360.339 175.328C362.211 169.806 370.903 170.417 375.481 170.692C380.059 170.967 383.674 159.646 383.674 159.646L378.703 157.853Z" fill="#F68317"/>
<path d="M378.703 157.853L383.674 159.646L387.21 149.215L382.453 147.5C381.282 150.952 380.052 154.619 378.703 157.853Z" fill="#D3D2D1"/>
<path d="M351.262 147.954L346.407 146.202L349.943 135.771L354.798 137.523L351.262 147.954Z" fill="#FFF8F6"/>
<path d="M346.407 146.202C346.407 146.202 343.138 154.204 346.131 158.089C348.469 161.124 355.768 165.187 354.015 171.671C352.262 178.154 342.345 193.626 344.731 196.438C347.115 199.249 349.507 196.784 350.938 191.906C352.368 187.029 356.993 172.399 357.31 168.842C357.626 165.283 354.042 160.432 351.564 157.242C349.084 154.054 351.262 147.954 351.262 147.954L346.407 146.202Z" fill="#F8AC0F"/>
<path d="M387.21 149.215L382.453 147.5L367.287 142.028L352.119 136.557L349.943 135.771L347.365 134.841C347.365 134.841 347.365 134.841 347.365 134.84V134.839V134.837C347.365 134.837 347.365 134.837 347.366 134.837C347.366 134.836 347.366 134.836 347.366 134.836C347.366 134.834 347.366 134.834 347.366 134.834C347.405 134.689 348.017 132.389 348.835 129.36C350.377 131.649 354.846 135.934 367.771 140.596C370.854 141.709 373.56 142.194 375.907 142.194C381.269 142.192 384.761 139.665 386.599 136.311C387.021 137.259 387.516 138.049 388.236 138.049C388.476 138.049 388.739 137.963 389.033 137.766C390.576 136.733 391.634 135.637 392.369 135.637C392.495 135.637 392.611 135.67 392.719 135.741C393.137 134.697 393.531 133.707 393.877 132.823C393.064 134.901 391.991 137.56 390.946 140.13C390.737 140.642 390.53 141.15 390.325 141.649C388.657 145.729 387.21 149.215 387.21 149.215Z" fill="#DAA650"/>
<path d="M388.236 138.049C387.516 138.049 387.021 137.259 386.599 136.311C388.73 132.425 388.64 127.431 386.663 123.977C388.032 124.533 389.351 125.098 390.523 125.651C390.526 125.653 390.527 125.653 390.529 125.654C390.547 125.662 390.565 125.671 390.584 125.679L388.812 134.339L392.537 126.674C394.176 127.586 395.225 128.429 395.221 129.094C395.221 129.15 395.213 129.206 395.197 129.259C395.033 129.817 394.542 131.127 393.877 132.823C393.531 133.707 393.137 134.697 392.719 135.741C392.611 135.67 392.495 135.637 392.369 135.637C391.634 135.637 390.576 136.733 389.033 137.766C388.739 137.963 388.476 138.049 388.236 138.049Z" fill="#4495CA"/>
<path d="M242.53 288.582H412.806V187.962H242.53V288.582Z" fill="#90836C"/>
<path d="M255.429 288.347H260.49V253.948H325.981V241.05H249.773V288.347H255.429Z" fill="#746959"/>
<path d="M255.429 239.617H260.49V205.22H325.981V192.321H249.773V239.617H255.429Z" fill="#746959"/>
<path d="M338.78 287.631H343.842V253.234H409.332V240.334H333.125V287.631H338.78Z" fill="#746959"/>
<path d="M338.78 238.902H343.842V204.504H409.332V191.604H333.125V238.902H338.78Z" fill="#746959"/>
<path d="M236.992 302.681H256.422V176.555H236.992V302.681Z" fill="#C4AE8F"/>
<path d="M236.992 302.681H238.979V176.555H236.992V302.681Z" fill="#E4CFB2"/>
<path d="M254.433 302.681H256.422V176.555H254.433V302.681Z" fill="#A6957B"/>
<path d="M320.334 302.681H339.764V176.555H320.334V302.681Z" fill="#C4AE8F"/>
<path d="M320.334 302.681H322.321V176.555H320.334V302.681Z" fill="#E4CFB2"/>
<path d="M337.777 302.681H339.764V176.555H337.777V302.681Z" fill="#A6957B"/>
<path d="M403.09 302.681H422.521V176.555H403.09V302.681Z" fill="#C4AE8F"/>
<path d="M403.09 302.681H405.079V176.555H403.09V302.681Z" fill="#E4CFB2"/>
<path d="M420.532 302.681H422.52V176.555H420.532V302.681Z" fill="#A6957B"/>
<path d="M233.402 298.603H426.697V278.559H233.402V298.603Z" fill="#C4AE8F"/>
<path d="M233.402 280.608H426.697V278.559H233.402V280.608Z" fill="#E4CFB2"/>
<path d="M233.402 298.603H426.697V296.555H233.402V298.603Z" fill="#A6957B"/>
<path d="M233.402 200.924H426.697V180.878H233.402V200.924Z" fill="#C4AE8F"/>
<path d="M233.402 182.929V180.879H426.697V182.929H233.402Z" fill="#E4CFB2"/>
<path d="M233.402 200.924H426.697V198.874H233.402V200.924Z" fill="#A6957B"/>
<path d="M233.402 249.641H426.697V229.596H233.402V249.641Z" fill="#C4AE8F"/>
<path d="M233.402 231.646H426.697V229.596H233.402V231.646Z" fill="#E4CFB2"/>
<path d="M233.402 249.641H426.697V247.59H233.402V249.641Z" fill="#A6957B"/>
<path d="M248.861 190.382C248.861 191.452 248.019 192.321 246.98 192.321C245.943 192.321 245.101 191.452 245.101 190.382C245.101 189.309 245.943 188.44 246.98 188.44C248.019 188.44 248.861 189.309 248.861 190.382Z" fill="#A6957B"/>
<path d="M248.13 190.382C248.13 191.452 247.29 192.321 246.25 192.321C245.212 192.321 244.37 191.452 244.37 190.382C244.37 189.309 245.212 188.44 246.25 188.44C247.29 188.44 248.13 189.309 248.13 190.382Z" fill="#F5F6F5"/>
<path d="M332.659 190.382C332.659 191.452 331.817 192.321 330.778 192.321C329.741 192.321 328.899 191.452 328.899 190.382C328.899 189.309 329.741 188.44 330.778 188.44C331.817 188.44 332.659 189.309 332.659 190.382Z" fill="#A6957B"/>
<path d="M331.93 190.382C331.93 191.452 331.088 192.321 330.049 192.321C329.011 192.321 328.168 191.452 328.168 190.382C328.168 189.309 329.011 188.44 330.049 188.44C331.088 188.44 331.93 189.309 331.93 190.382Z" fill="#F5F6F5"/>
<path d="M416.457 190.382C416.457 191.452 415.616 192.321 414.578 192.321C413.539 192.321 412.697 191.452 412.697 190.382C412.697 189.309 413.539 188.44 414.578 188.44C415.616 188.44 416.457 189.309 416.457 190.382Z" fill="#A6957B"/>
<path d="M415.728 190.382C415.728 191.452 414.886 192.321 413.849 192.321C412.809 192.321 411.968 191.452 411.968 190.382C411.968 189.309 412.809 188.44 413.849 188.44C414.886 188.44 415.728 189.309 415.728 190.382Z" fill="#F5F6F5"/>
<path d="M248.861 239.617C248.861 240.69 248.019 241.558 246.98 241.558C245.943 241.558 245.101 240.69 245.101 239.617C245.101 238.547 245.943 237.678 246.98 237.678C248.019 237.678 248.861 238.547 248.861 239.617Z" fill="#A6957B"/>
<path d="M248.13 239.617C248.13 240.69 247.29 241.558 246.25 241.558C245.212 241.558 244.37 240.69 244.37 239.617C244.37 238.547 245.212 237.678 246.25 237.678C247.29 237.678 248.13 238.547 248.13 239.617Z" fill="#F5F6F5"/>
<path d="M332.659 239.617C332.659 240.69 331.817 241.558 330.778 241.558C329.741 241.558 328.899 240.69 328.899 239.617C328.899 238.547 329.741 237.678 330.778 237.678C331.817 237.678 332.659 238.547 332.659 239.617Z" fill="#A6957B"/>
<path d="M331.93 239.617C331.93 240.69 331.088 241.558 330.049 241.558C329.011 241.558 328.168 240.69 328.168 239.617C328.168 238.547 329.011 237.678 330.049 237.678C331.088 237.678 331.93 238.547 331.93 239.617Z" fill="#F5F6F5"/>
<path d="M416.457 239.617C416.457 240.69 415.616 241.558 414.578 241.558C413.539 241.558 412.697 240.69 412.697 239.617C412.697 238.547 413.539 237.678 414.578 237.678C415.616 237.678 416.457 238.547 416.457 239.617Z" fill="#A6957B"/>
<path d="M415.728 239.617C415.728 240.69 414.886 241.558 413.849 241.558C412.809 241.558 411.968 240.69 411.968 239.617C411.968 238.547 412.809 237.678 413.849 237.678C414.886 237.678 415.728 238.547 415.728 239.617Z" fill="#F5F6F5"/>
<path d="M248.861 288.855C248.861 289.925 248.019 290.794 246.98 290.794C245.943 290.794 245.101 289.925 245.101 288.855C245.101 287.784 245.943 286.915 246.98 286.915C248.019 286.915 248.861 287.784 248.861 288.855Z" fill="#A6957B"/>
<path d="M248.13 288.855C248.13 289.925 247.29 290.794 246.25 290.794C245.212 290.794 244.37 289.925 244.37 288.855C244.37 287.784 245.212 286.915 246.25 286.915C247.29 286.915 248.13 287.784 248.13 288.855Z" fill="#F5F6F5"/>
<path d="M332.659 288.855C332.659 289.925 331.817 290.794 330.778 290.794C329.741 290.794 328.899 289.925 328.899 288.855C328.899 287.784 329.741 286.915 330.778 286.915C331.817 286.915 332.659 287.784 332.659 288.855Z" fill="#A6957B"/>
<path d="M331.93 288.855C331.93 289.925 331.088 290.794 330.049 290.794C329.011 290.794 328.168 289.925 328.168 288.855C328.168 287.784 329.011 286.915 330.049 286.915C331.088 286.915 331.93 287.784 331.93 288.855Z" fill="#F5F6F5"/>
<path d="M416.457 288.855C416.457 289.925 415.616 290.794 414.576 290.794C413.539 290.794 412.697 289.925 412.697 288.855C412.697 287.784 413.539 286.915 414.576 286.915C415.616 286.915 416.457 287.784 416.457 288.855Z" fill="#A6957B"/>
<path d="M415.728 288.855C415.728 289.925 414.886 290.794 413.849 290.794C412.809 290.794 411.968 289.925 411.968 288.855C411.968 287.784 412.809 286.915 413.849 286.915C414.886 286.915 415.728 287.784 415.728 288.855Z" fill="#F5F6F5"/>
<path d="M136.317 269.579H35.8207L5.40409 300.731C2.15646 303.01 3.71972 308.247 7.64675 308.247H86.0689H164.491C168.418 308.247 169.98 303.01 166.734 300.731L136.317 269.579Z" fill="#DA5F1D"/>
<path d="M166.734 300.731L136.317 269.579H35.8207L5.40411 300.731C4.70185 301.224 4.23906 301.857 3.96057 302.542C4.52023 303.979 5.82384 305.113 7.64677 305.113H86.0689H164.491C166.313 305.113 167.616 303.979 168.176 302.542C167.899 301.857 167.433 301.224 166.734 300.731Z" fill="#F6811D"/>
<path d="M106.619 298.975C106.23 298.613 105.83 298.255 105.424 297.904C110.421 297.197 114.823 296.239 118.606 295.129V297.906C114.727 298.384 110.686 298.742 106.619 298.975Z" fill="#CC601D"/>
<path d="M135.052 283.479C133.645 277.626 104.489 166.364 104.489 166.364H86.0689H67.6473C67.6473 166.364 38.4912 277.626 37.0853 283.479C35.7064 289.219 53.4002 299.061 86.0689 299.061C118.738 299.061 136.431 289.219 135.052 283.479Z" fill="#F36920"/>
<path d="M135.052 283.479C133.645 277.626 104.489 166.364 104.489 166.364H86.0689H67.6473C67.6473 166.364 38.4912 277.626 37.0853 283.479C35.7064 289.219 53.4002 299.061 86.0689 299.061C118.738 299.061 136.431 289.219 135.052 283.479Z" fill="#F36920"/>
<path d="M117.483 215.991C115.135 207.019 112.864 198.339 110.893 190.812C103.922 192.393 95.6921 193.418 86.0528 193.418L86.0071 193.513V193.418C76.4014 193.418 68.1949 192.4 61.2395 190.829C59.2686 198.358 56.9976 207.035 54.65 216.007C70.155 219.608 86.0071 219.3 86.0071 219.3V219.207L86.0528 219.3C86.0528 219.3 101.956 219.609 117.483 215.991Z" fill="white"/>
<path d="M123.935 240.675C114.963 244.332 102.583 247.326 86.0918 247.326L86.046 247.422V247.326C69.5536 247.326 57.1752 244.332 48.2018 240.675C45.791 249.909 43.5281 258.579 41.6783 265.69C59.6587 273.723 86.046 273.207 86.046 273.207V273.115L86.0918 273.207C86.0918 273.207 112.479 273.723 130.46 265.69C128.608 258.579 126.347 249.909 123.935 240.675Z" fill="white"/>
<path d="M47.9126 293.065C46.9978 292.696 46.1367 292.32 45.3336 291.935L50.2979 268.781C56.1675 270.463 62.313 271.509 67.8222 272.159L66.0288 288.133C58.982 288.997 52.9953 290.714 47.9126 293.065ZM70.716 246.391C65.1059 245.677 60.1363 244.597 55.7599 243.309L61.3296 217.334C65.7948 218.082 70.0904 218.549 73.8102 218.839L70.716 246.391ZM76.7027 193.085C73.1753 192.825 69.8711 192.424 66.7809 191.91L72.2577 166.364H79.7028L76.7027 193.085Z" fill="#F68845"/>
<path d="M73.8102 218.839C70.0904 218.549 65.7948 218.082 61.3296 217.334L66.7809 191.91C69.8711 192.424 73.1753 192.825 76.7027 193.085L73.8102 218.839Z" fill="white"/>
<path d="M67.8222 272.159C62.313 271.509 56.1675 270.463 50.2979 268.781L55.7599 243.309C60.1363 244.597 65.1059 245.677 70.716 246.391L67.8222 272.159Z" fill="white"/>
<path d="M105.424 297.904C105.384 297.867 105.342 297.831 105.3 297.797C110.347 297.089 114.792 296.124 118.606 295.004V295.129C114.823 296.239 110.421 297.197 105.424 297.904Z" fill="#BF581E"/>
<path d="M105.3 297.797C104.526 297.132 103.721 296.491 102.884 295.874C112.051 290.367 113.241 280.166 112.402 270.957C114.458 270.582 116.538 270.146 118.606 269.64V295.004C114.792 296.124 110.347 297.089 105.3 297.797ZM108.049 245.33C106.674 237.534 105.015 228.025 103.336 218.359C107.749 217.867 112.618 217.122 117.452 215.998C117.834 217.459 118.22 218.936 118.606 220.41V242.621C115.432 243.651 111.921 244.578 108.049 245.33ZM98.9074 192.768C96.4065 178.286 94.5324 167.369 94.5324 167.369L96.5302 166.489H104.489C104.489 166.489 107.131 176.57 110.862 190.819C107.226 191.642 103.249 192.314 98.9074 192.768Z" fill="#E7601D"/>
<path d="M103.336 218.359C101.809 209.563 100.265 200.638 98.9074 192.768C103.249 192.314 107.226 191.642 110.862 190.819C112.832 198.342 115.103 207.02 117.451 215.998C112.618 217.122 107.749 217.867 103.336 218.359Z" fill="#F2EBE5"/>
<path d="M112.402 270.957C112.117 267.82 111.598 264.8 111.077 262.117C110.546 259.374 109.444 253.234 108.049 245.33C111.921 244.578 115.432 243.651 118.606 242.621V269.64C116.538 270.146 114.458 270.582 112.402 270.957Z" fill="#F2EBE5"/>
<path d="M104.414 166.364C104.414 168.099 96.1831 169.505 86.0312 169.505C75.878 169.505 67.6473 168.099 67.6473 166.364C67.6473 164.629 75.878 163.223 86.0312 163.223C96.1831 163.223 104.414 164.629 104.414 166.364Z" fill="#F89D18"/>
<path d="M86.0313 168.752C75.7865 168.752 69.2523 167.372 68.3818 166.364C69.2523 165.357 75.7865 163.977 86.0313 163.977C96.2746 163.977 102.808 165.357 103.678 166.364C102.808 167.372 96.2746 168.752 86.0313 168.752Z" fill="#8B3E1C"/>
<path d="M86.0313 163.977C75.7865 163.977 69.2523 165.357 68.3818 166.364C68.9805 167.055 72.2483 167.923 77.5543 168.399C78.414 166.461 80.9769 164.241 88.165 163.999C87.4708 163.985 86.7631 163.977 86.0313 163.977Z" fill="#723318"/>
<path d="M336.142 316.338L360.577 273.595L385.014 230.855L374.912 189.83C374.67 185.96 369.726 184.743 367.815 188.082L329.677 254.789L291.538 321.497C289.629 324.838 293.055 328.714 296.454 327.06L336.142 316.338Z" fill="#DA5F1D"/>
<path d="M296.453 327.06L336.142 316.338L360.577 273.595L385.014 230.855L374.912 189.83C374.861 188.995 374.58 188.292 374.167 187.723C372.746 187.498 371.207 188.057 370.32 189.608L332.181 256.313L294.044 323.022C293.157 324.573 293.429 326.233 294.305 327.407C294.987 327.505 295.72 327.418 296.453 327.06Z" fill="#F6811D"/>
<path d="M325.647 308.502C331.008 310.153 434.101 339.462 434.101 339.462L443.06 323.793L452.018 308.122C452.018 308.122 377.285 229.211 373.291 225.168C369.376 221.205 352.905 231.468 337.017 259.257C321.131 287.047 320.391 306.884 325.647 308.502Z" fill="#F36920"/>
<path d="M325.647 308.502C331.008 310.153 434.101 339.462 434.101 339.462L443.06 323.793L452.018 308.122C452.018 308.122 377.285 229.211 373.291 225.168C369.376 221.205 352.905 231.468 337.017 259.257C321.131 287.047 320.391 306.884 325.647 308.502Z" fill="#F36920"/>
<path d="M388.123 326.378C396.436 328.745 404.476 331.035 411.448 333.019C413.575 326.32 416.761 318.822 421.448 310.622L421.393 310.537L421.47 310.583C426.142 302.412 430.946 295.927 435.585 290.775C430.527 285.437 424.696 279.284 418.669 272.924C408.249 284.359 400.788 297.997 400.788 297.997L400.861 298.041L400.765 298.034C400.765 298.034 392.783 311.41 388.123 326.378Z" fill="white"/>
<path d="M365.26 319.863C366.701 310.451 370.33 298.466 378.351 284.437L378.295 284.353L378.372 284.4C386.392 270.37 394.804 261.297 402.092 255.443C395.884 248.9 390.056 242.76 385.274 237.728C370.11 249.115 357.689 271.812 357.689 271.812L357.763 271.856L357.667 271.851C357.667 271.851 344.423 294.045 342.098 313.247C348.679 315.13 356.708 317.423 365.26 319.863Z" fill="white"/>
<path d="M446.155 318.377L426.263 302.831C428.186 299.956 430.114 297.341 432.025 294.961L449.777 312.045L446.155 318.377ZM407.087 287.845L386.575 271.813C389.873 267.39 393.153 263.687 396.311 260.59L414.36 277.961C411.59 281.395 409.128 284.82 407.087 287.845Z" fill="#F68845"/>
<path d="M426.263 302.831L407.087 287.845C409.128 284.82 411.59 281.395 414.36 277.961L432.025 294.961C430.114 297.341 428.186 299.956 426.263 302.831Z" fill="white"/>
<path d="M367.389 256.82L348.511 242.067C353.634 235.591 358.463 230.969 362.521 228.073L378.612 243.558C374.414 247.73 370.587 252.451 367.389 256.82Z" fill="#F68845"/>
<path d="M386.575 271.813L367.389 256.82C370.587 252.451 374.414 247.73 378.612 243.558L396.311 260.59C393.153 263.687 389.873 267.39 386.575 271.813Z" fill="white"/>
<path d="M434.002 339.402C434.002 339.402 424.66 336.745 411.458 332.989C412.569 329.496 413.967 325.786 415.716 321.872C428.506 326.789 438.14 330.504 438.14 330.504L437.872 332.63L434.002 339.402ZM388.133 326.349C380.531 324.184 372.704 321.953 365.266 319.833C365.978 315.188 367.223 309.918 369.266 304.086C376.164 306.708 384.57 309.921 393.11 313.194C391.357 317.187 389.584 321.691 388.133 326.349Z" fill="#E7601D"/>
<path d="M411.458 332.989C404.489 331.006 396.449 328.717 388.133 326.349C389.584 321.691 391.357 317.187 393.11 313.194C400.882 316.172 408.766 319.2 415.716 321.872C413.967 325.786 412.569 329.496 411.458 332.989Z" fill="#F2EBE5"/>
<path d="M345.042 300.145V294.502C345.581 294.787 346.126 295.062 346.669 295.326C346.098 296.903 345.55 298.516 345.042 300.145Z" fill="#E7601D"/>
<path d="M365.266 319.833C357.954 317.746 351.019 315.767 345.042 314.057V300.145C345.55 298.516 346.098 296.903 346.669 295.326C349.316 296.61 351.982 297.636 354.378 298.498C356.829 299.379 362.271 301.428 369.266 304.086C367.223 309.918 365.978 315.188 365.266 319.833Z" fill="#F2EBE5"/>
<path d="M434.139 339.396C432.752 338.554 435.631 330.867 440.568 322.232C445.506 313.595 450.631 307.278 452.02 308.122C453.405 308.966 450.526 316.65 445.589 325.287C440.652 333.924 435.525 340.24 434.139 339.396Z" fill="#F89D18"/>
<path d="M441.171 322.597C446.151 313.885 450.434 308.998 451.662 308.748C452.043 309.978 449.968 316.207 444.986 324.92C440.005 333.635 435.724 338.521 434.495 338.772C434.115 337.541 436.189 331.313 441.171 322.597Z" fill="#8B3E1C"/>
<path d="M444.986 324.92C449.968 316.207 452.043 309.978 451.662 308.748C450.818 308.92 448.535 311.277 445.576 315.559C446.704 317.233 447.233 320.495 443.932 326.724C444.28 326.141 444.63 325.543 444.986 324.92Z" fill="#723318"/>
<path d="M382.066 365.045H379.704C371.499 357.341 337.668 328.451 337.668 328.451H231.824H125.978C125.978 328.451 92.1484 357.341 83.9433 365.045H81.5809V369.159H81.6616C82.1244 371.187 84.8742 372.935 88.4057 372.935C93.3176 372.935 231.824 372.935 231.824 372.935C231.824 372.935 370.328 372.935 375.24 372.935C378.772 372.935 381.522 371.187 381.984 369.159H382.066V365.045Z" fill="#CCCCC9"/>
<path d="M335.365 187.878C330.527 187.878 231.824 187.878 231.824 187.878C231.824 187.878 133.121 187.878 128.281 187.878C123.442 187.878 118.606 192.273 118.606 198.316V316.84C118.606 321.168 121.906 324.675 125.978 324.675H231.824H337.668C341.74 324.675 345.042 321.168 345.042 316.84V198.316C345.042 192.273 340.202 187.878 335.365 187.878Z" fill="#E9E8E7"/>
<path d="M123.095 318.482H340.552V195.166H123.095V318.482Z" fill="#F9A911"/>
<path d="M381.395 362.965C379.21 360.15 337.668 324.675 337.668 324.675H231.824H125.978C125.978 324.675 84.4357 360.15 82.2522 362.965C80.0687 365.781 83.4939 369.159 88.4057 369.159C93.3189 369.159 231.824 369.159 231.824 369.159C231.824 369.159 370.328 369.159 375.24 369.159C380.153 369.159 383.577 365.781 381.395 362.965Z" fill="#F5F6F5"/>
<path d="M333.769 328.451H129.876L93.2826 361.55H370.363L333.769 328.451Z" fill="#F5F6F5"/>
<path d="M99.2653 356.138L93.2826 361.55H120.648L124.813 356.138H99.2653Z" fill="white"/>
<path d="M135.535 346.259L129.866 353.622H155.646L159.055 346.259H135.535Z" fill="white"/>
<path d="M163.63 336.38H143.141L137.473 343.742H160.22L163.63 336.38Z" fill="white"/>
<path d="M158.35 353.622H181.717L183.815 346.259H161.759L158.35 353.622Z" fill="white"/>
<path d="M184.259 353.622H204.878L206.067 346.259H186.359L184.259 353.622Z" fill="white"/>
<path d="M183.541 356.138L181.999 361.55H281.189L279.646 356.138H183.541Z" fill="white"/>
<path d="M127.929 356.138L123.764 361.55H151.973L154.48 356.138H127.929Z" fill="white"/>
<path d="M157.183 356.138L154.677 361.55H179.455L180.998 356.138H157.183Z" fill="white"/>
<path d="M308.708 356.138L311.215 361.55H339.424L335.26 356.138H308.708Z" fill="white"/>
<path d="M282.189 356.138L283.732 361.55H308.51L306.004 356.138H282.189Z" fill="white"/>
<path d="M189.177 336.38L187.076 343.742H206.475L207.664 336.38H189.177Z" fill="white"/>
<path d="M184.534 343.742L186.634 336.38H166.334L162.924 343.742H184.534Z" fill="white"/>
<path d="M207.352 353.622H230.603V346.259H208.541L207.352 353.622Z" fill="white"/>
<path d="M279.372 346.259L281.472 353.622H304.839L301.429 346.259H279.372Z" fill="white"/>
<path d="M338.374 356.138L342.541 361.55H370.363L364.382 356.138H338.374Z" fill="white"/>
<path d="M304.133 346.259L307.543 353.622H333.321L327.652 346.259H304.133Z" fill="white"/>
<path d="M274.011 336.38H255.523L256.714 343.742H276.111L274.011 336.38Z" fill="white"/>
<path d="M257.12 346.259L258.308 353.622H278.928L276.828 346.259H257.12Z" fill="white"/>
<path d="M325.715 343.742L320.047 336.38H299.557L302.968 343.742H325.715Z" fill="white"/>
<path d="M208.948 343.742H230.603V336.38H210.138L208.948 343.742Z" fill="white"/>
<path d="M233.043 346.259V353.622H255.835L254.647 346.259H233.043Z" fill="white"/>
<path d="M253.05 336.38H233.043V343.742H254.24L253.05 336.38Z" fill="white"/>
<path d="M300.263 343.742L296.854 336.38H276.555L278.653 343.742H300.263Z" fill="white"/>
<path d="M132.418 346.259H110.188L102.047 353.622H126.75L132.418 346.259Z" fill="white"/>
<path d="M328.83 343.742H350.676L342.536 336.38H323.162L328.83 343.742Z" fill="white"/>
<path d="M339.752 333.864L333.769 328.451H317.059L321.225 333.864H339.752Z" fill="white"/>
<path d="M208.072 333.864L208.945 328.451H191.437L189.895 333.864H208.072Z" fill="white"/>
<path d="M187.351 333.864L188.895 328.451H170.006L167.499 333.864H187.351Z" fill="white"/>
<path d="M336.437 353.622H361.599L353.459 346.259H330.769L336.437 353.622Z" fill="white"/>
<path d="M273.294 333.864L271.75 328.451H254.244L255.117 333.864H273.294Z" fill="white"/>
<path d="M318.109 333.864L313.943 328.451H295.886L298.392 333.864H318.109Z" fill="white"/>
<path d="M295.688 333.864L293.182 328.451H274.293L275.836 333.864H295.688Z" fill="white"/>
<path d="M230.603 333.864V328.452H233.043V333.864H252.643L251.77 328.451H231.824H211.419L210.543 333.864H230.603Z" fill="white"/>
<path d="M146.13 328.451H129.876L123.893 333.864H141.963L146.13 328.451Z" fill="white"/>
<path d="M140.025 336.38H121.111L112.97 343.742H134.357L140.025 336.38Z" fill="white"/>
<path d="M164.796 333.864L167.301 328.451H149.244L145.078 333.864H164.796Z" fill="white"/>
<path d="M123.095 224.374H340.552V195.167H123.095V224.374Z" fill="#FAB811"/>
<path d="M123.095 318.482H340.552V289.275H123.095V318.482Z" fill="#FAB811"/>
<path d="M161.787 224.374L145.444 195.167H123.094V202.734L135.203 224.374H161.787Z" fill="#2E2D2D"/>
<path d="M206.428 224.374L190.083 195.167H163.501L179.844 224.374H206.428Z" fill="#2E2D2D"/>
<path d="M251.067 224.374L234.724 195.167H208.14L224.485 224.374H251.067Z" fill="#2E2D2D"/>
<path d="M295.708 224.374L279.365 195.167H252.781L269.124 224.374H295.708Z" fill="#2E2D2D"/>
<path d="M340.35 224.374L324.004 195.167H297.422L313.767 224.374H340.35Z" fill="#2E2D2D"/>
<path d="M165.226 318.483L148.881 289.276H123.094V290.697L138.642 318.483H165.226Z" fill="#2E2D2D"/>
<path d="M209.866 318.483L193.522 289.276H166.938L183.284 318.483H209.866Z" fill="#2E2D2D"/>
<path d="M254.507 318.482L238.163 289.276H211.579L227.924 318.482H254.507Z" fill="#2E2D2D"/>
<path d="M299.147 318.482L282.802 289.276H256.22L272.564 318.482H299.147Z" fill="#2E2D2D"/>
<path d="M340.552 318.482V312.701L327.443 289.276H300.859L317.205 318.482H340.552Z" fill="#2E2D2D"/>
<path d="M337.668 324.675H210.543L213.351 318.482H340.552V312.701V289.276V224.374V195.167H269.26L272.564 187.878C300.368 187.878 332.648 187.878 335.365 187.878C340.202 187.878 345.042 192.273 345.042 198.316V198.874V200.924V204.504V300.145V314.057V314.089V316.84C345.042 321.168 341.74 324.675 337.668 324.675Z" fill="#D3D2D0"/>
<path d="M340.552 289.276H226.593L233.123 274.872H306.441V260.494H239.641L243.976 250.934H265.053V236.694H250.432L256.018 224.374H269.124H295.708H313.767H340.35H340.552V289.276Z" fill="#E29B14"/>
<mask id="mask2_264_6" style="mask-type:luminance" maskUnits="userSpaceOnUse" x="243" y="236" width="23" height="15">
<path d="M265.053 250.934H243.976L250.432 236.694H265.053V250.934Z" fill="white"/>
</mask>
<g mask="url(#mask2_264_6)">
<path d="M243.976 250.934H265.053V236.694H243.976V250.934Z" fill="#E29B14"/>
</g>
<mask id="mask3_264_6" style="mask-type:luminance" maskUnits="userSpaceOnUse" x="233" y="260" width="74" height="15">
<path d="M306.441 274.872H233.123L239.641 260.494H306.441V274.872Z" fill="white"/>
</mask>
<g mask="url(#mask3_264_6)">
<path d="M233.123 274.872H306.441V260.494H233.123V274.872Z" fill="#E29B14"/>
</g>
<path d="M340.552 224.374H340.35L324.005 195.167H297.422L313.767 224.374H295.708L279.365 195.167H269.26H340.552V224.374ZM269.124 224.374H256.018L261.884 211.434L269.124 224.374Z" fill="#E2A812"/>
<path d="M317.205 318.482H299.147L282.802 289.276H256.22L272.564 318.482H254.507L238.163 289.276H226.593H340.552V312.701L327.443 289.276H300.86L317.205 318.482ZM227.924 318.482H213.351L219.873 304.097L227.924 318.482Z" fill="#E2A812"/>
<path d="M295.708 224.374H269.124L261.884 211.434L269.26 195.167H279.365L295.708 224.374Z" fill="#2A2928"/>
<path d="M340.35 224.374H313.767L297.422 195.167H324.004L340.35 224.374Z" fill="#2A2928"/>
<path d="M254.507 318.482H227.924L219.873 304.097L226.593 289.276H238.163L254.507 318.482Z" fill="#2A2928"/>
<path d="M299.147 318.482H272.564L256.22 289.276H282.802L299.147 318.482Z" fill="#2A2928"/>
<path d="M340.552 318.482H317.205L300.859 289.276H327.443L340.552 312.701V318.482Z" fill="#2A2928"/>
<path d="M124.397 339.538C122.514 325.897 113.643 288.493 73.0474 290.12C33.9305 291.685 23.227 316.893 20.8148 337.238C9.9674 342.581 -0.481797 350.803 4.40445 361.548C13.5877 381.74 88.0398 362.014 101.769 356.549L101.768 356.548C111.315 353.811 117.386 350.383 120.897 347.869C123.5 346.006 124.844 342.775 124.397 339.538Z" fill="#D3781A"/>
<path d="M101.673 354.009C87.9456 359.474 13.4922 379.2 4.30897 359.007C-4.87428 338.815 40.1056 327.532 40.1056 327.532L101.673 354.009Z" fill="#F68B1E"/>
<path d="M25.0661 352.387C22.0203 350.988 20.0736 347.84 20.1113 344.4C20.3373 323.484 27.2671 289.408 72.9519 287.58C113.547 285.954 122.419 323.357 124.302 336.998C124.749 340.235 123.405 343.467 120.801 345.329C114.504 349.836 99.9837 357.293 71.912 358.418C45.5165 359.475 31.5883 355.385 25.0661 352.387Z" fill="#F8A919"/>
<path d="M30.7152 356.466L34.0503 355.467C34.0503 355.467 34.6059 314.2 56.8967 298.753C79.1902 283.305 99.3998 293.577 99.3998 293.577C99.3998 293.577 80.5826 280.282 55.5756 292.729C30.5685 305.177 30.7152 356.466 30.7152 356.466Z" fill="#F0851A"/>
<path d="M23.0629 353.739C23.0629 353.739 21.3153 297.704 57.938 288.181C57.938 288.181 81.2297 281.224 99.3998 293.577C99.3998 293.577 84.6993 284.144 65.8539 291.045C47.0058 297.948 35.4951 308.795 30.7151 356.466L23.0629 353.739Z" fill="#FCD43A"/>
<path d="M49.2862 360.186L52.3078 358.215C52.3078 358.215 53.828 322.757 69.3317 308.854C84.8326 294.949 107.493 299.813 107.493 299.813C107.493 299.813 90.7117 291.044 73.104 299.943C55.4963 308.841 47.5171 340.673 47.5171 340.673L49.2862 360.186Z" fill="#F0851A"/>
<path d="M38.389 358.733C38.389 358.733 38.7562 326.871 51.0634 311.14C63.5615 295.161 83.798 288.768 101.622 294.98L107.493 299.813C107.493 299.813 92.3073 293.379 75.3614 301.687C58.4156 309.996 50.9961 331.209 49.2862 360.186C49.2862 360.186 42.0604 359.504 38.389 358.733Z" fill="#FCD43A"/>
<path d="M19.6565 348.289C19.6565 348.289 19.2408 346.327 19.078 344.743C18.9166 343.161 17.5376 307.6 44.4039 294.869C44.4039 294.869 31.1537 298.278 22.401 328.241L19.6565 348.289Z" fill="#FCD43A"/>
<path d="M21.0799 348.525C21.0799 348.525 23.519 304.605 44.404 294.869C44.404 294.869 22.5584 300.728 19.6566 348.289L21.0799 348.525Z" fill="#F0851A"/>
<path d="M30.6802 365.557C20.0359 365.557 8.58847 364.185 6.27853 358.574C1.75686 347.593 15.4133 339.273 15.4133 339.273C15.4133 339.273 4.43004 348.142 10.8863 357.26C15.3205 363.524 32.2717 364.504 42.4518 364.504C47.0905 364.504 50.3234 364.3 50.3234 364.3C50.3234 364.3 40.8697 365.557 30.6802 365.557Z" fill="#F8AF57"/>
<path d="M90.0699 354.09C90.0699 354.09 108.274 350.099 112.588 333.688C116.901 317.276 109.127 303.586 109.127 303.586C109.127 303.586 122.3 322.418 122.004 336.419C121.708 350.42 90.0699 354.09 90.0699 354.09Z" fill="#FAC555"/>
<path d="M197.166 243.619C200.26 243.619 202.938 244.797 205.199 247.152C207.473 249.496 208.609 252.426 208.609 255.941C208.609 259.562 207.467 262.568 205.182 264.959C202.896 267.35 200.131 268.545 196.885 268.545C193.604 268.545 190.844 267.379 188.605 265.047C186.379 262.715 185.266 259.697 185.266 255.994C185.266 252.209 186.555 249.121 189.133 246.73C191.371 244.656 194.049 243.619 197.166 243.619ZM196.832 244.902C194.699 244.902 192.988 245.693 191.699 247.275C190.094 249.244 189.291 252.127 189.291 255.924C189.291 259.814 190.123 262.809 191.787 264.906C193.064 266.5 194.752 267.297 196.85 267.297C199.088 267.297 200.934 266.424 202.387 264.678C203.852 262.932 204.584 260.178 204.584 256.416C204.584 252.338 203.781 249.297 202.176 247.293C200.887 245.699 199.105 244.902 196.832 244.902ZM222.256 251.424C224.693 251.424 226.65 252.35 228.127 254.201C229.381 255.783 230.008 257.6 230.008 259.65C230.008 261.092 229.662 262.551 228.97 264.027C228.279 265.504 227.324 266.617 226.105 267.367C224.898 268.117 223.551 268.492 222.062 268.492C219.636 268.492 217.709 267.525 216.279 265.592C215.072 263.963 214.469 262.135 214.469 260.107C214.469 258.631 214.832 257.166 215.558 255.713C216.297 254.248 217.263 253.17 218.459 252.479C219.654 251.775 220.92 251.424 222.256 251.424ZM221.711 252.566C221.09 252.566 220.463 252.754 219.83 253.129C219.209 253.492 218.705 254.137 218.318 255.062C217.931 255.988 217.738 257.178 217.738 258.631C217.738 260.975 218.201 262.996 219.127 264.695C220.064 266.395 221.295 267.244 222.818 267.244C223.955 267.244 224.892 266.775 225.631 265.838C226.369 264.9 226.738 263.289 226.738 261.004C226.738 258.145 226.123 255.895 224.892 254.254C224.06 253.129 223 252.566 221.711 252.566ZM234.46 253.498L239.417 251.494H240.085V255.256C240.917 253.838 241.75 252.848 242.582 252.285C243.425 251.711 244.31 251.424 245.236 251.424C246.853 251.424 248.201 252.057 249.279 253.322C250.603 254.869 251.265 256.885 251.265 259.369C251.265 262.146 250.468 264.443 248.875 266.26C247.562 267.748 245.91 268.492 243.917 268.492C243.05 268.492 242.3 268.369 241.667 268.123C241.199 267.947 240.671 267.596 240.085 267.068V271.973C240.085 273.074 240.15 273.771 240.279 274.064C240.419 274.369 240.654 274.609 240.982 274.785C241.322 274.961 241.931 275.049 242.81 275.049V275.699H234.373V275.049H234.812C235.457 275.061 236.007 274.938 236.464 274.68C236.687 274.551 236.857 274.34 236.974 274.047C237.103 273.766 237.167 273.039 237.167 271.867V256.645C237.167 255.602 237.121 254.939 237.027 254.658C236.933 254.377 236.781 254.166 236.57 254.025C236.371 253.885 236.095 253.814 235.744 253.814C235.462 253.814 235.105 253.896 234.671 254.061L234.46 253.498ZM240.085 256.293V262.305C240.085 263.605 240.138 264.461 240.244 264.871C240.408 265.551 240.806 266.148 241.439 266.664C242.084 267.18 242.892 267.438 243.865 267.438C245.037 267.438 245.986 266.98 246.712 266.066C247.662 264.871 248.136 263.189 248.136 261.021C248.136 258.561 247.597 256.668 246.519 255.344C245.769 254.43 244.878 253.973 243.847 253.973C243.285 253.973 242.728 254.113 242.177 254.395C241.755 254.605 241.058 255.238 240.085 256.293ZM267.267 251.424V256.908H266.687C266.241 255.186 265.667 254.014 264.964 253.393C264.273 252.771 263.388 252.461 262.31 252.461C261.49 252.461 260.827 252.678 260.324 253.111C259.82 253.545 259.568 254.025 259.568 254.553C259.568 255.209 259.755 255.771 260.13 256.24C260.493 256.721 261.232 257.23 262.345 257.77L264.911 259.018C267.29 260.178 268.48 261.707 268.48 263.605C268.48 265.07 267.923 266.254 266.81 267.156C265.708 268.047 264.472 268.492 263.101 268.492C262.116 268.492 260.991 268.316 259.726 267.965C259.339 267.848 259.023 267.789 258.777 267.789C258.507 267.789 258.296 267.941 258.144 268.246H257.564V262.498H258.144C258.472 264.139 259.099 265.375 260.025 266.207C260.95 267.039 261.988 267.455 263.136 267.455C263.945 267.455 264.601 267.221 265.105 266.752C265.62 266.271 265.878 265.697 265.878 265.029C265.878 264.221 265.591 263.541 265.017 262.99C264.454 262.439 263.324 261.742 261.624 260.898C259.925 260.055 258.812 259.293 258.284 258.613C257.757 257.945 257.493 257.102 257.493 256.082C257.493 254.758 257.945 253.65 258.847 252.76C259.761 251.869 260.939 251.424 262.38 251.424C263.013 251.424 263.781 251.559 264.683 251.828C265.281 252.004 265.679 252.092 265.878 252.092C266.066 252.092 266.212 252.051 266.318 251.969C266.423 251.887 266.546 251.705 266.687 251.424H267.267ZM279.331 261.689H278.663L277.116 247.451C277.046 246.83 277.011 246.367 277.011 246.062C277.011 245.324 277.204 244.732 277.591 244.287C277.989 243.842 278.464 243.619 279.015 243.619C279.565 243.619 280.028 243.842 280.403 244.287C280.79 244.732 280.983 245.395 280.983 246.273C280.983 246.555 280.96 246.947 280.913 247.451L279.331 261.689ZM278.98 264.607C279.519 264.607 279.976 264.801 280.351 265.188C280.737 265.562 280.931 266.014 280.931 266.541C280.931 267.08 280.737 267.543 280.351 267.93C279.976 268.305 279.519 268.492 278.98 268.492C278.44 268.492 277.978 268.305 277.591 267.93C277.216 267.543 277.028 267.08 277.028 266.541C277.028 266.014 277.216 265.562 277.591 265.188C277.978 264.801 278.44 264.607 278.98 264.607Z" fill="black"/>
<path d="M205.199 247.152L204.478 247.845L204.481 247.849L205.199 247.152ZM188.605 265.047L187.882 265.737L187.884 265.739L188.605 265.047ZM189.133 246.73L188.453 245.997L188.453 245.997L189.133 246.73ZM191.699 247.275L192.474 247.907L192.474 247.907L191.699 247.275ZM191.787 264.906L191.004 265.528L191.007 265.532L191.787 264.906ZM202.387 264.678L201.621 264.035L201.618 264.038L202.387 264.678ZM202.176 247.293L202.956 246.668L202.953 246.664L202.176 247.293ZM197.166 244.619C199.971 244.619 202.393 245.674 204.478 247.845L205.921 246.46C203.482 243.92 200.548 242.619 197.166 242.619V244.619ZM204.481 247.849C206.559 249.991 207.609 252.664 207.609 255.941H209.609C209.609 252.188 208.386 249.002 205.917 246.456L204.481 247.849ZM207.609 255.941C207.609 259.332 206.548 262.082 204.459 264.268L205.905 265.65C208.385 263.055 209.609 259.793 209.609 255.941H207.609ZM204.459 264.268C202.358 266.465 199.852 267.545 196.885 267.545V269.545C200.41 269.545 203.435 268.234 205.905 265.65L204.459 264.268ZM196.885 267.545C193.871 267.545 191.373 266.487 189.327 264.354L187.884 265.739C190.314 268.271 193.336 269.545 196.885 269.545V267.545ZM189.329 264.356C187.306 262.238 186.266 259.481 186.266 255.994H184.266C184.266 259.913 185.451 263.192 187.882 265.737L189.329 264.356ZM186.266 255.994C186.266 252.463 187.456 249.65 189.813 247.464L188.453 245.997C185.654 248.593 184.266 251.955 184.266 255.994H186.266ZM189.813 247.464C191.862 245.565 194.295 244.619 197.166 244.619V242.619C193.803 242.619 190.881 243.747 188.453 245.997L189.813 247.464ZM196.832 243.902C194.414 243.902 192.413 244.817 190.924 246.644L192.474 247.907C193.564 246.57 194.984 245.902 196.832 245.902V243.902ZM190.924 246.643C189.116 248.86 188.291 252.006 188.291 255.924H190.291C190.291 252.248 191.071 249.628 192.474 247.907L190.924 246.643ZM188.291 255.924C188.291 259.941 189.148 263.189 191.004 265.528L192.571 264.285C191.098 262.428 190.291 259.688 190.291 255.924H188.291ZM191.007 265.532C192.48 267.37 194.458 268.297 196.85 268.297V266.297C195.046 266.297 193.649 265.63 192.567 264.281L191.007 265.532ZM196.85 268.297C199.39 268.297 201.516 267.288 203.155 265.317L201.618 264.038C200.352 265.56 198.786 266.297 196.85 266.297V268.297ZM203.153 265.32C204.84 263.309 205.584 260.271 205.584 256.416H203.584C203.584 260.084 202.863 262.554 201.621 264.035L203.153 265.32ZM205.584 256.416C205.584 252.236 204.766 248.927 202.956 246.668L201.395 247.918C202.796 249.667 203.584 252.44 203.584 256.416H205.584ZM202.953 246.664C201.452 244.808 199.37 243.902 196.832 243.902V245.902C198.841 245.902 200.321 246.59 201.398 247.922L202.953 246.664ZM228.127 254.201L228.91 253.58L228.909 253.578L228.127 254.201ZM226.105 267.367L225.581 266.516L225.577 266.518L226.105 267.367ZM216.279 265.592L217.083 264.997L217.083 264.996L216.279 265.592ZM215.558 255.713L214.665 255.263L214.664 255.266L215.558 255.713ZM218.459 252.479L218.959 253.344L218.966 253.34L218.459 252.479ZM219.83 253.129L220.335 253.992L220.34 253.989L219.83 253.129ZM219.127 264.695L218.249 265.174L218.251 265.178L219.127 264.695ZM224.892 254.254L224.088 254.849L224.092 254.854L224.892 254.254ZM222.256 252.424C224.399 252.424 226.064 253.219 227.345 254.825L228.909 253.578C227.236 251.48 224.987 250.424 222.256 250.424V252.424ZM227.343 254.822C228.454 256.225 229.008 257.821 229.008 259.65H231.008C231.008 257.378 230.307 255.342 228.91 253.58L227.343 254.822ZM229.008 259.65C229.008 260.927 228.702 262.242 228.065 263.603L229.876 264.451C230.621 262.86 231.008 261.256 231.008 259.65H229.008ZM228.065 263.603C227.444 264.928 226.611 265.882 225.581 266.516L226.629 268.219C228.037 267.353 229.114 266.079 229.876 264.451L228.065 263.603ZM225.577 266.518C224.537 267.165 223.373 267.492 222.062 267.492V269.492C223.728 269.492 225.26 269.07 226.633 268.217L225.577 266.518ZM222.062 267.492C219.95 267.492 218.322 266.673 217.083 264.997L215.475 266.186C217.095 268.378 219.323 269.492 222.062 269.492V267.492ZM217.083 264.996C216.003 263.54 215.469 261.92 215.469 260.107H213.469C213.469 262.349 214.141 264.386 215.476 266.187L217.083 264.996ZM215.469 260.107C215.469 258.801 215.789 257.489 216.453 256.16L214.664 255.266C213.875 256.844 213.469 258.461 213.469 260.107H215.469ZM216.451 256.163C217.119 254.839 217.962 253.921 218.959 253.344L217.958 251.613C216.565 252.419 215.474 253.657 214.665 255.263L216.451 256.163ZM218.966 253.34C220.014 252.724 221.105 252.424 222.256 252.424V250.424C220.734 250.424 219.295 250.827 217.952 251.617L218.966 253.34ZM221.711 251.566C220.88 251.566 220.079 251.819 219.32 252.269L220.34 253.989C220.847 253.689 221.3 253.566 221.711 253.566V251.566ZM219.325 252.266C218.455 252.775 217.834 253.628 217.395 254.677L219.241 255.448C219.576 254.645 219.962 254.21 220.335 253.992L219.325 252.266ZM217.395 254.677C216.94 255.767 216.738 257.1 216.738 258.631H218.738C218.738 257.256 218.923 256.21 219.241 255.448L217.395 254.677ZM216.738 258.631C216.738 261.107 217.228 263.3 218.249 265.174L220.005 264.217C219.174 262.692 218.738 260.843 218.738 258.631H216.738ZM218.251 265.178C219.308 267.095 220.827 268.244 222.818 268.244V266.244C221.762 266.244 220.82 265.694 220.002 264.212L218.251 265.178ZM222.818 268.244C224.279 268.244 225.499 267.621 226.416 266.457L224.845 265.219C224.285 265.93 223.631 266.244 222.818 266.244V268.244ZM226.416 266.457C227.373 265.242 227.738 263.337 227.738 261.004H225.738C225.738 263.241 225.365 264.559 224.845 265.219L226.416 266.457ZM227.738 261.004C227.738 258.012 227.095 255.524 225.692 253.654L224.092 254.854C225.151 256.265 225.738 258.278 225.738 261.004H227.738ZM225.696 253.659C224.694 252.305 223.347 251.566 221.711 251.566V253.566C222.652 253.566 223.426 253.953 224.088 254.849L225.696 253.659ZM234.46 253.498L234.086 252.571L233.182 252.936L233.524 253.849L234.46 253.498ZM239.417 251.494V250.494H239.223L239.043 250.567L239.417 251.494ZM240.085 251.494H241.085V250.494H240.085V251.494ZM240.085 255.256H239.085V258.936L240.948 255.762L240.085 255.256ZM242.582 252.285L243.142 253.114L243.144 253.112L242.582 252.285ZM249.279 253.322L248.518 253.971L248.519 253.973L249.279 253.322ZM248.875 266.26L249.625 266.921L249.626 266.919L248.875 266.26ZM241.667 268.123L242.03 267.191L242.019 267.187L241.667 268.123ZM240.085 267.068L240.754 266.325L239.085 264.823V267.068H240.085ZM240.279 274.064L239.364 274.467L239.367 274.475L239.371 274.484L240.279 274.064ZM240.982 274.785L240.51 275.667L240.516 275.67L240.523 275.673L240.982 274.785ZM242.81 275.049H243.81V274.049H242.81V275.049ZM242.81 275.699V276.699H243.81V275.699H242.81ZM234.373 275.699H233.373V276.699H234.373V275.699ZM234.373 275.049V274.049H233.373V275.049H234.373ZM234.812 275.049L234.83 274.049L234.821 274.049H234.812V275.049ZM236.464 274.68L236.956 275.551L236.965 275.545L236.464 274.68ZM236.974 274.047L236.065 273.63L236.055 273.653L236.046 273.675L236.974 274.047ZM236.57 254.025L235.993 254.842L236.004 254.85L236.015 254.857L236.57 254.025ZM234.671 254.061L233.735 254.412L234.087 255.351L235.025 254.996L234.671 254.061ZM240.085 256.293L239.35 255.615L239.085 255.902V256.293H240.085ZM240.244 264.871L241.216 264.636L241.214 264.629L241.212 264.622L240.244 264.871ZM241.439 266.664L240.807 267.439L240.814 267.445L241.439 266.664ZM246.712 266.066L247.495 266.689L247.496 266.688L246.712 266.066ZM246.519 255.344L247.295 254.712L247.292 254.709L246.519 255.344ZM242.177 254.395L242.624 255.289L242.632 255.285L242.177 254.395ZM234.835 254.425L239.792 252.421L239.043 250.567L234.086 252.571L234.835 254.425ZM239.417 252.494H240.085V250.494H239.417V252.494ZM239.085 251.494V255.256H241.085V251.494H239.085ZM240.948 255.762C241.747 254.4 242.488 253.556 243.142 253.114L242.021 251.457C241.011 252.14 240.088 253.275 239.223 254.75L240.948 255.762ZM243.144 253.112C243.84 252.638 244.531 252.424 245.236 252.424V250.424C244.089 250.424 243.011 250.783 242.019 251.458L243.144 253.112ZM245.236 252.424C246.551 252.424 247.623 252.921 248.518 253.971L250.04 252.674C248.778 251.192 247.155 250.424 245.236 250.424V252.424ZM248.519 253.973C249.656 255.301 250.265 257.069 250.265 259.369H252.265C252.265 256.701 251.55 254.438 250.038 252.672L248.519 253.973ZM250.265 259.369C250.265 261.942 249.533 263.993 248.123 265.6L249.626 266.919C251.404 264.893 252.265 262.351 252.265 259.369H250.265ZM248.125 265.598C247.003 266.87 245.624 267.492 243.917 267.492V269.492C246.195 269.492 248.121 268.626 249.625 266.921L248.125 265.598ZM243.917 267.492C243.141 267.492 242.52 267.382 242.03 267.191L241.305 269.055C242.081 269.357 242.959 269.492 243.917 269.492V267.492ZM242.019 267.187C241.715 267.073 241.295 266.811 240.754 266.325L239.417 267.812C240.048 268.38 240.683 268.822 241.316 269.059L242.019 267.187ZM239.085 267.068V271.973H241.085V267.068H239.085ZM239.085 271.973C239.085 272.539 239.102 273.022 239.138 273.414C239.171 273.773 239.229 274.161 239.364 274.467L241.194 273.662C241.2 273.675 241.161 273.568 241.13 273.23C241.101 272.924 241.085 272.508 241.085 271.973H239.085ZM239.371 274.484C239.613 275.007 240.012 275.4 240.51 275.667L241.454 273.904C241.296 273.819 241.226 273.731 241.187 273.645L239.371 274.484ZM240.523 275.673C241.098 275.971 241.928 276.049 242.81 276.049V274.049C241.935 274.049 241.546 273.951 241.441 273.897L240.523 275.673ZM241.81 275.049V275.699H243.81V275.049H241.81ZM242.81 274.699H234.373V276.699H242.81V274.699ZM235.373 275.699V275.049H233.373V275.699H235.373ZM234.373 276.049H234.812V274.049H234.373V276.049ZM234.794 276.049C235.576 276.063 236.311 275.914 236.956 275.551L235.973 273.809C235.703 273.961 235.337 274.058 234.83 274.049L234.794 276.049ZM236.965 275.545C237.423 275.28 237.722 274.871 237.903 274.418L236.046 273.675C236.018 273.745 235.993 273.781 235.98 273.797C235.973 273.806 235.969 273.81 235.967 273.812C235.965 273.813 235.964 273.814 235.963 273.814L236.965 275.545ZM237.883 274.464C238.026 274.151 238.083 273.744 238.115 273.379C238.151 272.975 238.167 272.467 238.167 271.867H236.167C236.167 272.439 236.152 272.881 236.123 273.203C236.091 273.565 236.051 273.661 236.065 273.63L237.883 274.464ZM238.167 271.867V256.645H236.167V271.867H238.167ZM238.167 256.645C238.167 256.111 238.156 255.659 238.13 255.295C238.106 254.957 238.066 254.612 237.976 254.342L236.078 254.974C236.076 254.967 236.086 254.997 236.099 255.088C236.112 255.173 236.124 255.287 236.135 255.436C236.156 255.735 236.167 256.135 236.167 256.645H238.167ZM237.976 254.342C237.824 253.887 237.551 253.477 237.125 253.193L236.015 254.857C236.019 254.86 236.023 254.863 236.032 254.875C236.041 254.887 236.059 254.917 236.078 254.974L237.976 254.342ZM237.147 253.208C236.719 252.907 236.214 252.814 235.744 252.814V254.814C235.976 254.814 236.022 254.863 235.993 254.842L237.147 253.208ZM235.744 252.814C235.288 252.814 234.801 252.942 234.318 253.125L235.025 254.996C235.409 254.85 235.637 254.814 235.744 254.814V252.814ZM235.608 253.709L235.397 253.147L233.524 253.849L233.735 254.412L235.608 253.709ZM239.085 256.293V262.305H241.085V256.293H239.085ZM239.085 262.305C239.085 263.581 239.133 264.566 239.275 265.12L241.212 264.622C241.144 264.356 241.085 263.63 241.085 262.305H239.085ZM239.272 265.106C239.495 266.032 240.034 266.81 240.807 267.439L242.071 265.889C241.578 265.487 241.32 265.069 241.216 264.636L239.272 265.106ZM240.814 267.445C241.667 268.127 242.707 268.438 243.865 268.438V266.438C243.077 266.438 242.501 266.233 242.064 265.883L240.814 267.445ZM243.865 268.438C245.34 268.438 246.578 267.842 247.495 266.689L245.93 265.444C245.394 266.119 244.733 266.438 243.865 266.438V268.438ZM247.496 266.688C248.634 265.255 249.136 263.323 249.136 261.021H247.136C247.136 263.056 246.69 264.487 245.929 265.445L247.496 266.688ZM249.136 261.021C249.136 258.429 248.57 256.279 247.295 254.712L245.744 255.975C246.624 257.057 247.136 258.692 247.136 261.021H249.136ZM247.292 254.709C246.383 253.602 245.224 252.973 243.847 252.973V254.973C244.533 254.973 245.155 255.257 245.746 255.978L247.292 254.709ZM243.847 252.973C243.111 252.973 242.4 253.158 241.722 253.504L242.632 255.285C243.056 255.069 243.458 254.973 243.847 254.973V252.973ZM241.73 253.5C241.392 253.669 241.029 253.957 240.666 254.287C240.287 254.631 239.848 255.076 239.35 255.615L240.821 256.971C241.296 256.455 241.691 256.057 242.01 255.768C242.344 255.465 242.541 255.331 242.624 255.289L241.73 253.5ZM267.267 251.424H268.267V250.424H267.267V251.424ZM267.267 256.908V257.908H268.267V256.908H267.267ZM266.687 256.908L265.719 257.158L265.912 257.908H266.687V256.908ZM264.964 253.393L264.296 254.137L264.302 254.142L264.964 253.393ZM260.13 256.24L260.928 255.637L260.92 255.626L260.911 255.616L260.13 256.24ZM262.345 257.77L262.782 256.87L262.781 256.869L262.345 257.77ZM264.911 259.018L265.35 258.119L265.349 258.118L264.911 259.018ZM266.81 267.156L267.439 267.934L267.44 267.933L266.81 267.156ZM259.726 267.965L259.436 268.922L259.447 268.925L259.458 268.928L259.726 267.965ZM258.144 268.246V269.246H258.762L259.038 268.693L258.144 268.246ZM257.564 268.246H256.564V269.246H257.564V268.246ZM257.564 262.498V261.498H256.564V262.498H257.564ZM258.144 262.498L259.124 262.302L258.964 261.498H258.144V262.498ZM265.105 266.752L265.786 267.484L265.786 267.484L265.105 266.752ZM265.017 262.99L264.317 263.705L264.325 263.712L265.017 262.99ZM258.284 258.613L259.075 258L259.069 257.994L258.284 258.613ZM258.847 252.76L258.149 252.044L258.144 252.048L258.847 252.76ZM264.683 251.828L264.397 252.786L264.401 252.787L264.683 251.828ZM266.687 251.424V250.424H266.069L265.792 250.977L266.687 251.424ZM266.267 251.424V256.908H268.267V251.424H266.267ZM267.267 255.908H266.687V257.908H267.267V255.908ZM267.655 256.658C267.198 254.889 266.562 253.47 265.626 252.643L264.302 254.142C264.772 254.557 265.285 255.482 265.719 257.158L267.655 256.658ZM265.632 252.649C264.728 251.837 263.593 251.461 262.31 251.461V253.461C263.183 253.461 263.817 253.706 264.296 254.136L265.632 252.649ZM262.31 251.461C261.308 251.461 260.396 251.729 259.671 252.353L260.976 253.869C261.259 253.626 261.671 253.461 262.31 253.461V251.461ZM259.671 252.353C259.009 252.923 258.568 253.661 258.568 254.553H260.568C260.568 254.39 260.631 254.166 260.976 253.869L259.671 252.353ZM258.568 254.553C258.568 255.413 258.819 256.202 259.349 256.865L260.911 255.616C260.691 255.341 260.568 255.004 260.568 254.553H258.568ZM259.332 256.843C259.848 257.525 260.773 258.12 261.909 258.67L262.781 256.869C261.69 256.341 261.139 255.916 260.928 255.637L259.332 256.843ZM261.908 258.669L264.474 259.917L265.349 258.118L262.782 256.87L261.908 258.669ZM264.473 259.916C266.665 260.985 267.48 262.237 267.48 263.605H269.48C269.48 261.177 267.916 259.37 265.35 258.119L264.473 259.916ZM267.48 263.605C267.48 264.777 267.053 265.672 266.18 266.379L267.44 267.933C268.793 266.836 269.48 265.364 269.48 263.605H267.48ZM266.181 266.379C265.251 267.131 264.235 267.492 263.101 267.492V269.492C264.709 269.492 266.165 268.963 267.439 267.934L266.181 266.379ZM263.101 267.492C262.231 267.492 261.199 267.336 259.994 267.001L259.458 268.928C260.784 269.297 262.002 269.492 263.101 269.492V267.492ZM260.016 267.008C259.587 266.878 259.164 266.789 258.777 266.789V268.789C258.882 268.789 259.091 268.817 259.436 268.922L260.016 267.008ZM258.777 266.789C258.022 266.789 257.518 267.262 257.249 267.799L259.038 268.693C259.064 268.642 259.061 268.671 259.002 268.714C258.971 268.736 258.932 268.757 258.888 268.771C258.843 268.785 258.805 268.789 258.777 268.789V266.789ZM258.144 267.246H257.564V269.246H258.144V267.246ZM258.564 268.246V262.498H256.564V268.246H258.564ZM257.564 263.498H258.144V261.498H257.564V263.498ZM257.163 262.694C257.519 264.474 258.223 265.932 259.356 266.951L260.693 265.463C259.975 264.818 259.425 263.803 259.124 262.302L257.163 262.694ZM259.356 266.951C260.449 267.933 261.719 268.455 263.136 268.455V266.455C262.256 266.455 261.452 266.145 260.693 265.463L259.356 266.951ZM263.136 268.455C264.15 268.455 265.065 268.155 265.786 267.484L264.424 266.02C264.137 266.287 263.739 266.455 263.136 266.455V268.455ZM265.786 267.484C266.493 266.826 266.878 265.991 266.878 265.029H264.878C264.878 265.403 264.748 265.717 264.423 266.02L265.786 267.484ZM266.878 265.029C266.878 263.953 266.484 263.011 265.709 262.269L264.325 263.712C264.699 264.071 264.878 264.488 264.878 265.029H266.878ZM265.717 262.276C265.029 261.603 263.767 260.846 262.069 260.003L261.18 261.794C262.88 262.639 263.88 263.276 264.317 263.705L265.717 262.276ZM262.069 260.003C260.38 259.164 259.451 258.486 259.075 258L257.494 259.226C258.172 260.1 259.47 260.945 261.18 261.794L262.069 260.003ZM259.069 257.994C258.707 257.535 258.493 256.923 258.493 256.082H256.493C256.493 257.28 256.807 258.355 257.5 259.233L259.069 257.994ZM258.493 256.082C258.493 255.012 258.847 254.165 259.549 253.471L258.144 252.048C257.043 253.136 256.493 254.504 256.493 256.082H258.493ZM259.545 253.476C260.247 252.791 261.163 252.424 262.38 252.424V250.424C260.715 250.424 259.275 250.947 258.149 252.044L259.545 253.476ZM262.38 252.424C262.881 252.424 263.547 252.532 264.397 252.786L264.969 250.87C264.015 250.585 263.145 250.424 262.38 250.424V252.424ZM264.401 252.787C264.711 252.879 264.985 252.952 265.215 253.002C265.427 253.049 265.665 253.092 265.878 253.092V251.092C265.893 251.092 265.831 251.09 265.645 251.049C265.477 251.012 265.252 250.953 264.965 250.869L264.401 252.787ZM265.878 253.092C266.2 253.092 266.592 253.022 266.932 252.758L265.704 251.179C265.832 251.079 265.931 251.092 265.878 251.092V253.092ZM266.932 252.758C267.234 252.523 267.441 252.152 267.581 251.871L265.792 250.977C265.734 251.093 265.69 251.168 265.661 251.21C265.647 251.231 265.641 251.237 265.644 251.234C265.646 251.231 265.666 251.209 265.704 251.179L266.932 252.758ZM266.687 252.424H267.267V250.424H266.687V252.424ZM279.331 261.689V262.689H280.226L280.325 261.8L279.331 261.689ZM278.663 261.689L277.669 261.797L277.766 262.689H278.663V261.689ZM277.116 247.451L278.11 247.343L278.11 247.339L277.116 247.451ZM277.591 244.287L276.846 243.62L276.841 243.626L276.836 243.631L277.591 244.287ZM280.403 244.287L279.638 244.931L279.643 244.937L279.648 244.943L280.403 244.287ZM280.913 247.451L281.907 247.562L281.908 247.553L281.909 247.544L280.913 247.451ZM280.351 265.188L279.633 265.884L279.643 265.895L279.654 265.905L280.351 265.188ZM277.591 267.93L276.873 268.626L276.884 268.637L276.895 268.648L277.591 267.93ZM279.331 260.689H278.663V262.689H279.331V260.689ZM279.657 261.581L278.11 247.343L276.122 247.559L277.669 261.797L279.657 261.581ZM278.11 247.339C278.04 246.725 278.011 246.308 278.011 246.062H276.011C276.011 246.426 276.051 246.935 276.123 247.564L278.11 247.339ZM278.011 246.062C278.011 245.502 278.154 245.164 278.346 244.943L276.836 243.631C276.254 244.301 276.011 245.146 276.011 246.062H278.011ZM278.336 244.954C278.563 244.7 278.774 244.619 279.015 244.619V242.619C278.153 242.619 277.416 242.983 276.846 243.62L278.336 244.954ZM279.015 244.619C279.252 244.619 279.441 244.697 279.638 244.931L281.168 243.643C280.616 242.987 279.879 242.619 279.015 242.619V244.619ZM279.648 244.943C279.815 245.135 279.983 245.521 279.983 246.273H281.983C281.983 245.268 281.765 244.33 281.158 243.631L279.648 244.943ZM279.983 246.273C279.983 246.509 279.963 246.865 279.917 247.359L281.909 247.544C281.957 247.029 281.983 246.601 281.983 246.273H279.983ZM279.919 247.341L278.337 261.579L280.325 261.8L281.907 247.562L279.919 247.341ZM278.98 265.607C279.248 265.607 279.446 265.691 279.633 265.884L281.069 264.491C280.505 263.91 279.789 263.607 278.98 263.607V265.607ZM279.654 265.905C279.852 266.097 279.931 266.291 279.931 266.541H281.931C281.931 265.737 281.623 265.028 281.047 264.47L279.654 265.905ZM279.931 266.541C279.931 266.811 279.846 267.02 279.644 267.223L281.058 268.637C281.629 268.066 281.931 267.35 281.931 266.541H279.931ZM279.644 267.223C279.459 267.407 279.258 267.492 278.98 267.492V269.492C279.779 269.492 280.492 269.203 281.058 268.637L279.644 267.223ZM278.98 267.492C278.7 267.492 278.487 267.406 278.287 267.212L276.895 268.648C277.468 269.204 278.181 269.492 278.98 269.492V267.492ZM278.309 267.234C278.115 267.034 278.028 266.82 278.028 266.541H276.028C276.028 267.34 276.317 268.052 276.873 268.626L278.309 267.234ZM278.028 266.541C278.028 266.281 278.109 266.083 278.298 265.895L276.884 264.48C276.322 265.042 276.028 265.747 276.028 266.541H278.028ZM278.298 265.895C278.5 265.692 278.71 265.607 278.98 265.607V263.607C278.171 263.607 277.455 263.909 276.884 264.48L278.298 265.895Z" fill="black"/>
<defs>
<linearGradient id="paint0_linear_264_6" x1="423.641" y1="-45.4307" x2="-18.7173" y2="428.646" gradientUnits="userSpaceOnUse">
<stop stop-color="#055F67"/>
<stop offset="0.0001" stop-color="#2F6469"/>
<stop offset="0.677083" stop-color="#DBDAD8"/>
</linearGradient>
</defs>
</svg>
