<svg width="1234" height="597" viewBox="0 0 1234 597" fill="none" xmlns="http://www.w3.org/2000/svg">
<path d="M1226.69 530.808H6.71833C3.03501 530.808 0.0488892 528.083 0.0488892 524.718C0.0488892 521.35 3.03501 518.625 6.71833 518.625H1226.69C1230.37 518.625 1233.36 521.35 1233.36 524.718C1233.36 528.083 1230.37 530.808 1226.69 530.808Z" fill="#3C5A73"/>
<path d="M212.741 218.915V519.629H147.931V218.915H212.741ZM374.73 519.629H266.064V218.915H375.625C406.459 218.915 433.004 224.938 455.254 236.977C477.508 248.919 494.62 266.098 506.593 288.516C518.667 310.931 524.706 337.752 524.706 368.978C524.706 400.303 518.667 427.222 506.593 449.738C494.62 472.251 477.408 489.53 454.955 501.57C432.605 513.609 405.86 519.629 374.73 519.629ZM330.873 465.154H372.035C391.192 465.154 407.309 461.828 420.38 455.17C433.551 448.415 443.429 437.992 450.016 423.896C456.703 409.702 460.045 391.396 460.045 368.978C460.045 346.759 456.703 328.602 450.016 314.503C443.429 300.407 433.603 290.032 420.528 283.377C407.457 276.719 391.343 273.39 372.184 273.39H330.873V465.154ZM572.714 519.629V218.915H779.268V271.334H637.524V342.991H768.64V395.408H637.524V467.21H779.867V519.629H572.714ZM883.631 519.629H814.179L920.002 218.915H1003.52L1109.19 519.629H1039.74L962.957 287.635H960.565L883.631 519.629ZM879.291 401.43H1043.34V451.058H879.291V401.43Z" fill="#A5C8CD"/>
<path d="M160.994 215.925C157.468 209.141 140.982 171.131 145.055 169.366C149.124 167.603 172.205 202.749 175.735 209.53C179.265 216.319 178.827 223.251 174.758 225.013C170.685 226.778 164.527 222.708 160.994 215.925Z" fill="#FAB9AF"/>
<path d="M132.153 241.585C141.631 237.892 187.289 226.471 190.133 232.558C192.978 238.645 151.929 259.935 142.447 263.628C132.965 267.323 122.974 265.379 120.13 259.289C117.293 253.205 122.671 245.277 132.153 241.585Z" fill="#FAB9AF"/>
<path d="M143.251 165.131C143.251 165.131 142.246 172.401 144.578 173.416C146.902 174.429 148.671 174.723 150.412 171.682C152.158 168.641 152.961 163.718 152.8 160.672C152.634 157.628 149.999 152.635 149.337 152.266C146.898 150.94 147.832 156.425 148.139 159.102C148.451 161.774 148.51 164.829 147.052 164.599C145.602 164.373 145.433 159.206 143.865 158.439C142.293 157.679 143.251 165.131 143.251 165.131Z" fill="#FAB9AF"/>
<path d="M46.0141 250.184C32.9906 234.86 28.9132 217.816 32.6872 215.167C36.6343 212.394 53.6015 223.296 66.4992 237.859C79.8578 252.947 89.0206 261.188 80.2555 267.852C74.7481 272.042 59.0419 265.513 46.0141 250.184Z" fill="#FA968C"/>
<path d="M123.573 425.476C122.179 434.568 109.313 505.396 106.114 504.277C103.34 503.307 101.126 431.874 102.521 422.783C103.916 413.688 109.758 406.919 115.572 407.666C121.387 408.41 124.968 416.382 123.573 425.476Z" fill="#FA968C"/>
<path d="M86.1568 425.264C82.0874 433.659 48.4527 498.554 45.7107 496.68C43.3314 495.049 62.6465 425.801 66.7196 417.403C70.789 409.009 78.4394 403.962 83.8088 406.133C89.1783 408.304 90.2302 416.869 86.1568 425.264Z" fill="#FAB9AF"/>
<path d="M103.983 489.771L104.05 507.03L100.768 516.832C100.544 517.509 101.095 518.192 101.871 518.192H109.352V516.01L112.984 518.192C112.984 518.192 132.342 519.168 133.004 518.192C135.498 514.513 124.231 513.095 115.998 510.186C107.757 507.271 113.441 478.707 113.441 478.707L103.983 489.771Z" fill="#FA968C"/>
<path d="M49.2127 477.194L41.3182 496.716C41.3182 496.716 37.7293 498.778 36.2679 500.719C35.4209 501.847 34.255 503.346 33.4314 504.401C32.8486 505.148 32.947 506.166 33.6638 506.809L37.3748 510.124C38.08 510.759 39.2186 510.739 39.9038 510.085L40.814 509.212L42.8466 513.657C43.5518 515.198 45.0882 516.287 46.9043 516.505C51.5606 517.081 60.1642 517.99 60.4559 516.978C61.3579 513.811 48.6258 509.576 48.6258 509.576L47.2981 499.385L53.042 486.78L49.2127 477.194Z" fill="#FAB9AF"/>
<path d="M103.841 507.66C105.862 509.646 108.773 510.969 112.629 510.969C114.099 510.969 115.387 510.728 116.593 510.381C124.767 513.159 135.435 514.6 133.004 518.192C132.342 519.168 112.984 518.192 112.984 518.192L109.352 516.01V518.192H101.871C101.095 518.192 100.544 517.509 100.768 516.832L103.841 507.66Z" fill="#1B444F"/>
<path d="M33.4314 504.401C34.255 503.346 35.4209 501.847 36.2679 500.719C37.2174 499.461 39.0492 498.163 40.2269 497.396C40.5697 501.472 42.9453 505.346 47.3808 507.008L48.3541 507.489L48.6258 509.576C48.6258 509.576 61.3579 513.811 60.4559 516.978C60.1642 517.99 51.5606 517.081 46.9043 516.505C45.0882 516.287 43.5518 515.198 42.8466 513.657L40.814 509.212L39.9038 510.085C39.2186 510.74 38.08 510.759 37.3748 510.124L33.6638 506.809C32.947 506.166 32.8486 505.148 33.4314 504.401Z" fill="#1B444F"/>
<path d="M44.5367 484.92C49.469 463.764 63.7808 423.462 66.7196 417.403C70.789 409.009 78.4394 403.962 83.8088 406.133C89.1782 408.304 90.2299 416.869 86.1568 425.264C83.3677 431.012 66.9403 469.224 55.843 488.375L44.5367 484.92Z" fill="#46738C"/>
<path d="M102.088 494.92C100.638 472.872 101.564 429.009 102.521 422.783C103.916 413.688 109.758 406.919 115.572 407.666C121.387 408.41 124.968 416.379 123.573 425.476C122.64 431.552 117.853 473.602 112.984 494.92H102.088Z" fill="#3C5A73"/>
<path d="M131.46 341.039C131.791 354.295 126.823 438.381 116.616 438.593C106.409 438.806 94.8311 355.059 94.5003 341.805C94.1733 328.549 102.178 317.631 112.385 317.424C122.592 317.208 131.133 327.782 131.46 341.039Z" fill="#3C5A73"/>
<path d="M104.042 338.395C104.372 351.649 92.8062 427.703 82.5992 427.913C72.3922 428.126 65.5653 352.189 65.2342 338.932C64.9075 325.676 74.7598 314.987 84.9668 314.774C95.1739 314.567 103.714 325.139 104.042 338.395Z" fill="#46738C"/>
<path d="M117.38 211.443C117.38 227.601 103.025 234.038 93.1293 234.038C83.2337 234.038 83.5368 217.86 83.5368 210.915C83.5368 203.972 91.4866 200.282 101.383 200.282C111.278 200.282 117.38 204.498 117.38 211.443Z" fill="#373C41"/>
<path d="M106.878 246.822L89.718 248.15L93.346 230.188L104.215 231.417L106.878 246.822Z" fill="#FA968C"/>
<path d="M115.884 221.052C115.884 232.684 113.421 238.407 106.878 238.407C98.9125 238.407 88.8512 230.423 88.8512 220.84C88.8512 211.256 93.4881 205.717 101.458 205.717C109.427 205.717 115.884 211.468 115.884 221.052Z" fill="#FAB9AF"/>
<path d="M89.1229 217.086H109.305C111.432 217.086 113.398 216.476 115.028 215.446C113.027 209.278 107.717 205.717 101.457 205.717C94.5947 205.717 90.2142 209.829 89.1229 217.086Z" fill="#FF9669"/>
<path d="M106.661 215.301H86.0818V213.472C86.0818 207.102 91.7389 201.935 98.7155 201.935H119.374V203.686C119.374 210.101 113.681 215.301 106.661 215.301Z" fill="#373C41"/>
<path d="M92.7196 222.521V211.972H97.7622V217.911C97.7622 220.456 95.5049 222.521 92.7196 222.521Z" fill="#373C41"/>
<path d="M94.6461 220.476C94.6461 223.648 93.5511 226.219 90.7224 226.219C87.8979 226.219 86.0818 221.858 86.0818 218.686C86.0818 215.513 87.8979 214.736 90.7224 214.736C93.5511 214.736 94.6461 217.304 94.6461 220.476Z" fill="#FAB9AF"/>
<path d="M74.5237 248.122L122.971 242.049C132.626 240.838 140.753 248.609 138.992 257.356L125.555 324.115C122.616 338.706 107.319 348.382 91.3292 345.763L68.5554 342.026L63.9345 261.776C62.4808 255.286 67.3381 249.026 74.5237 248.122Z" fill="#FA968C"/>
<path d="M61.2475 249.789L142.569 239.593L125.464 324.562C122.58 338.901 107.536 348.418 91.8176 345.839L64.6947 341.296L61.2475 249.789Z" fill="#FA503C"/>
<path d="M132.153 241.585C134.717 240.586 139.925 239.025 146.221 237.392C153.907 247.056 151.567 259.44 151.567 259.44C147.643 261.379 144.381 262.873 142.447 263.628C132.965 267.323 122.974 265.379 120.13 259.289C117.293 253.205 122.671 245.277 132.153 241.585Z" fill="#FA503C"/>
<path d="M66.4992 237.859C79.8578 252.948 89.0209 261.189 80.2556 267.852C74.8114 271.995 59.3963 265.645 46.4632 250.687C46.4632 250.687 63.1113 234.035 66.4992 237.859Z" fill="#FA503C"/>
<path d="M62.5162 153.653C62.5162 153.653 68.319 158.714 67.2121 160.842C66.1091 162.968 64.9391 164.213 61.4882 162.862C58.0333 161.508 54.0032 158.151 52.0257 155.695C50.0482 153.239 48.6418 147.849 48.9058 147.18C49.8788 144.749 52.9436 149.541 54.5547 151.793C56.1658 154.048 58.2303 156.448 59.1953 155.432C60.1645 154.417 56.7293 150.313 57.4188 148.817C58.1043 147.317 62.5162 153.653 62.5162 153.653Z" fill="#FA968C"/>
<path d="M54.2043 204.022C57.848 196.548 71.4312 162.347 66.1485 160.199C60.8697 158.056 39.6914 189.907 36.5279 197.569C30.7174 211.639 29.37 222.834 34.6528 224.977C39.9315 227.125 50.5603 211.502 54.2043 204.022Z" fill="#FA968C"/>
<path d="M277.034 117.022C269.186 115.357 225.923 108.904 224.922 112.829C223.927 116.753 265.571 129.568 273.421 131.232C281.263 132.894 288.434 131.064 289.429 127.14C290.43 123.215 284.881 118.686 277.034 117.022Z" fill="#FAB9AF"/>
<path d="M273.421 131.232C268.382 130.164 249.462 124.513 236.787 119.559C237.321 116.644 238.002 114.599 238.507 111.897C252.194 112.887 271.97 115.948 277.034 117.022C284.881 118.686 290.43 123.215 289.429 127.14C288.434 131.065 281.263 132.894 273.421 131.232Z" fill="#73C8F0"/>
<path d="M219.47 116.927C219.47 116.927 227.326 117.072 228.167 114.902C229.014 112.725 229.145 111.122 225.726 109.886C222.307 108.641 216.964 108.429 213.738 108.887C210.512 109.343 205.454 112.197 205.135 112.829C203.965 115.128 209.72 113.738 212.537 113.192C215.361 112.641 218.609 112.278 218.512 113.595C218.418 114.913 212.927 115.587 212.273 117.064C211.619 118.535 219.47 116.927 219.47 116.927Z" fill="#FAB9AF"/>
<path d="M251.116 148.489C251.116 148.489 259.708 146.777 261.145 148.995C262.591 151.217 263.11 152.951 259.648 154.987C256.192 157.024 250.378 158.313 246.728 158.448C243.072 158.585 236.844 156.45 236.34 155.821C234.518 153.524 241.162 153.913 244.389 153.961C247.62 154.005 251.27 153.759 250.857 152.335C250.443 150.912 244.25 151.253 243.18 149.762C242.114 148.274 251.116 148.489 251.116 148.489Z" fill="#FAB9AF"/>
<path d="M219.47 116.927C219.47 116.927 211.619 118.535 212.273 117.064C212.927 115.587 218.418 114.913 218.512 113.595L218.375 113.243C218.965 113.064 219.55 112.854 220.12 112.624C220.77 112.387 221.403 112.124 222.028 111.83L222.339 111.668C222.732 111.469 223.126 111.265 223.508 111.041L224.375 110.501L224.839 110.196L225.427 109.799L225.726 109.886C229.145 111.122 229.014 112.725 228.167 114.901C227.326 117.072 219.47 116.927 219.47 116.927Z" fill="#FAB9AF"/>
<path d="M400.18 246.799C378.32 250.536 330.349 255.541 324.868 256.223C315.116 257.432 306.579 254.195 305.803 248.998C305.03 243.795 312.31 238.594 322.065 237.383C327.717 236.684 378.694 236.298 401.523 237.294L400.18 246.799Z" fill="#003C63"/>
<path d="M348.231 170.132C340.418 179.52 297.568 243.54 307.129 250.173C316.687 256.808 375.032 203.535 382.845 194.15C390.659 184.765 389.239 171.78 379.677 165.145C370.116 158.512 356.038 160.747 348.231 170.132Z" fill="#003C63"/>
<path d="M313.747 90.064C305.766 95.7006 273.258 125.881 277.596 131.006C281.938 136.136 321.481 114.267 329.462 108.633C337.446 102.996 340.403 94.2684 336.066 89.1437C331.723 84.0161 321.734 84.4273 313.747 90.064Z" fill="#73C8F0"/>
<path d="M363.25 181.523C367.142 194.01 403.759 261.667 414.669 258.828C425.581 255.994 408.543 182.986 404.654 170.499C400.764 158.008 386.875 150.945 375.968 153.779C365.052 156.613 359.363 169.033 363.25 181.523Z" fill="#0073AA"/>
<path d="M389.581 93.032C389.492 86.5477 383.413 81.4789 376.333 81.9853L328.592 85.3924C319.077 86.0722 313.074 95.0517 316.761 103.088L349.3 174.124C353.187 182.603 362.999 187.479 372.902 185.856L408.392 174.991L392.635 140.953L389.581 93.032Z" fill="#AFE6FF"/>
<path d="M305.749 134.058C296.418 136.942 255.308 147.446 257.096 152.266C258.884 157.091 302.646 150.039 311.802 146.727C328.607 140.637 339.665 133.73 337.877 128.905C336.089 124.082 315.073 131.177 305.749 134.058Z" fill="#FAB9AF"/>
<path d="M337.877 128.905C336.089 124.082 315.073 131.177 305.746 134.058C300.011 135.834 282.241 140.492 269.828 144.939C269.828 144.939 270.803 150.786 272.563 153.522C286.641 152.361 306.051 148.805 311.803 146.727C328.607 140.637 339.665 133.73 337.877 128.905Z" fill="#D2F0FF"/>
<path d="M418.621 261.323C427.962 264.142 501.654 284.518 501.962 281.464C502.233 278.82 434.495 246.091 425.151 243.269C415.803 240.449 406.761 242.206 404.956 247.188C403.154 252.173 409.271 258.5 418.621 261.323Z" fill="#FAB9AF"/>
<path d="M484.172 270.976L504.879 278.582C504.879 278.582 508.874 277.559 511.381 277.866C512.838 278.045 514.791 278.258 516.174 278.406C517.152 278.51 517.897 279.248 517.937 280.143L518.128 284.781C518.165 285.665 517.403 286.409 516.434 286.432L515.142 286.463L517.341 290.734C518.102 292.217 517.957 293.945 516.936 295.297C514.332 298.757 509.399 305.054 508.401 304.584C505.29 303.101 510.295 291.881 510.295 291.881L503.069 284.3L489.276 279.816L484.172 270.976Z" fill="#FAB9AF"/>
<path d="M510.295 291.881L508.555 290.054C510.842 285.883 510.092 281.525 507.631 278.042C508.854 277.863 510.26 277.729 511.381 277.866C512.838 278.045 514.791 278.258 516.174 278.406C517.152 278.51 517.897 279.248 517.937 280.143L518.128 284.781C518.165 285.665 517.403 286.409 516.434 286.432L515.142 286.462L517.341 290.734C518.102 292.217 517.957 293.945 516.936 295.294C514.332 298.757 509.399 305.054 508.401 304.584C505.29 303.101 510.295 291.881 510.295 291.881Z" fill="#373C41"/>
<path d="M491.68 283.089C469.586 277.614 424.17 262.998 418.621 261.32C409.271 258.5 403.154 252.173 404.956 247.188C406.761 242.206 415.803 240.449 425.151 243.269C431.096 245.065 473.23 262.52 493.893 273.072L491.68 283.089Z" fill="#0073AA"/>
<path d="M347.335 91.7004C354.302 93.6725 361.533 83.0398 361.533 83.0398L349.865 69.6993L341.099 75.3499L347.335 91.7004Z" fill="#FA968C"/>
<path d="M319.627 63.6626C327.805 77.6073 343.46 77.1094 352 72.9329C360.544 68.7565 352.092 54.9181 348.581 48.9234C345.063 42.9314 336.328 43.0993 327.788 47.2729C319.242 51.4494 316.111 57.6707 319.627 63.6626Z" fill="#69280F"/>
<path d="M325.786 71.3245C331.672 81.367 336.691 85.2665 342.34 82.5055C349.217 79.1431 353.863 68.0041 349.015 59.7352C344.167 51.4606 337.358 48.6325 330.48 51.9977C323.599 55.3601 320.933 63.0556 325.786 71.3245Z" fill="#FAB9AF"/>
<path d="M346.879 56.6077L329.453 65.1228C327.62 66.0235 325.612 66.3257 323.688 66.1271C322.293 59.9589 325.074 54.6412 330.48 51.9977C336.4 49.1052 342.263 50.806 346.879 56.6077Z" fill="#FF9669"/>
<path d="M330.836 62.4682L348.604 53.7824L347.675 52.2047C344.453 46.7051 336.95 44.6295 330.928 47.5779L313.094 56.2944L313.981 57.8106C317.232 63.3465 324.774 65.4305 330.836 62.4682Z" fill="#69280F"/>
<path d="M346.523 62.8178L341.187 53.7097L336.83 55.8384L339.839 60.9687C341.128 63.1619 344.122 63.9899 346.523 62.8178Z" fill="#69280F"/>
<path d="M343.831 61.8695C345.433 64.6026 347.678 66.3621 350.116 65.1676C352.559 63.9732 351.918 59.4443 350.315 56.7057C348.71 53.9671 346.748 54.0621 344.31 55.2566C341.869 56.4483 342.223 59.1282 343.831 61.8695Z" fill="#FAB9AF"/>
<path d="M351.952 91.057L359.768 81.0201L366.657 82.6762L356.731 97.9245L351.952 91.057Z" fill="#D2F0FF"/>
<path d="M351.114 128.877C352.371 129.028 353.623 129.179 354.875 129.33C352.02 149.119 356.811 169.195 368.42 186.111C366.771 186.06 365.172 185.823 363.609 185.442C352.725 168.384 348.276 148.503 351.114 128.877Z" fill="#D2F0FF"/>
<path d="M344.43 84.072L347.335 91.7004L344.05 98.1399L337.332 84.7686L344.43 84.072Z" fill="#D2F0FF"/>
<path d="M347.338 97.7259L353.694 96.4671L351.952 91.057L347.335 91.7004L347.338 97.7259Z" fill="#CD5014"/>
<path d="M347.338 97.7259L353.694 96.4671L358.091 129.669L353.882 139.37L345.644 132.144L347.338 97.7259Z" fill="#CD5014"/>
<path d="M348.912 99.6588C334.327 113.206 326.308 131.887 329.861 135.051C333.571 138.354 351.878 127.417 366.261 114.616C381.16 101.357 393.584 91.499 384.964 83.7867C379.632 79.0172 363.498 86.1113 348.912 99.6588Z" fill="#D2F0FF"/>
<path d="M1071.79 452.745C1081.58 459.123 1156.77 510.784 1153.7 513.263C1151.03 515.419 1066.8 478.039 1057.01 471.658C1047.21 465.271 1042.59 455.864 1046.67 450.644C1050.75 445.421 1062 446.359 1071.79 452.745Z" fill="#3C5A73"/>
<path d="M1137.12 507.889C1137.12 507.889 1148.5 512.74 1153.6 519.33C1158.7 525.921 1161.17 525.574 1168.72 522.995C1176.27 520.416 1183.83 524.654 1188.84 524.553C1199.28 524.349 1198.46 520.374 1190.28 519.034C1182.54 517.769 1151.2 509.084 1137.53 499.033L1137.12 507.889Z" fill="#FA968C"/>
<path d="M1190.28 519.033C1186.42 518.401 1176.7 515.926 1166.22 512.356C1164.08 516.063 1160.05 518.807 1154.06 518.807L1153.08 518.72L1153.6 519.33C1158.7 525.921 1161.17 525.574 1168.72 522.995C1176.27 520.413 1183.83 524.653 1188.84 524.553C1199.28 524.348 1198.46 520.373 1190.28 519.033Z" fill="#823214"/>
<path d="M1083.27 497.46C1095.14 499.259 1188.85 511.618 1187.28 515.081C1186.91 515.889 1180.71 516.958 1171.61 518.04C1147.19 520.958 1087.76 521.694 1079.11 520.385C1067.24 518.586 1058.55 511.995 1059.7 505.665C1060.85 499.337 1071.41 495.662 1083.27 497.46Z" fill="#FAB9AF"/>
<path d="M1169.16 518.231C1169.16 518.231 1181.72 518.155 1189.42 522.116C1197.12 526.074 1199.19 524.793 1204.8 519.506C1210.41 514.222 1218.75 513.685 1223.71 513.036C1228.68 512.387 1230.63 508.759 1222.77 508.692C1214.91 508.63 1182.44 513.8 1165.37 510.074L1169.16 518.231Z" fill="#FAB9AF"/>
<path d="M1222.77 508.692C1218.89 508.664 1209.02 509.9 1197.97 510.726C1197.68 515.584 1194.86 520.248 1189.5 522.153C1197.13 526.055 1199.21 524.771 1204.8 519.506C1210.41 514.222 1218.75 513.685 1223.71 513.036C1228.68 512.387 1230.63 508.759 1222.77 508.692Z" fill="#823214"/>
<path d="M1025.77 374.515C1025.05 375.908 1024.49 377.578 1024.13 379.2C1023.76 380.845 1023.63 382.543 1023.72 384.252L1023.12 384.333C1022.66 382.63 1022.43 380.842 1022.45 379.049C1022.48 377.239 1022.67 375.499 1023.18 373.628L1025.77 374.515Z" fill="#965028"/>
<path d="M1034.84 385.925C1034.84 382.565 1031.86 379.838 1028.17 379.838C1027.08 379.838 1026.04 380.084 1025.13 380.523C1023.98 381.069 1022.6 381.043 1021.43 380.548C1020.59 380.201 1019.65 380 1018.66 380C1014.98 380 1012 382.725 1012 386.081C1012 389.441 1014.98 400.163 1018.66 400.163C1020.57 400.163 1022.28 399.422 1023.5 398.241C1024.7 399.327 1026.36 400.004 1028.17 400.004C1031.86 400.004 1034.84 389.282 1034.84 385.925Z" fill="#FA503C"/>
<path d="M1033.62 382.456L1033.44 382.406L1033.35 382.548L1033.38 383.044C1033.38 386.398 1030.4 397.125 1026.72 397.125C1025.37 397.125 1024.12 396.756 1023.07 396.127C1022.45 395.755 1021.64 395.769 1021.03 396.163C1019.95 396.871 1018.63 397.288 1017.2 397.288C1016.8 397.288 1016.44 397.489 1016.27 397.816C1016.09 398.144 1016.14 398.532 1016.38 398.821C1017.09 399.654 1017.86 400.166 1018.66 400.166C1020.57 400.166 1022.28 399.422 1023.5 398.242C1024.7 399.327 1026.35 400.004 1028.17 400.004C1031.86 400.004 1034.84 389.282 1034.84 385.925C1034.84 384.624 1034.38 383.438 1033.62 382.456Z" fill="#FA2D14"/>
<path d="M1021.05 387.22C1020.59 389.763 1018.59 391.578 1016.56 391.276C1014.54 390.974 1013.27 388.666 1013.73 386.121C1014.18 383.578 1016.19 381.757 1018.22 382.062C1020.24 382.367 1021.51 384.674 1021.05 387.22Z" fill="#FA735F"/>
<path d="M1014.68 383.827C1014.5 383.586 1014.4 383.295 1014.4 382.985C1014.4 382.118 1015.17 381.416 1016.12 381.416C1016.69 381.416 1017.18 381.662 1017.5 382.042C1016.42 382.143 1015.4 382.809 1014.68 383.827Z" fill="#FB7667"/>
<path d="M1016.12 384.554C1015.51 384.554 1014.98 384.263 1014.68 383.827C1015.4 382.809 1016.42 382.143 1017.5 382.042C1017.71 382.305 1017.84 382.632 1017.84 382.985C1017.84 383.849 1017.07 384.554 1016.12 384.554Z" fill="#FB9282"/>
<path d="M1025.5 374.394C1025.39 374.682 1024.83 374.755 1024.25 374.565C1023.68 374.377 1023.3 373.991 1023.41 373.712C1023.53 373.429 1024.08 373.351 1024.66 373.541C1025.24 373.731 1025.61 374.114 1025.5 374.394Z" fill="#823214"/>
<path d="M981.595 467.246C999.571 460.991 1061.92 438.836 1066.86 450.692C1071.81 462.547 1009.73 505.575 984.338 514.387C950.143 526.239 937.037 510.89 932.09 499.033C927.142 487.175 963.625 473.498 981.595 467.246Z" fill="#3C5A73"/>
<path d="M964.295 412.416C973.474 419.513 1006.53 454.924 1001.99 459.825C997.452 464.72 957.029 437.248 947.85 430.145C938.668 423.046 934.907 413.322 939.444 408.421C943.983 403.529 955.11 405.313 964.295 412.416Z" fill="#FA968C"/>
<path d="M1009.87 450.107C1012.33 443.296 1025.36 399.649 1021.24 398.404C1017.12 397.162 997.415 438.792 994.952 445.603C992.479 452.42 993.82 458.95 997.94 460.194C1002.06 461.445 1007.4 456.924 1009.87 450.107Z" fill="#FAB9AF"/>
<path d="M969.436 513.979L930.704 508.692L904.963 434.946C899.337 419.966 904.062 411.386 920.812 409.151L946.248 405.761C952.07 404.983 957.354 408.975 957.602 414.343L969.436 513.979Z" fill="#00A897"/>
<path d="M918.824 435.08C914.031 445.156 887.68 484.251 881.238 481.697C874.791 479.141 890.694 435.899 895.488 425.823C900.284 415.747 909.392 409.646 915.836 412.203C922.28 414.757 923.615 425.001 918.824 435.08Z" fill="#FA968C"/>
<path d="M986.765 435.181C978.259 425.409 968.621 415.764 964.295 412.416C955.11 405.313 943.983 403.529 939.444 408.421C934.907 413.322 938.668 423.046 947.85 430.145C952.142 433.463 963.254 441.234 974.341 448.062C978.615 450.697 986.765 435.181 986.765 435.181Z" fill="#00A897"/>
<path d="M903.443 459.302C910.392 449.626 916.706 439.525 918.824 435.08C923.615 425.001 922.28 414.757 915.836 412.203C909.392 409.646 900.284 415.747 895.488 425.823C893.295 430.439 888.772 441.997 885.131 453.425C884.506 455.4 903.443 459.302 903.443 459.302Z" fill="#00A897"/>
<path d="M970.543 518.365C989.768 517.901 1092.3 521.694 1091.94 509.005C1091.57 496.325 974.506 472.304 955.278 472.768C936.056 473.233 929.84 493.167 930.211 505.85C930.578 518.533 951.318 518.829 970.543 518.365Z" fill="#46738C"/>
<path d="M1154.73 507.897C1126.95 503.419 1090.4 498.54 1083.27 497.46C1071.41 495.662 1060.85 499.337 1059.7 505.665C1058.55 511.995 1067.24 518.583 1079.11 520.382C1086.14 521.445 1126.67 521.159 1154.73 519.456V507.897Z" fill="#46738C"/>
<path d="M895.328 473.896C902.867 475.915 949.584 490.971 948.363 494.769C947.137 498.571 898.436 489.684 890.897 487.661C883.354 485.636 878.23 480.911 879.451 477.11C880.677 473.311 887.783 471.868 895.328 473.896Z" fill="#FA968C"/>
<path d="M941.602 487.499C941.602 487.499 938.463 494.492 943.593 496.014C948.714 497.536 959.65 488.389 959.45 484.917C959.248 481.443 950.411 485.776 941.602 487.499Z" fill="#FA968C"/>
<path d="M937.057 489.041C936.789 487.821 937.656 486.638 938.988 486.391L966.599 481.362C967.931 481.116 969.225 481.904 969.493 483.124C969.758 484.341 968.894 485.524 967.563 485.765L939.951 490.803C938.617 491.043 937.325 490.255 937.057 489.041Z" fill="#A5C8CD"/>
<path d="M954.939 481.787C954.209 481.283 952.196 482.892 950.077 484.965C948.902 486.112 947.385 487.043 945.672 487.172C944.557 487.256 943.396 487.835 942.569 488.831C941.183 490.492 941.26 492.669 942.734 493.695C944.659 495.03 947.662 492.151 948.734 490.979C950.633 488.906 955.86 482.43 954.939 481.787Z" fill="#FA968C"/>
<path d="M1021.83 396.214C1021.83 396.214 1015.42 400.037 1016.05 402.214C1016.68 404.382 1017.54 405.736 1021.04 405.014C1024.54 404.301 1028.96 401.789 1031.28 399.8C1033.6 397.805 1035.96 392.974 1035.83 392.306C1035.38 389.866 1031.6 393.878 1029.65 395.735C1027.72 397.593 1025.32 399.514 1024.61 398.409C1023.89 397.307 1027.9 394.001 1027.54 392.485C1027.17 390.971 1021.83 396.214 1021.83 396.214Z" fill="#FAB9AF"/>
<path d="M938.329 419.32C933.516 420.036 922.434 409 922.434 409L925.129 395.738L937.379 399.05C937.379 399.05 948.312 417.826 938.329 419.32Z" fill="#FA968C"/>
<path d="M954.856 369.046C958.501 372.889 958.042 378.699 953.833 382.028C949.627 385.349 943.265 384.932 939.621 381.094C935.979 377.247 936.436 371.437 940.647 368.114C940.647 368.114 947.083 368.923 950.302 369.832C952.036 370.327 953.579 367.7 954.856 369.046Z" fill="#00558C"/>
<path d="M949.675 378.736C948.486 393.864 934.394 396.345 925.129 395.738C915.867 395.125 917.521 382.66 918.035 376.165C918.545 369.664 926.258 366.699 935.526 367.309C944.788 367.916 950.188 372.24 949.675 378.736Z" fill="#00558C"/>
<path d="M948.817 383.446C948.107 392.415 943.727 406.505 936.264 406.018C928.808 405.526 921.568 394.753 922.278 385.779C922.979 376.808 927.73 371.907 935.189 372.397C942.646 372.889 949.527 374.478 948.817 383.446Z" fill="#FAB9AF"/>
<path d="M922.808 382.283L941.697 383.525C943.693 383.656 947.257 382.644 948.86 381.782C949.364 375.354 946.145 371.924 935.189 372.397C928.762 372.679 924.365 375.561 922.808 382.283Z" fill="#FF9669"/>
<path d="M939.353 381.69L920.091 380.423L920.225 378.716C920.692 372.747 926.372 368.26 932.905 368.693L952.244 369.958L952.113 371.603C951.64 377.606 945.925 382.121 939.353 381.69Z" fill="#00558C"/>
<path d="M925.771 387.589L926.552 377.715L931.271 378.025L930.829 383.589C930.647 385.97 928.38 387.763 925.771 387.589Z" fill="#00558C"/>
<path d="M927.724 385.793C927.493 388.767 926.278 391.103 923.632 390.932C920.983 390.756 920.145 387.251 920.373 384.283C920.609 381.312 921.833 380.006 924.479 380.182C927.125 380.355 927.961 382.825 927.724 385.793Z" fill="#FAB9AF"/>
<path d="M766.858 584.894C766.858 591.485 681.777 596.828 576.809 596.828C471.853 596.828 386.766 591.485 386.766 584.894C386.766 578.304 471.853 572.964 576.809 572.964C681.777 572.964 766.858 578.304 766.858 584.894Z" fill="#C8E6EB"/>
<path d="M415.889 433.108C415.889 444.647 426.132 454.004 438.773 454.004C451.41 454.004 461.656 444.647 461.656 433.108C461.656 421.566 451.41 412.206 438.773 412.206C426.132 412.206 415.889 421.566 415.889 433.108Z" fill="#FFDC8C"/>
<path d="M485.033 445.676C496.898 443.312 547.883 438.521 549.395 444.845C550.909 451.173 502.379 466.22 490.514 468.584C478.648 470.953 467.804 467.739 466.295 461.414C464.781 455.086 473.173 448.04 485.033 445.676Z" fill="#FAB9AF"/>
<path d="M495.618 444.138C491.064 444.677 487.32 445.22 485.033 445.676C473.173 448.04 464.781 455.086 466.295 461.414C467.804 467.739 478.648 470.953 490.514 468.584C491.811 468.329 493.559 467.912 495.618 467.375L505.33 464.648C505.33 464.648 505.33 460.782 502.555 454.004C499.707 447.055 495.618 444.138 495.618 444.138Z" fill="#FFA0BE"/>
<path d="M732.417 451.072C732.417 460.997 723.609 469.042 712.739 469.042C701.874 469.042 693.066 460.997 693.066 451.072C693.066 441.15 701.874 433.108 712.739 433.108C723.609 433.108 732.417 441.15 732.417 451.072Z" fill="#D72846"/>
<path d="M667.633 528.111C648.827 532.506 590.902 557.259 594.38 569.668C597.859 582.072 674.739 572.95 693.853 569.847C732.737 563.551 733.042 535.328 716.731 524.455C705.399 516.908 686.436 523.714 667.633 528.111Z" fill="#695A6E"/>
<path d="M687.688 447.394C675.823 445.03 624.84 440.238 623.326 446.566C621.815 452.893 670.342 467.937 682.21 470.307C694.075 472.67 704.92 469.459 706.431 463.131C707.942 456.807 699.55 449.763 687.688 447.394Z" fill="#FAB9AF"/>
<path d="M687.688 447.393C680.551 445.972 659.273 443.673 643.11 443.444C639.908 446.54 638.947 456.546 638.947 456.546C653.806 462.614 674.922 468.852 682.207 470.304C694.075 472.67 704.92 469.459 706.431 463.131C707.942 456.807 699.55 449.763 687.688 447.393Z" fill="#5046AF"/>
<path d="M631.017 435.989C626.218 430.218 593.887 395.385 590.402 397.805C586.918 400.228 613.591 438.982 618.39 444.747C623.192 450.518 629.91 453.234 633.392 450.815C636.882 448.392 635.819 441.754 631.017 435.989Z" fill="#FAB9AF"/>
<path d="M744.197 453.604H699.924C692.487 453.604 686.681 459.484 687.44 466.239L687.719 468.676L680.451 488.249C678.004 494.839 683.371 501.676 690.999 501.676H691.435L696.288 544.766L726.055 540.453L732.56 521.316L753.481 465.462C755.66 459.649 750.924 453.604 744.197 453.604Z" fill="#6E64C3"/>
<path d="M728.79 468.592C724.704 479.034 712.981 524.6 719.657 526.779C726.335 528.956 748.888 486.928 752.974 476.48C757.057 466.041 754.956 455.808 748.28 453.629C741.599 451.45 732.873 458.152 728.79 468.592Z" fill="#FAB9AF"/>
<path d="M733.244 512.784C741.534 500.165 750.533 482.71 752.974 476.48C757.057 466.041 754.953 455.808 748.28 453.629C741.599 451.45 732.873 458.152 728.79 468.592C726.241 475.112 720.717 495.306 718.55 510.096C718.416 511.016 733.244 512.784 733.244 512.784Z" fill="#5046AF"/>
<path d="M626.126 587.856C638.243 588.629 733.11 592.492 732.463 588.757C731.901 585.524 640.031 565.234 627.917 564.462C615.807 563.693 605.584 568.3 605.088 574.762C604.595 581.221 614.013 587.084 626.126 587.856Z" fill="#FAB9AF"/>
<path d="M710.686 516.527C703.394 519.381 658.557 539.583 660.282 543.261C662.007 546.934 709.648 532.69 716.939 529.834C724.228 526.981 728.742 521.688 727.011 518.013C725.291 514.34 717.98 513.671 710.686 516.527Z" fill="#FAB9AF"/>
<path d="M687.523 538.587C668.717 542.982 601.64 562.166 605.119 575.996C608.253 588.478 694.629 583.423 713.743 580.329C752.629 574.027 752.934 545.801 736.62 534.931C725.294 527.384 706.331 534.19 687.523 538.587Z" fill="#828291"/>
<path d="M708.079 581.82C708.079 581.82 726.306 587.496 728.981 582.172C731.662 576.852 735.982 576.027 739.458 579.322C740.627 580.43 742.723 582.888 744.87 584.237C750.858 587.985 760.191 589.219 760.356 590.981C760.585 593.373 751.368 592.223 745.808 591.524C734.125 590.061 722.411 591.219 704.84 590.363L708.079 581.82Z" fill="#FAB9AF"/>
<path d="M586.49 397.749C586.49 397.749 589.484 405.428 592.356 405.375C595.225 405.316 597.138 404.799 597.203 400.98C597.272 397.162 595.37 391.894 593.536 388.946C591.706 385.995 586.348 382.235 585.481 382.182C582.338 381.975 586.274 386.996 588.044 389.517C589.821 392.037 591.549 395.039 589.983 395.478C588.415 395.914 585.41 390.859 583.433 390.817C581.454 390.773 586.49 397.749 586.49 397.749Z" fill="#FAB9AF"/>
<path d="M669.815 537.236C669.815 537.236 654.739 539.916 652.885 541.267C651.029 542.618 642.126 549.466 644.02 549.983C645.91 550.501 651.936 547.933 655.777 545.575C659.623 543.228 664.157 544.134 664.157 544.134L669.815 537.236Z" fill="#FAB9AF"/>
<path d="M505.09 526.391C523.896 530.788 580.702 557.259 577.223 569.668C573.75 582.072 497.979 571.229 478.868 568.133C439.987 561.833 439.679 533.608 455.993 522.737C467.322 515.19 486.287 521.999 505.09 526.391Z" fill="#D72846"/>
<path d="M541.707 434.268C546.503 428.503 578.834 393.668 582.321 396.09C585.803 398.507 559.13 437.262 554.331 443.032C549.529 448.798 542.813 451.511 539.332 449.094C535.841 446.672 536.905 440.039 541.707 434.268Z" fill="#FAB9AF"/>
<path d="M476.433 543.043L446.668 538.73L440.164 519.599L419.242 463.741C417.064 457.929 421.797 451.886 428.527 451.886H472.797C480.237 451.886 486.042 457.761 485.281 464.519L476.433 543.043Z" fill="#FFA0BE"/>
<path d="M458.739 465.372H484.414L492.27 486.528C494.717 493.119 489.35 499.958 481.725 499.958H471.576L458.739 465.372Z" fill="#FFA0BE"/>
<path d="M433.28 447.715C426.568 438.478 393.624 402.622 387.713 406.203C381.805 409.778 405.167 451.439 411.88 460.681C418.592 469.923 428.826 474.514 434.735 470.93C440.643 467.35 439.993 456.961 433.28 447.715Z" fill="#FAB9AF"/>
<path d="M433.28 447.715C432.077 446.062 430.021 443.544 427.441 440.557L427.101 440.59C427.101 440.59 412.769 442.358 405.142 449.976C407.896 454.695 410.331 458.547 411.88 460.681C418.592 469.923 428.826 474.514 434.735 470.93C440.643 467.35 439.993 456.961 433.28 447.715Z" fill="#FFA0BE"/>
<path d="M546.594 586.136C534.481 586.908 439.614 590.777 440.258 587.043C440.823 583.806 532.693 563.52 544.807 562.745C556.917 561.973 567.14 566.58 567.636 573.042C568.126 579.498 558.708 585.361 546.594 586.136Z" fill="#FAB9AF"/>
<path d="M402.079 405.777C403.938 398.737 413.069 353.845 408.811 352.908C404.557 351.968 388.523 395.338 386.664 402.382C384.799 409.422 386.741 415.893 390.995 416.83C395.255 417.767 400.214 412.821 402.079 405.777Z" fill="#FAB9AF"/>
<path d="M485.198 536.87C504.007 541.261 571.083 560.443 567.605 574.278C564.468 586.763 478.092 581.705 458.978 578.606C420.098 572.309 419.79 544.084 436.103 533.216C447.427 525.663 466.392 532.475 485.198 536.87Z" fill="#E64B55"/>
<path d="M464.644 580.097C464.644 580.097 446.415 585.775 443.737 580.455C441.062 575.131 436.739 574.312 433.266 577.604C432.097 578.712 430.001 581.171 427.854 582.516C421.866 586.265 412.533 587.504 412.367 589.264C412.139 591.655 421.352 590.503 426.916 589.806C438.596 588.341 450.313 589.499 467.881 588.643L464.644 580.097Z" fill="#FAB9AF"/>
<path d="M584.2 393.945C584.2 393.945 582.932 402.015 580.103 402.479C577.28 402.938 575.289 402.779 574.4 399.047C573.504 395.315 574.234 389.813 575.392 386.591C576.547 383.365 580.987 378.716 581.822 378.503C584.859 377.731 582.093 383.371 580.896 386.157C579.701 388.946 578.657 392.205 580.288 392.347C581.919 392.496 583.77 386.996 585.698 386.599C587.628 386.202 584.2 393.945 584.2 393.945Z" fill="#FAB9AF"/>
<path d="M413.077 351.215C413.077 351.215 411.803 359.286 408.983 359.75C406.154 360.209 404.166 360.047 403.271 356.318C402.384 352.586 403.106 347.084 404.263 343.856C405.421 340.636 409.858 335.984 410.693 335.774C413.739 335.002 410.97 340.639 409.772 343.425C408.578 346.214 407.534 349.475 409.165 349.618C410.796 349.766 412.644 344.267 414.577 343.867C416.508 343.472 413.077 351.215 413.077 351.215Z" fill="#FAB9AF"/>
<path d="M692.755 419.988C694.945 435.684 709.765 440.316 719.38 439.194C728.99 438.076 726.5 422.394 725.559 415.649C724.615 408.905 716.392 406.217 706.779 407.338C697.167 408.457 691.817 413.244 692.755 419.988Z" fill="#D72846"/>
<path d="M710.971 466.393C714.974 467.848 724.849 457.069 724.849 457.069L724.402 453.604L721.485 431.085L710.652 440.68L708.419 453.578C708.419 453.578 707.657 465.187 710.971 466.393Z" fill="#FA968C"/>
<path d="M695.515 429.155C697.092 440.453 700.26 445.735 706.614 444.991C714.356 444.09 723.044 435.197 721.744 425.89C720.444 416.581 715.185 411.725 707.443 412.623C699.707 413.526 694.215 419.848 695.515 429.155Z" fill="#FAB9AF"/>
<path d="M720.968 422.276L701.367 424.556C699.3 424.797 697.304 424.43 695.587 423.613C696.69 417.398 701.367 413.336 707.444 412.623C714.11 411.851 718.924 415.35 720.968 422.276Z" fill="#FF9669"/>
<path d="M703.694 422.522L723.68 420.195L723.435 418.422C722.568 412.231 716.375 407.853 709.596 408.645L689.527 410.981L689.77 412.684C690.639 418.911 696.876 423.32 703.694 422.522Z" fill="#D72846"/>
<path d="M718.214 427.96L716.782 417.711L711.883 418.287L712.687 424.055C713.035 426.528 715.508 428.271 718.214 427.96Z" fill="#D72846"/>
<path d="M716.069 426.193C716.497 429.272 717.909 431.65 720.655 431.331C723.398 431.007 724.573 426.565 724.145 423.485C723.712 420.405 721.844 419.851 719.092 420.17C716.349 420.492 715.636 423.11 716.069 426.193Z" fill="#FAB9AF"/>
<path d="M717.643 420.094L725.345 414.645L737.299 472.055L717.643 473.129V420.094Z" fill="#D72846"/>
<path d="M737.345 473.129C737.345 480.66 730.661 486.766 722.411 486.766C714.162 486.766 707.478 480.66 707.478 473.129C707.478 465.596 714.162 459.489 722.411 459.489C730.661 459.489 737.345 465.596 737.345 473.129Z" fill="#D72846"/>
<path d="M479.969 418.271C477.776 433.964 462.956 438.596 453.341 437.477C443.734 436.355 446.224 420.674 447.165 413.932C448.106 407.188 456.327 404.502 465.942 405.621C475.554 406.743 480.904 411.526 479.969 418.271Z" fill="#FFDC8C"/>
<path d="M463.119 468.972C457.421 470.6 448.322 451.867 448.322 451.867L451.237 429.37L462.069 438.962L464.308 451.903C464.308 451.903 467.59 467.7 463.119 468.972Z" fill="#FA968C"/>
<path d="M477.205 427.437C475.631 438.733 472.463 444.012 466.11 443.273C458.368 442.37 449.677 433.477 450.977 424.17C452.277 414.861 457.536 410.004 465.277 410.908C473.014 411.812 478.506 418.131 477.205 427.437Z" fill="#FAB9AF"/>
<path d="M451.753 420.556L471.36 422.836C473.424 423.082 475.417 422.707 477.134 421.893C476.033 415.677 471.357 411.616 465.277 410.908C458.613 410.13 453.797 413.63 451.753 420.556Z" fill="#FF9669"/>
<path d="M469.027 420.805L449.044 418.477L449.289 416.704C450.153 410.516 456.346 406.133 463.127 406.922L483.194 409.263L482.954 410.967C482.084 417.196 475.848 421.602 469.027 420.805Z" fill="#FFDC8C"/>
<path d="M454.507 426.243L455.942 415.993L460.838 416.564L460.034 422.341C459.688 424.808 457.213 426.553 454.507 426.243Z" fill="#FFDC8C"/>
<path d="M456.654 424.472C456.224 427.558 454.815 429.927 452.069 429.608C449.323 429.286 448.148 424.847 448.579 421.764C449.012 418.685 450.88 418.136 453.629 418.455C456.375 418.771 457.088 421.395 456.654 424.472Z" fill="#FAB9AF"/>
<path d="M212.277 45.533C184.394 0.889106 120.705 -13.4215 73.0423 15.5483C33.1283 39.8054 18.4067 87.9491 38.8248 127.562C51.0054 151.194 72.6759 167.436 97.4194 174.7C117.944 180.726 135.675 192.852 148.908 208.386C149.963 209.625 151.854 209.966 153.347 209.192L226.727 170.974C228.218 170.197 228.857 168.535 228.233 167.075L227.728 165.911C219.778 147.499 218.58 127.403 223.032 108.028C227.762 87.4372 224.591 65.2459 212.277 45.533Z" fill="#FFC305"/>
<path d="M212.277 45.533C196.291 19.9407 168.545 4.32088 138.795 1.10477C123.561 -0.542861 108.17 2.64079 94.8234 9.53344L94.1696 9.87137C44.0916 35.7115 34.1132 85.093 54.535 124.712C66.7156 148.347 93.8032 161.76 118.546 169.024C131.156 172.725 142.695 178.742 152.784 186.432C163.621 194.687 178.957 195.854 191.213 189.467L226.75 170.963C228.233 170.188 228.866 168.546 228.238 167.1L227.546 165.486C219.715 147.353 218.429 127.537 222.926 108.479C227.805 87.7589 224.677 65.3885 212.277 45.533Z" fill="#FFD23C"/>
<path d="M195.219 57.7266C172.922 22.0236 121.284 11.1702 83.8168 36.0315C55.638 54.7279 44.9425 89.3086 58.3051 118.681C67.2791 138.405 84.4667 152.036 104.329 158.202C120.682 163.279 135.147 172.426 145.748 184.874C153.292 196.617 169.775 200.634 182.727 193.887L197.461 186.214C210.37 179.495 214.99 164.565 207.857 152.666L207.282 151.712C201.116 137.423 200.033 121.814 203.551 106.795C207.341 90.6401 204.887 73.2071 195.219 57.7266Z" fill="#FFD95C"/>
<path d="M200.411 67.8195C198.997 64.3871 197.272 61.0108 195.219 57.7267C191.855 52.339 187.821 47.5192 183.271 43.3008L183.279 43.298C184.799 42.5069 185.335 40.683 184.346 39.3663C181.613 35.7186 178.146 32.2977 174.077 29.2399C173.525 28.8262 172.84 28.6212 172.154 28.6212C171.618 28.6212 171.082 28.7434 170.602 28.9952L169.239 29.704C168.187 30.2543 167.667 31.24 167.703 32.2149C166.067 31.3371 164.401 30.5169 162.707 29.7544C162.94 29.6822 163.164 29.5888 163.385 29.4735L163.621 29.3513C166.43 27.8871 166.32 24.1927 163.46 22.815C161.715 21.973 159.898 21.1962 158.016 20.491C150.247 17.5988 142.341 16.2281 134.891 16.2281C128.048 16.2281 121.592 17.3829 115.978 19.5701C114.075 20.3111 113.153 22.2178 113.662 23.9552C104.948 25.5813 96.3795 28.6427 88.347 33.2365C88.5518 32.6969 88.7725 32.1646 89.0129 31.6319C95.5009 17.1165 112.858 8.86438 132.949 8.86438C141.962 8.86438 151.523 10.5226 160.907 14.023C188.971 24.4878 205.576 47.7374 200.411 67.8195Z" fill="#FFD959"/>
<path d="M154.809 95.3285C145.799 95.3285 136.234 93.6697 126.851 90.1674C97.3171 79.1543 80.4722 53.9754 88.347 33.2368C96.3795 28.6427 104.948 25.5815 113.662 23.9554C113.752 24.2576 113.882 24.5527 114.06 24.8366C114.792 26.0095 116.144 26.7108 117.558 26.7108C117.956 26.7108 118.357 26.6571 118.755 26.5382C123.49 25.1354 128.706 24.4013 134.163 24.4013C141.612 24.4013 149.514 25.7684 157.279 28.6642C158.075 28.963 158.854 29.2724 159.627 29.596C160.19 29.8335 160.793 29.9558 161.392 29.9558C161.837 29.9558 162.282 29.8875 162.707 29.7543C164.401 30.5169 166.068 31.3371 167.703 32.2149C167.73 33.0532 168.171 33.884 169.034 34.42C172.989 36.8772 176.495 39.6723 179.47 42.6937C180.084 43.3203 180.935 43.6588 181.794 43.6588C182.298 43.6588 182.806 43.5441 183.271 43.3008C187.821 47.5191 191.855 52.339 195.219 57.7266C197.272 61.0107 198.997 64.3871 200.412 67.8195C199.998 69.4195 199.446 71.0056 198.753 72.561C192.257 87.0764 174.904 95.3285 154.809 95.3285Z" fill="#FFDF74"/>
<path d="M162.707 29.7543C152.205 25.0344 140.607 22.5523 128.864 22.5523C123.798 22.5523 118.708 23.0164 113.662 23.9555C113.154 22.2178 114.075 20.3111 115.978 19.5701C121.592 17.3828 128.049 16.2281 134.891 16.2281C142.341 16.2281 150.247 17.5988 158.016 20.491C159.898 21.1962 161.715 21.9733 163.46 22.815C166.32 24.1927 166.43 27.8874 163.621 29.3515L163.385 29.4738C163.164 29.5888 162.94 29.6825 162.707 29.7543Z" fill="#FFECAE"/>
<path d="M161.391 29.9558C160.793 29.9558 160.19 29.8332 159.627 29.596C158.854 29.2721 158.075 28.9627 157.279 28.6642C149.514 25.7684 141.612 24.4014 134.162 24.4014C128.706 24.4014 123.49 25.1351 118.755 26.5383C118.357 26.6569 117.956 26.7108 117.558 26.7108C116.143 26.7108 114.792 26.0093 114.06 24.8366C113.882 24.5524 113.752 24.2576 113.662 23.9552C118.708 23.0164 123.798 22.5523 128.864 22.5523C140.607 22.5523 152.205 25.0344 162.707 29.7541C162.282 29.8872 161.837 29.9558 161.391 29.9558Z" fill="#FFEFBB"/>
<path d="M183.271 43.3008C178.579 38.9529 173.332 35.2405 167.702 32.2149C167.667 31.24 168.187 30.2545 169.239 29.704L170.602 28.9955C171.082 28.7434 171.618 28.6212 172.154 28.6212C172.839 28.6212 173.525 28.8262 174.076 29.2399C178.146 32.2977 181.612 35.7189 184.346 39.3666C185.335 40.6833 184.799 42.5072 183.279 43.298L183.271 43.3008Z" fill="#FFECAE"/>
<path d="M181.794 43.6588C180.935 43.6588 180.084 43.3203 179.47 42.6937C176.495 39.6723 172.989 36.8772 169.034 34.42C168.171 33.884 167.73 33.0532 167.703 32.2148C173.332 35.2404 178.579 38.9528 183.271 43.3007C182.806 43.5441 182.298 43.6588 181.794 43.6588Z" fill="#FFEFBB"/>
<path d="M182.854 193.982L110.144 116.781L107.158 119.128L179.867 196.327" fill="#D77D14"/>
<path d="M109.218 117.66L108.241 116.099L97.2344 121.833C95.5523 122.706 93.7401 123.117 91.94 123.117C88.217 123.114 84.6087 121.347 82.6349 118.186C81.6776 116.653 81.2245 114.994 81.2245 113.355C81.2285 109.95 83.163 106.655 86.6296 104.851C88.3077 103.978 90.1198 103.567 91.9163 103.567C95.643 103.569 99.2513 105.335 101.225 108.501L107.508 118.552L109.218 117.66L110.928 116.77L104.648 106.716C101.95 102.397 96.998 99.9692 91.9163 99.9692C89.458 99.9692 86.9603 100.537 84.6754 101.726C79.9442 104.19 77.2811 108.714 77.2851 113.355C77.2851 115.598 77.9076 117.883 79.2116 119.97C81.91 124.289 86.858 126.717 91.94 126.715C94.402 126.715 96.9033 126.147 99.1843 124.955L111.905 118.334L110.928 116.77L109.218 117.66Z" fill="#D77D14"/>
<path d="M202.909 184.326L167.159 87.8765L163.428 89.0318L199.178 185.481" fill="#D77D14"/>
<path d="M164.728 88.7463L165.701 90.3128L176.712 84.5783C181.447 82.1138 184.106 77.5961 184.102 72.9525C184.102 70.7062 183.48 68.4236 182.176 66.3368C179.477 62.0149 174.53 59.5868 169.448 59.5896C166.99 59.5896 164.488 60.1603 162.203 61.3491C157.472 63.8136 154.813 68.3313 154.817 72.9721C154.813 75.2183 155.439 77.501 156.743 79.5878L163.992 91.2024L165.701 90.3128L164.728 88.7463L166.438 87.8596L160.162 77.8031C159.205 76.273 158.756 74.6141 158.752 72.9721C158.756 69.5733 160.694 66.2753 164.157 64.4738C165.835 63.5982 167.647 63.187 169.448 63.187C173.17 63.1926 176.779 64.9577 178.756 68.1215C179.714 69.6517 180.163 71.3105 180.163 72.9525C180.159 76.3541 178.225 79.6494 174.762 81.4508L163.751 87.1854L164.728 88.7463Z" fill="#D77D14"/>
<path d="M110.195 119.223L164.5 90.9395L162.546 87.8148L108.241 116.099" fill="#D77D14"/>
<path d="M241.658 227.69C245.564 233.948 241.803 247.666 230.58 253.513C219.356 259.356 204.922 255.118 201.014 248.861C197.102 242.6 203.031 232.787 214.255 226.941C225.481 221.094 237.748 221.43 241.658 227.69Z" fill="#3C5A73"/>
<path d="M236.086 174.572C238.293 178.099 236.944 182.592 233.078 184.609L162.963 221.125C159.099 223.139 154.178 221.908 151.972 218.375C149.77 214.848 151.117 210.353 154.978 208.338L225.09 171.822C228.957 169.808 233.882 171.039 236.086 174.572Z" fill="#C8E6EB"/>
<path d="M241.065 197.392L170.952 233.909C167.084 235.92 162.164 234.695 159.957 231.162C157.752 227.634 159.099 223.139 162.963 221.125L233.078 184.608C236.944 182.592 241.866 183.822 244.067 187.353C246.277 190.886 244.931 195.381 241.065 197.392Z" fill="#C8E6EB"/>
<path d="M249.046 210.176L178.934 246.69C175.069 248.71 170.149 247.479 167.943 243.949C165.741 240.418 167.084 235.92 170.952 233.909L241.065 197.392C244.931 195.381 249.85 196.609 252.057 200.137C254.259 203.667 252.913 208.162 249.046 210.176Z" fill="#C8E6EB"/>
<path d="M252.975 221.796L187.888 255.695C184.772 257.32 180.801 256.329 179.024 253.479C177.244 250.634 178.331 247.006 181.447 245.386L246.534 211.482C249.653 209.86 253.62 210.853 255.402 213.704C257.179 216.549 256.092 220.171 252.975 221.796Z" fill="#C8E6EB"/>
<path d="M183.941 193.258L168.585 201.256C164.72 203.267 163.373 207.759 165.579 211.292C167.781 214.823 172.706 216.051 176.574 214.037L191.926 206.045C195.79 204.03 197.138 199.532 194.935 196.005C192.726 192.472 187.805 191.241 183.941 193.258Z" fill="#E4F2F6"/>
<path d="M191.926 206.045L176.574 214.037C172.706 216.051 171.358 220.549 173.564 224.073C175.766 227.606 180.691 228.837 184.555 226.823L199.907 218.826C203.775 216.814 205.123 212.319 202.917 208.786C200.715 205.259 195.79 204.03 191.926 206.045Z" fill="#E4F2F6"/>
<path d="M199.907 218.826L184.555 226.823C180.691 228.837 179.343 233.333 181.546 236.863C183.751 240.393 188.676 241.621 192.54 239.607L207.896 231.609C211.761 229.595 213.108 225.103 210.902 221.573C208.7 218.045 203.775 216.814 199.907 218.826Z" fill="#E4F2F6"/>
<path d="M176.905 196.92L170.878 200.061C169.365 200.85 169.92 204.352 172.126 207.882C174.329 211.413 177.35 213.634 178.867 212.842L184.89 209.706C186.407 208.915 185.847 205.415 183.645 201.882C181.439 198.352 178.418 196.134 176.905 196.92Z" fill="white"/>
<path d="M184.89 209.706L178.867 212.842C177.35 213.634 177.905 217.139 180.112 220.666C182.317 224.199 185.331 226.42 186.852 225.629L192.871 222.49C194.392 221.698 193.832 218.199 191.626 214.666C189.42 211.138 186.407 208.915 184.89 209.706Z" fill="white"/>
<path d="M192.871 222.49L186.852 225.629C185.331 226.42 185.891 229.92 188.093 233.453C190.303 236.98 193.32 239.201 194.833 238.413L200.86 235.277C202.373 234.485 201.818 230.98 199.612 227.455C197.409 223.922 194.392 221.698 192.871 222.49Z" fill="white"/>
<path d="M214.668 228.085L196.606 237.492C193.49 239.115 192.403 242.74 194.179 245.588C195.956 248.433 199.927 249.426 203.043 247.803L221.11 238.393C224.226 236.771 225.313 233.142 223.531 230.297C221.754 227.453 217.785 226.457 214.668 228.085Z" fill="#E4F2F6"/>
<path d="M203.965 233.657L198.615 236.446C197.693 236.927 198.386 239.621 200.163 242.472C201.94 245.316 204.134 247.235 205.056 246.751L210.402 243.968C211.327 243.487 210.634 240.788 208.857 237.943C207.081 235.098 204.886 233.179 203.965 233.657Z" fill="white"/>
</svg>
