<svg width="1323" height="772" viewBox="0 0 1323 772" fill="none" xmlns="http://www.w3.org/2000/svg">
<g clip-path="url(#clip0_3_228)">
<g clip-path="url(#clip1_3_228)">
<path d="M953.905 333.715L952.577 332.494C927.901 309.788 924.06 276.396 943.224 250.313C980.696 199.331 989.03 149.585 959.127 126.291C933.436 106.278 885.792 110.676 835.188 133.793C799.112 150.274 754.072 146.487 724.221 123.001C713.526 114.583 701.894 108.016 689.9 103.651C675.896 98.5549 662.205 92.9294 648.763 86.8855C608.597 68.83 554.602 71.0833 510.578 96.1479C470.88 118.745 449.281 154.203 449.922 188.394C450.303 208.835 438.34 228.107 417.299 238.873C416.385 239.342 415.478 239.815 414.578 240.291C394.418 250.982 370.609 255.448 346.654 255.259C340.264 255.209 334.348 256.53 329.342 259.379C319.97 264.714 315.524 274.418 315.864 285.894C316.514 307.845 306.202 328.878 287.383 344.392C273.356 355.956 262.808 370.433 257.37 387.112C239.951 440.537 281.524 496.237 350.228 511.516C388.238 519.972 426.586 514.285 456.217 498.47C481.027 485.225 509.824 478.225 539.352 477.522L539.893 477.508C550.741 477.232 561.354 476.357 571.675 474.941C585.457 473.051 597.068 483.377 593.434 494.519L593.425 494.544C589.757 601.932 633.191 690.07 690.432 691.403C747.674 692.738 797.052 606.76 800.721 499.373C801.268 483.076 823.671 474.255 839.644 483.837C895.973 517.624 957.708 525.963 992.09 500.538C1035.82 468.197 1018.72 393.51 953.905 333.715Z" fill="#9ACCB7"/>
<mask id="mask0_3_228" style="mask-type:luminance" maskUnits="userSpaceOnUse" x="812" y="626" width="114" height="25">
<path d="M847.589 650.963C834.869 650.963 822.858 650.484 812.259 649.639C816.392 642.712 820.251 635.218 823.8 627.22C831.297 626.844 839.293 626.64 847.589 626.64C890.528 626.64 925.335 632.085 925.335 638.8C925.335 645.519 890.528 650.963 847.589 650.963Z" fill="white"/>
</mask>
<g mask="url(#mask0_3_228)">
<path d="M812.259 650.963H925.335V626.64H812.259V650.963Z" fill="#9ACCB7"/>
</g>
<path d="M812.259 649.639C787.08 647.624 769.843 643.528 769.843 638.803C769.843 633.384 792.498 628.792 823.8 627.22C820.251 635.218 816.392 642.712 812.259 649.639Z" fill="#72C0A6"/>
<path d="M373.696 309.292L301.557 321.731L293.436 289.604C289.631 274.562 301.314 259.82 319.53 256.677C341.156 252.947 362.35 264.406 366.866 282.267L373.696 309.292Z" fill="#A5BEC0"/>
<path d="M631.825 236.574C627.311 218.711 606.116 207.256 584.491 210.984L319.53 256.677C340.729 253.023 361.311 264.735 364.731 282.395C370.405 311.697 375.701 347.512 375.027 367.567C372.574 440.445 390.861 512.785 428.419 578.763C441.443 601.645 471.783 614.148 501.751 608.98L716.603 571.927L694.704 533.565C657.059 467.617 638.676 395.297 641.031 322.414L641.06 321.496C641.985 292.989 638.884 264.49 631.825 236.574Z" fill="#F5F6F5"/>
<path d="M519.814 506.111L541.388 552.159L543.939 601.539L716.562 571.771C748.467 566.268 768.933 540.445 762.269 514.095C755.608 487.742 724.344 470.84 692.439 476.343L519.814 506.111Z" fill="#CCEBED"/>
<path d="M528.504 504.564C512.079 507.396 501.717 520.992 505.965 534.563C509.94 547.275 525.828 554.841 541.388 552.159L598.372 542.332C591.708 515.968 560.427 499.055 528.504 504.564Z" fill="#A5BEC0"/>
<path d="M598.372 542.333C605.06 568.783 584.517 594.706 552.493 600.229L512.847 607.065L500.74 559.171L598.372 542.333Z" fill="#F5F6F5"/>
<path d="M599.247 366.388L598.094 366.586C599.431 371.883 600.075 377.149 600.075 382.312C600.066 414.142 575.718 441.998 539.896 448.173C535.049 449.006 530.204 449.411 525.409 449.411C489.028 449.419 455.508 426.149 447.039 392.638C445.7 387.341 445.057 382.075 445.057 376.909C445.064 345.078 469.413 317.226 505.235 311.054C510.084 310.217 514.93 309.816 519.722 309.816C556.103 309.807 589.622 333.077 598.094 366.586L599.247 366.388L600.4 366.187C591.72 331.859 557.349 307.878 519.722 307.87C514.77 307.87 509.761 308.285 504.752 309.149C467.7 315.547 442.694 344.281 442.701 376.909C442.701 382.206 443.361 387.608 444.732 393.036C453.411 427.37 487.785 451.348 525.409 451.356C530.362 451.356 535.37 450.941 540.379 450.077C577.429 443.679 602.436 414.94 602.43 382.312C602.43 377.015 601.772 371.615 600.4 366.187L599.247 366.388Z" fill="#282448"/>
<path d="M569.273 474.461C565.122 472.797 561.076 470.865 557.147 468.682C557.273 468.682 557.399 468.685 557.522 468.685L557.934 468.688L558.259 468.479C558.273 468.468 558.706 468.189 559.473 467.629C562.992 469.535 566.608 471.236 570.303 472.711L569.273 474.461ZM557.115 466.734C555.977 466.728 554.836 466.709 553.692 466.678C546.417 462.282 539.58 457.015 533.267 451.005C534.203 450.921 535.145 450.821 536.087 450.707C542.69 456.851 549.848 462.17 557.449 466.502C557.358 466.566 557.279 466.625 557.206 466.675L557.115 466.734ZM531.406 449.199C515.886 433.813 503.694 413.869 496.174 391.394C496.942 391.26 497.71 391.124 498.476 390.982C506.083 413.674 518.511 433.704 534.238 448.95C533.293 449.051 532.348 449.132 531.406 449.199Z" fill="#8A859F"/>
<path d="M533.267 451.005C532.641 450.411 532.021 449.809 531.406 449.199C532.348 449.132 533.293 449.051 534.238 448.95C534.85 449.544 535.464 450.13 536.087 450.707C535.145 450.821 534.203 450.921 533.267 451.005Z" fill="#282448"/>
<path d="M495.557 389.512C494.52 386.284 493.58 383.006 492.739 379.677C488.55 363.095 486.571 346.163 486.571 329.221C486.571 324.962 486.698 320.705 486.943 316.45C487.74 316.108 488.548 315.776 489.363 315.455C489.076 320.041 488.927 324.63 488.927 329.221C488.927 346.037 490.892 362.836 495.045 379.281C495.884 382.602 496.822 385.877 497.859 389.1C497.091 389.242 496.327 389.379 495.557 389.512ZM487.085 314.209C487.639 306.072 488.633 297.954 490.044 289.9L492.376 290.176C491.036 297.828 490.072 305.531 489.511 313.256C488.694 313.562 487.886 313.88 487.085 314.209Z" fill="#8A859F"/>
<path d="M486.943 316.451C486.986 315.703 487.033 314.956 487.085 314.209C487.886 313.88 488.694 313.562 489.512 313.256C489.458 313.989 489.408 314.722 489.363 315.455C488.548 315.776 487.74 316.108 486.943 316.451Z" fill="#282448"/>
<path d="M455.143 394.968C452.641 394.968 450.137 394.926 447.637 394.848C447.448 394.196 447.269 393.541 447.1 392.883C449.779 392.975 452.459 393.022 455.143 393.022C455.15 393.022 455.153 393.022 455.16 393.022C468.708 393.022 482.272 391.826 495.557 389.512C495.76 390.14 495.967 390.77 496.174 391.394C482.682 393.75 468.911 394.965 455.143 394.968Z" fill="#8A859F"/>
<path d="M447.635 394.848L447.619 394.845C447.44 394.196 447.269 393.544 447.1 392.883C447.269 393.541 447.447 394.196 447.635 394.848Z" fill="#282448"/>
<path d="M445.18 394.753C434.413 394.291 423.693 393.067 413.153 391.046L413.686 389.15C423.88 391.104 434.25 392.303 444.668 392.782C444.69 392.866 444.711 392.95 444.732 393.036C444.878 393.61 445.027 394.185 445.18 394.753Z" fill="#8A859F"/>
<path d="M444.732 393.035C444.711 392.949 444.69 392.866 444.668 392.782C445.077 392.799 445.485 392.819 445.893 392.835L444.732 393.035Z" fill="#282448"/>
<path d="M498.476 390.982C498.266 390.357 498.061 389.73 497.859 389.1C532.442 382.733 565.063 368.799 590.728 348.722C591.088 349.332 591.439 349.951 591.781 350.573C565.903 370.653 533.17 384.578 498.476 390.982ZM593.583 349.154C593.235 348.532 592.875 347.919 592.51 347.308C597.46 343.33 602.137 339.121 606.508 334.685L608.333 335.918C603.738 340.576 598.805 344.994 593.583 349.154Z" fill="#8A859F"/>
<path d="M591.781 350.573C591.439 349.951 591.088 349.332 590.728 348.722C591.325 348.253 591.919 347.782 592.51 347.308C592.875 347.919 593.235 348.532 593.583 349.154C592.987 349.631 592.387 350.104 591.781 350.573Z" fill="#282448"/>
<path d="M496.174 391.394C495.967 390.77 495.76 390.14 495.557 389.512C496.327 389.379 497.091 389.242 497.859 389.1C498.061 389.73 498.266 390.357 498.476 390.982C497.71 391.124 496.942 391.26 496.174 391.394Z" fill="#544E76"/>
<path d="M557.147 468.682C534.513 468.504 510.267 464.562 489.731 453.21C469.474 442.02 452.917 423.604 445.18 394.753H445.192C447.738 403.836 452.094 412.16 457.829 419.467C466.346 433.972 477.904 444.323 491.041 451.593C510.025 462.095 532.389 466.14 553.692 466.678C554.833 467.366 555.986 468.036 557.147 468.682Z" fill="#8A859F"/>
<path d="M457.829 419.467C452.094 412.16 447.738 403.836 445.192 394.753C446 394.79 446.81 394.82 447.621 394.845C450.165 404.145 453.628 412.314 457.829 419.467Z" fill="#282448"/>
<path d="M559.473 467.629C558.794 467.261 558.121 466.887 557.449 466.502C557.7 466.327 558.019 466.095 558.399 465.811C559.435 465.033 560.933 463.857 562.749 462.259C566.38 459.065 571.295 454.197 576.379 447.523C582.686 439.238 589.257 428.173 593.961 414.067C597.047 408.648 599.349 402.835 600.765 396.763C592.788 441.125 565.567 463.188 559.473 467.629ZM598.451 396.401C599.118 392.682 599.645 388.804 600.013 384.765H600.025C599.867 388.726 599.335 392.612 598.451 396.401Z" fill="#8A859F"/>
<path d="M593.961 414.067C595.777 408.637 597.313 402.749 598.451 396.401C599.335 392.612 599.867 388.726 600.025 384.765L602.363 384.913C601.988 389.027 601.447 392.975 600.765 396.763C599.346 402.835 597.047 408.648 593.961 414.067Z" fill="#282448"/>
<path d="M447.101 392.881C446.698 392.865 446.294 392.848 445.891 392.834L447.04 392.637C447.052 392.679 447.061 392.721 447.073 392.765C447.083 392.804 447.092 392.843 447.101 392.881Z" fill="#282448"/>
<path d="M557.931 468.688L557.522 468.685C557.399 468.685 557.273 468.682 557.147 468.682C555.986 468.036 554.833 467.366 553.692 466.678C554.836 466.709 555.977 466.728 557.115 466.734L557.206 466.675C557.279 466.625 557.358 466.566 557.448 466.502C558.121 466.887 558.794 467.26 559.473 467.628C558.706 468.189 558.273 468.468 558.259 468.479L557.931 468.688Z" fill="#544E76"/>
<path d="M445.19 394.753H445.178C445.026 394.185 444.878 393.61 444.732 393.036C444.878 393.61 445.03 394.185 445.19 394.753Z" fill="#544E76"/>
<path d="M447.621 394.845C446.81 394.82 446 394.79 445.192 394.753C445.031 394.185 444.878 393.61 444.732 393.036L445.891 392.835C446.294 392.849 446.697 392.866 447.1 392.883C447.269 393.544 447.441 394.196 447.621 394.845Z" fill="#282448"/>
<path d="M752.946 296.906L689.37 266.099L738.605 196.787L802.178 227.594L752.946 296.906Z" fill="#26203C"/>
<path d="M928.773 200.358C896.122 246.323 828.267 264.686 770.019 245.776C768.647 245.323 767.277 244.871 765.911 244.338C761.093 242.679 756.357 240.682 751.741 238.444C747.967 236.615 744.377 234.663 740.917 232.607C739.708 231.852 738.538 231.116 737.394 230.349C687.121 197.898 672.459 138.917 705.63 92.2283C741.768 41.3459 821.056 24.2884 882.659 54.1401C944.266 83.9915 964.913 149.478 928.773 200.358Z" fill="#EAEAEA"/>
<path d="M915.632 193.991C883.739 238.89 813.815 253.935 759.449 227.592C705.086 201.249 686.872 143.496 718.768 98.595C750.664 53.6943 820.587 38.6507 874.951 64.992C929.314 91.335 947.527 149.088 915.632 193.991Z" fill="#F6BF19"/>
<path d="M835.194 208.287C822.583 226.041 791.702 230.419 766.216 218.071C740.726 205.721 730.288 181.318 742.9 163.565C755.508 145.813 786.392 141.433 811.879 153.784C837.365 166.134 847.803 190.535 835.194 208.287Z" fill="#F39F11"/>
<path d="M880.415 168.041C875.15 175.455 863.6 177.94 854.625 173.589C845.644 169.238 842.639 159.701 847.905 152.287C853.174 144.872 864.718 142.389 873.696 146.738C882.674 151.089 885.678 160.625 880.415 168.041Z" fill="#F39F11"/>
<path d="M868.711 197.885C866.423 201.107 861.403 202.187 857.503 200.296C853.601 198.406 852.293 194.261 854.584 191.039C856.871 187.817 861.889 186.739 865.791 188.628C869.691 190.518 870.998 194.662 868.711 197.885Z" fill="#F39F11"/>
<path d="M872.353 65.7684C872.827 79.6852 852.922 91.4382 827.898 92.02C802.874 92.6018 782.203 81.7905 781.726 67.8737C781.252 53.9549 801.154 42.202 826.184 41.6202C851.208 41.0403 871.879 51.8496 872.353 65.7684Z" fill="#F5F6F5"/>
<path d="M767.33 68.6364C772.634 74.7991 768.679 84.6413 758.495 90.6188C748.318 96.5967 735.762 96.4486 730.458 90.2843C725.154 84.1217 729.11 74.2814 739.29 68.3019C749.473 62.3241 762.026 62.4741 767.33 68.6364Z" fill="#F5F6F5"/>
<path d="M809.822 210.815L798.688 205.419L804.46 197.289C807.637 192.816 814.658 191.306 820.111 193.948L821.371 194.559C826.789 197.184 828.618 202.983 825.438 207.456C822.261 211.93 815.24 213.44 809.822 210.815ZM766.265 189.706L755.163 184.328C749.707 181.685 747.879 175.887 751.056 171.413C754.236 166.94 761.254 165.428 766.71 168.072L767.971 168.681C773.383 171.306 775.214 177.105 772.037 181.578L766.265 189.706ZM823.609 191.407L822.351 190.798C814.795 187.139 805.077 189.204 800.648 195.441L794.87 203.569L770.077 191.555L775.849 183.427C780.281 177.189 777.762 169.191 770.209 165.531L768.951 164.922C761.394 161.261 751.673 163.326 747.241 169.565C742.812 175.801 745.375 183.82 752.925 187.478L764.024 192.859L737.394 230.349C738.538 231.116 739.708 231.852 740.916 232.607L767.839 194.705L792.632 206.721L765.911 244.338C767.277 244.871 768.649 245.323 770.019 245.776L796.447 208.569L807.587 213.965C815.137 217.625 824.821 215.541 829.253 209.305C833.685 203.067 831.163 195.067 823.609 191.407Z" fill="#26203C"/>
<path d="M775.524 269.029L707.815 236.22C704.919 234.817 703.948 231.739 705.648 229.347C707.35 226.954 711.074 226.152 713.97 227.555L781.679 260.364C784.575 261.769 785.544 264.846 783.847 267.237C782.144 269.63 778.42 270.432 775.524 269.029Z" fill="#2B2548"/>
<path d="M757.998 286.479L697.924 257.368C695.028 255.965 694.057 252.887 695.757 250.495C697.456 248.102 701.183 247.302 704.08 248.705L764.15 277.812C767.049 279.217 768.018 282.295 766.321 284.687C764.621 287.079 760.894 287.881 757.998 286.479Z" fill="#2B2548"/>
<path d="M683.935 394.056L620.36 363.249L689.37 266.099L752.946 296.906L683.935 394.056Z" fill="#3A73C2"/>
<path d="M663.987 384.389L640.314 372.917L709.322 275.766L732.994 287.238L663.987 384.389Z" fill="#5DBDE4"/>
<path d="M620.36 363.249L623.949 411.973C624.151 414.731 627.676 416.439 630.689 415.241L683.935 394.056L620.36 363.249Z" fill="#E1DBC2"/>
<path d="M630.689 415.241L646.548 408.932L622.879 397.46L623.949 411.973C624.151 414.731 627.676 416.439 630.689 415.241Z" fill="#26203C"/>
<path d="M470.092 486.471L425.593 494.221L424.285 489.086L468.782 481.336L470.092 486.471Z" fill="#F39F11"/>
<path d="M451.532 504.801L429.284 508.673L427.972 503.538L450.222 499.666L451.532 504.801Z" fill="#F39F11"/>
<path d="M489.092 498.258L458.479 503.591L457.171 498.456L487.782 493.125L489.092 498.258Z" fill="#F39F11"/>
<path d="M518.756 493.092L492.567 497.653L491.255 492.521L517.446 487.96L518.756 493.092Z" fill="#F39F11"/>
<path d="M462.171 518.042L432.974 523.127L431.661 517.995L460.861 512.91L462.171 518.042Z" fill="#F39F11"/>
<path d="M498.921 511.642L469.724 516.727L468.412 511.594L497.611 506.51L498.921 511.642Z" fill="#F39F11"/>
<path d="M502.604 480.809L477.039 485.261L475.732 480.129L501.294 475.677L502.604 480.809Z" fill="#F39F11"/>
<path d="M515.029 478.498L507.042 479.889L505.69 474.592L513.679 473.201L515.029 478.498Z" fill="#F39F11"/>
<path d="M843.011 616.323C843.011 620.042 839.36 623.058 834.858 623.058C830.353 623.058 826.702 620.042 826.702 616.323C826.702 612.604 830.353 609.587 834.858 609.587C839.36 609.587 843.011 612.604 843.011 616.323Z" fill="#64CAC0"/>
<path d="M792.732 553.899L805.952 636.57C833.19 642.854 861.991 642.854 889.227 636.57L902.447 553.899H792.732Z" fill="#364652"/>
<path d="M788.256 549.974V565.131H906.923V549.974H788.256Z" fill="#486172"/>
<path d="M833.465 613.652C814.125 613.652 798.392 600.658 798.392 584.684V557.133C798.392 556.399 799.112 555.806 800.001 555.806C800.888 555.806 801.61 556.399 801.61 557.133V584.684C801.61 599.192 815.898 610.998 833.465 610.998C851.029 610.998 865.323 599.192 865.323 584.684V557.133C865.323 556.399 866.04 555.806 866.929 555.806C867.816 555.806 868.538 556.399 868.538 557.133V584.684C868.538 600.658 852.805 613.652 833.465 613.652Z" fill="#26203C"/>
<path d="M802.985 549.974V561.429C802.985 563.238 803.933 564.961 805.586 566.148L809.377 568.875C812.253 570.946 813.903 573.94 813.903 577.09V585.066C813.903 586.357 815.17 587.402 816.732 587.402C818.291 587.402 819.555 586.357 819.555 585.066V567.088C819.555 566.006 820.617 565.131 821.927 565.131C823.238 565.131 824.3 566.006 824.3 567.088V590.968C824.3 591.949 825.262 592.744 826.45 592.744C827.638 592.744 828.6 591.949 828.6 590.968V576.031C828.6 572.995 831.578 570.536 835.25 570.536C838.924 570.536 841.899 572.995 841.899 576.031V615.185C841.899 616.442 843.134 617.46 844.652 617.46C846.176 617.46 847.408 616.442 847.408 615.185V570.896C847.408 568.443 848.707 566.112 850.962 564.515L857.073 560.191C859.08 558.769 862.131 559.067 863.685 560.838L864.2 561.429C865.554 562.97 867.28 564.264 869.272 565.223C871.595 566.343 873.023 568.395 873.023 570.62V584.012C873.023 585.15 874.137 586.064 875.509 586.064C876.881 586.064 877.993 585.15 877.993 584.012V569.53C877.993 565.842 879.772 562.301 882.928 559.692L886.073 557.094C886.541 556.709 887.173 556.494 887.831 556.494C889.203 556.494 890.318 557.414 890.318 558.549V562.959C890.318 563.386 890.739 563.734 891.26 563.734C891.775 563.734 892.193 563.386 892.193 562.959V549.974H802.985Z" fill="#3A73C2"/>
<path d="M836.651 600.377C836.651 603.217 835.223 605.517 833.465 605.517C831.707 605.517 830.282 603.217 830.282 600.377C830.282 597.536 831.707 595.233 833.465 595.233C835.223 595.233 836.651 597.536 836.651 600.377Z" fill="#3A73C2"/>
<path d="M826.702 608.023C826.702 609.406 825.806 610.529 824.704 610.529C823.595 610.529 822.7 609.406 822.7 608.023C822.7 606.641 823.595 605.517 824.704 605.517C825.806 605.517 826.702 606.641 826.702 608.023Z" fill="#F8A42C"/>
<path d="M869.74 593.75C869.74 596.791 869.053 599.259 868.205 599.259C867.356 599.259 866.669 596.791 866.669 593.75C866.669 590.703 867.356 588.236 868.205 588.236C869.053 588.236 869.74 590.703 869.74 593.75Z" fill="#F8A42C"/>
<path d="M862.614 605.517C862.614 607.385 862.093 608.899 861.45 608.899C860.809 608.899 860.288 607.385 860.288 605.517C860.288 603.65 860.809 602.136 861.45 602.136C862.093 602.136 862.614 603.65 862.614 605.517Z" fill="#5DBDE4"/>
<path d="M894.873 579.596C894.873 581.185 894.273 582.476 893.533 582.476C892.793 582.476 892.193 581.185 892.193 579.596C892.193 578.005 892.793 576.714 893.533 576.714C894.273 576.714 894.873 578.005 894.873 579.596Z" fill="#5DBDE4"/>
<path d="M804.811 573.081C804.811 575.091 803.518 576.714 801.929 576.714C800.338 576.714 799.048 575.091 799.048 573.081C799.048 571.077 800.338 569.452 801.929 569.452C803.518 569.452 804.811 571.077 804.811 573.081Z" fill="#F8A42C"/>
<path d="M816.331 579.304C816.331 580.734 815.585 581.891 814.664 581.891C813.742 581.891 812.996 580.734 812.996 579.304C812.996 577.874 813.742 576.714 814.664 576.714C815.585 576.714 816.331 577.874 816.331 579.304Z" fill="#F6BF19"/>
<path d="M862.614 587.659C862.614 589.276 861.637 590.586 860.435 590.586C859.232 590.586 858.255 589.276 858.255 587.659C858.255 586.042 859.232 584.731 860.435 584.731C861.637 584.731 862.614 586.042 862.614 587.659Z" fill="#5DBDE4"/>
<path d="M822.7 549.974L824.031 557.771C824.432 560.116 826.585 561.995 829.402 562.454C832.57 562.97 834.858 565.27 834.858 567.938V581.974C834.858 582.939 835.803 583.717 836.967 583.717C838.131 583.717 839.073 582.939 839.073 581.974V565.482C839.073 562.811 841.276 560.484 844.415 559.837C846.281 559.452 847.589 558.069 847.589 556.48V549.974H822.7Z" fill="#F6BF19"/>
<path d="M833.465 549.974L836.078 554.183C837.312 556.174 840.003 557.247 842.66 556.804C843.815 556.614 845.015 556.703 846.109 557.069L847.887 557.66C850.968 558.68 852.984 561.147 852.984 563.887V577.45C852.984 578.635 854.151 579.596 855.581 579.596C857.015 579.596 858.182 578.635 858.182 577.45V562.153C858.182 559.38 860.244 556.89 863.378 555.889C865.516 555.209 867.862 555.112 870.074 555.608C873.441 556.366 877.036 555.491 879.371 553.352L883.045 549.974H833.465Z" fill="#5DBDE4"/>
<path d="M811.633 549.974V557.779C811.633 559.458 812.551 561.049 814.134 562.1C815.714 563.157 816.635 564.743 816.635 566.422V574.963C816.635 575.928 817.586 576.714 818.759 576.714C819.929 576.714 820.883 575.928 820.883 574.963V562.165C820.883 559.421 823.042 556.993 826.216 556.176C827.43 555.864 828.384 555.078 828.755 554.069L830.282 549.974H811.633Z" fill="#F39F11"/>
<path d="M573.307 746.977C571.751 756.296 568.758 764.838 564.824 772H513.723C511.061 762.951 510.425 751.803 512.404 739.991C517.067 712.186 534.478 691.208 551.299 693.134C568.123 695.06 577.97 719.169 573.307 746.977Z" fill="#9ACCB7"/>
<path d="M322.569 646.065C284.78 672.343 245.281 684.946 234.347 674.219C223.41 663.489 245.177 633.49 282.964 607.212C320.753 580.937 360.253 568.334 371.189 579.061C382.123 589.789 360.356 619.788 322.569 646.065Z" fill="#9ACCB7"/>
<path d="M459.824 663.408C451.364 678.44 437.132 687.79 428.031 684.297C418.932 680.806 418.414 665.789 426.872 650.757C435.332 635.728 449.564 626.375 458.663 629.868C467.764 633.361 468.28 648.379 459.824 663.408Z" fill="#90D9C1"/>
<path d="M1028.84 25.4617C1004.61 45.862 992.169 68.2319 1001.05 75.4297C1009.94 82.6274 1036.78 71.9252 1061.01 51.5265C1085.24 31.1281 1097.68 8.75649 1088.79 1.56068C1079.91 -5.63706 1053.07 5.06326 1028.84 25.4617Z" fill="#90D9C1"/>
<path d="M1002.12 68.6755C992.313 79.8291 978.897 85.5909 972.145 81.5436C965.39 77.496 967.862 65.173 977.659 54.0194C987.462 42.8655 1000.88 37.1018 1007.63 41.1494C1014.39 45.1966 1011.92 57.52 1002.12 68.6755Z" fill="#7ED0B3"/>
</g>
</g>
<defs>
<clipPath id="clip0_3_228">
<rect width="1323" height="772" fill="white"/>
</clipPath>
<clipPath id="clip1_3_228">
<rect width="863" height="775" fill="white" transform="translate(230 -3)"/>
</clipPath>
</defs>
</svg>
