<svg width="1097" height="746" viewBox="0 0 1097 746" fill="none" xmlns="http://www.w3.org/2000/svg">
<path d="M913.532 634.882C913.532 696.249 860.79 746 795.723 746C730.661 746 677.91 696.249 677.91 634.882C677.91 573.515 730.661 523.764 795.723 523.764C860.79 523.764 913.532 573.515 913.532 634.882Z" fill="#4A2991"/>
<path d="M847.952 335.686C847.952 373.244 812.103 403.691 767.883 403.691C723.654 403.691 685.811 528.957 687.805 335.686C688.195 298.129 723.654 267.681 767.883 267.681C812.103 267.681 847.952 298.125 847.952 335.686Z" fill="#F57B14"/>
<path d="M934.854 510.519C934.854 548.076 899.005 578.524 854.78 578.524C810.556 578.524 774.707 548.076 774.707 510.519C774.707 472.962 810.556 442.514 854.78 442.514C899.005 442.514 934.854 472.962 934.854 510.519Z" fill="#6C5EB5"/>
<path d="M1014.92 524.411C1014.92 561.968 979.074 592.416 934.854 592.416C890.625 592.416 854.78 561.968 854.78 524.411C854.78 486.85 890.625 456.402 934.854 456.402C979.074 456.402 1014.92 486.85 1014.92 524.411Z" fill="#6C5EB5"/>
<path d="M966.546 558.002C966.546 617.819 904.098 666.312 827.067 666.312C750.031 666.312 687.499 617.819 687.579 558.002C687.866 354.495 750.031 449.696 827.067 449.696C904.098 449.696 966.546 498.185 966.546 558.002Z" fill="#6C5EB5"/>
<path d="M931.355 372.532C931.355 407.162 898.304 435.233 857.536 435.233C816.763 435.233 783.713 407.162 783.713 372.532C783.713 337.907 816.763 309.832 857.536 309.832C898.304 309.832 931.355 337.907 931.355 372.532Z" fill="#5B77C4"/>
<path d="M839.177 412.362C839.177 446.992 806.126 475.063 765.353 475.063C724.585 475.063 691.53 446.992 691.53 412.362C691.53 377.733 724.585 349.666 765.353 349.666C806.126 349.666 839.177 377.733 839.177 412.362Z" fill="#5B77C4"/>
<path d="M833.453 475.035C833.453 509.664 800.403 537.735 759.63 537.735C718.862 537.735 685.811 509.664 685.811 475.035C685.811 440.405 718.862 412.334 759.63 412.334C800.403 412.334 833.453 440.405 833.453 475.035Z" fill="#5B77C4"/>
<path d="M970.882 427.52C970.882 462.15 937.831 490.221 897.058 490.221C856.29 490.221 823.239 462.15 823.239 427.52C823.239 392.895 856.29 364.824 897.058 364.824C937.831 364.824 970.882 392.895 970.882 427.52Z" fill="#5B77C4"/>
<path d="M998.035 235.604L1025.48 221.428L1065.81 250.262L1057.32 206.438L915.051 116.05L998.035 235.604Z" fill="#FBC394"/>
<path d="M1065.81 250.262L1025.48 221.428L998.035 235.604L915.051 116.05L1057.32 206.438L1065.81 250.262Z" fill="#F9A970"/>
<path d="M915.051 116.05L1097 180.812L1057.32 206.438L915.051 116.05Z" fill="#FBC394"/>
<path d="M915.051 116.05L1025.48 221.428L993.196 262.72L915.051 116.05Z" fill="#FBC394"/>
<path d="M277.236 290.152C277.236 297.37 267.756 303.221 256.06 303.221C244.364 303.221 234.888 297.37 234.888 290.152C234.888 282.935 244.364 277.083 256.06 277.083C267.756 277.083 277.236 282.935 277.236 290.152Z" fill="#4A2991"/>
<path d="M256.06 303.221C244.364 303.221 234.888 297.37 234.888 290.152C234.888 289.693 234.935 289.246 235.015 288.802H236.106C238.758 294.146 246.772 298.037 256.295 298.037C265.823 298.037 273.841 294.142 276.493 288.802H277.086C277.175 289.246 277.236 289.693 277.236 290.152C277.236 297.37 267.756 303.221 256.06 303.221Z" fill="#342A77"/>
<path d="M339.637 169.768C339.637 213.133 301.912 248.289 258.289 248.289C214.671 248.289 176.541 213.133 176.541 169.768C176.541 126.399 214.671 91.2423 258.289 91.2423C301.912 91.2423 339.637 126.399 339.637 169.768Z" fill="#F9AA0C"/>
<path d="M289.327 264.861H225.831L192.864 216.12C185.73 203.443 198.188 188.78 214.732 188.78H314.806C326.324 188.78 333.331 200.843 327.998 209.514L289.327 264.861Z" fill="#F9AA0C"/>
<path d="M209.507 189.279C207.466 188.908 205.486 188.337 203.596 187.558C184.818 179.829 179.485 153.647 193.161 129.678C195.836 124.985 199.044 120.723 202.613 116.965C201.574 118.315 200.614 119.749 199.749 121.267C191.895 135.034 194.962 150.073 205.745 154.514C207.875 155.389 210.194 155.808 212.611 155.808C222.426 155.808 233.778 148.91 240.08 137.862C247.933 124.094 244.971 109.092 234.183 104.655C232.048 103.776 229.715 103.357 227.284 103.357C223.804 103.357 220.126 104.215 216.547 105.817C224.542 101.096 233.115 98.4958 241.096 98.4958C245.328 98.4958 249.391 99.2228 253.111 100.757C271.894 108.481 277.053 134.599 263.377 158.568C254.287 174.513 239.149 185.493 224.504 188.78H214.732C212.936 188.78 211.186 188.956 209.507 189.279Z" fill="#FAB50A"/>
<path d="M215.555 189.811C213.495 189.811 211.473 189.639 209.507 189.279C211.186 188.956 212.936 188.78 214.732 188.78H224.504C221.481 189.459 218.48 189.811 215.555 189.811Z" fill="#FAB50A"/>
<path d="M202.613 116.965C206.465 111.956 211.407 108.122 216.547 105.817C211.581 108.753 206.846 112.503 202.613 116.965Z" fill="#F9D606"/>
<path d="M212.611 155.808C210.194 155.808 207.876 155.389 205.745 154.514C194.962 150.072 191.896 135.034 199.749 121.266C200.615 119.749 201.574 118.315 202.613 116.965C206.846 112.503 211.581 108.753 216.548 105.817C220.126 104.215 223.804 103.357 227.284 103.357C229.715 103.357 232.048 103.776 234.183 104.655C244.971 109.092 247.934 124.094 240.08 137.862C233.778 148.91 222.426 155.808 212.611 155.808Z" fill="#F9DC05"/>
<path d="M289.327 264.861H225.831L197.703 223.274C197.703 223.274 197.703 223.274 197.708 223.278L225.831 264.861H289.327L321.955 218.157C321.959 218.153 321.964 218.145 321.969 218.141L289.327 264.861Z" fill="#EBC36B"/>
<path d="M321.955 218.157L327.998 209.514C331.101 204.469 330.029 198.278 326.319 193.981C331.365 185.948 335.597 176.514 339.547 166.457C339.594 167.555 339.637 168.658 339.637 169.768C339.637 169.828 339.637 169.896 339.637 169.956C339.637 169.972 339.637 169.98 339.637 169.992C339.637 170.055 339.637 170.115 339.637 170.175C339.637 170.187 339.637 170.199 339.637 170.211C339.637 170.343 339.637 170.475 339.632 170.607C339.632 170.611 339.632 170.619 339.632 170.623C339.632 170.691 339.632 170.758 339.632 170.826V170.83C339.378 188.572 332.799 204.877 322.124 217.918L321.969 218.141C321.964 218.145 321.959 218.153 321.955 218.157Z" fill="#F68D11"/>
<path d="M289.327 264.861H225.831L197.708 223.278C212.4 229.549 228.036 232.612 243.569 232.612C267.356 232.612 290.902 225.431 310.442 211.607C316.636 207.225 321.804 201.162 326.319 193.981C330.029 198.278 331.102 204.469 327.998 209.514L321.955 218.157L289.327 264.861Z" fill="#F68D11"/>
<path d="M288.556 276.832H224.984C221.095 276.832 217.939 274.152 217.939 270.844C217.939 267.541 221.095 264.861 224.984 264.861H288.556C292.45 264.861 295.605 267.541 295.605 270.844C295.605 274.152 292.45 276.832 288.556 276.832Z" fill="#4A2991"/>
<path d="M281.614 288.802H230.98C227.086 288.802 223.931 286.122 223.931 282.815C223.931 279.512 227.086 276.832 230.98 276.832H281.614C285.508 276.832 288.664 279.512 288.664 282.815C288.664 286.122 285.508 288.802 281.614 288.802Z" fill="#4A2991"/>
<path d="M288.556 276.832H224.984C221.095 276.832 217.939 274.152 217.939 270.844C217.939 270.836 217.939 270.824 217.939 270.813C217.944 270.161 218.099 269.546 218.33 268.959C219.265 271.336 221.875 273.057 224.984 273.057H288.556C291.669 273.057 294.279 271.336 295.215 268.959C295.445 269.546 295.6 270.161 295.605 270.813C295.605 270.824 295.605 270.836 295.605 270.844C295.605 274.152 292.45 276.832 288.556 276.832Z" fill="#342A77"/>
<path d="M281.614 288.802H230.98C227.086 288.802 223.931 286.122 223.931 282.815C223.931 282.807 223.931 282.799 223.931 282.787C223.935 282.212 224.067 281.665 224.246 281.138C225.106 283.622 227.777 285.447 230.98 285.447H281.614C284.822 285.447 287.488 283.622 288.349 281.138C288.528 281.665 288.659 282.212 288.664 282.787C288.664 282.799 288.664 282.807 288.664 282.815C288.664 286.122 285.508 288.802 281.614 288.802Z" fill="#342A77"/>
<path d="M226.353 174.844L247.125 271.148C247.322 272.059 248.352 272.662 249.424 272.494C250.496 272.326 251.207 271.456 251.009 270.545L230.237 174.237C230.044 173.327 229.014 172.723 227.942 172.891C226.87 173.059 226.16 173.93 226.353 174.844Z" fill="#4A2991"/>
<path d="M283.03 173.83L271.029 271.204C270.916 272.127 271.701 272.949 272.787 273.049C273.869 273.145 274.843 272.474 274.955 271.556L286.962 174.178C287.074 173.259 286.284 172.432 285.203 172.336C284.116 172.24 283.148 172.907 283.03 173.83Z" fill="#4A2991"/>
<path d="M213.547 196.653L226.733 186.116C227.707 185.337 228.953 184.95 230.204 184.946C231.366 184.95 232.527 185.281 233.473 185.964L244.129 193.601C245.446 194.544 247.063 195.011 248.672 195.011C250.506 195.011 252.335 194.404 253.708 193.214L256.003 191.217C257.01 190.346 258.312 189.923 259.624 189.923C261.186 189.923 262.724 190.522 263.73 191.696C265.117 193.322 267.276 194.164 269.434 194.164C271.203 194.164 272.999 193.593 274.377 192.439L281.356 186.592C282.348 185.761 283.627 185.353 284.916 185.349C286.237 185.353 287.545 185.781 288.542 186.647L300.035 196.629L301.427 196.641L301.446 195.455L289.952 185.473C288.575 184.279 286.74 183.672 284.916 183.676C283.133 183.672 281.337 184.251 279.969 185.397L272.99 191.245C271.988 192.084 270.714 192.483 269.434 192.487C267.868 192.483 266.331 191.884 265.324 190.71C263.937 189.084 261.778 188.245 259.624 188.245C257.814 188.245 255.98 188.84 254.593 190.047L252.298 192.04C251.31 192.898 249.998 193.334 248.672 193.334C247.51 193.334 246.353 192.998 245.403 192.319L234.747 184.682C233.435 183.74 231.817 183.268 230.204 183.272C228.469 183.268 226.729 183.816 225.379 184.898L212.193 195.431L212.15 196.617L213.547 196.653Z" fill="#4A2991"/>
<path d="M687.866 354.495L689.841 354.503C689.987 333.481 701.673 313.375 722.191 301.788C734.061 295.081 748.296 291.175 763.632 291.175C794.623 291.175 821.208 307.136 832.663 329.903L833.406 331.384L835.184 330.809C841.175 328.86 847.642 327.75 854.423 327.75C857.456 327.75 860.551 327.973 863.697 328.441C887.013 331.904 905.438 348.428 907.992 368.395C908.213 370.124 908.321 371.833 908.321 373.523C908.321 378.248 907.479 382.797 905.918 387.083L905.255 388.901L907.46 389.228C934.84 393.318 955.678 413.577 955.673 438.009C955.673 450.623 950.091 462.086 940.958 470.841L939.444 472.295L941.353 473.357C963.324 485.588 977.851 506.633 977.851 530.594C977.856 562.308 952.414 588.905 917.943 596.662L915.46 597.221L916.734 599.114C920.158 604.219 922.133 610.094 922.138 616.385C922.133 626.047 917.529 634.778 910.075 641.113C902.621 647.444 892.341 651.354 880.965 651.354V653.032L881.031 651.354L880.899 651.35L878.957 651.294L878.858 652.94C876.239 695.793 834.497 729.863 783.388 729.859C756.982 729.859 733.092 720.777 715.786 706.078C698.48 691.38 687.786 671.089 687.781 648.662C687.781 645.526 689.451 409.634 689.841 354.503L687.866 354.495L685.891 354.483C685.5 409.626 683.836 645.487 683.836 648.662C683.836 695.362 728.408 733.215 783.388 733.215C836.609 733.211 880.072 697.742 882.804 653.115L880.829 653.028L880.763 654.701L880.895 654.705L880.928 654.709H880.965C905.885 654.705 926.083 637.55 926.083 616.385C926.083 609.491 923.911 603.036 920.162 597.453L918.446 598.283L918.954 599.905C955.118 591.769 981.797 563.865 981.801 530.594C981.801 505.459 966.55 483.367 943.516 470.554L942.435 471.955L943.911 473.066C953.651 463.735 959.623 451.473 959.623 438.009C959.619 411.919 937.389 390.295 908.142 385.925L907.804 387.578L909.689 388.074C911.364 383.476 912.271 378.588 912.271 373.523C912.271 371.714 912.154 369.88 911.919 368.031C909.139 346.534 889.444 328.88 864.379 325.138C861.007 324.634 857.682 324.395 854.423 324.395C847.134 324.395 840.183 325.593 833.773 327.678L834.479 329.244L836.294 328.585C824.241 304.619 796.25 287.824 763.632 287.82C747.501 287.82 732.495 291.934 720.004 298.996C698.296 311.27 686.046 332.431 685.891 354.483L687.866 354.495Z" fill="#26285E"/>
<path d="M912.215 373.631C912.215 346.69 886.5 324.854 854.78 324.85C823.056 324.854 797.346 346.69 797.341 373.631H801.291C801.291 361.081 807.278 349.738 816.956 341.51C826.644 333.286 840.004 328.205 854.78 328.205C869.556 328.205 882.917 333.286 892.6 341.51C902.283 349.738 908.265 361.081 908.265 373.631H912.215Z" fill="#26285E"/>
<path d="M815.677 530.818C815.677 569.761 852.847 601.331 898.704 601.331C944.56 601.331 981.726 569.761 981.726 530.818H977.781C977.776 549.367 968.93 566.146 954.62 578.308C940.304 590.463 920.548 597.976 898.704 597.98C876.86 597.976 857.103 590.463 842.788 578.308C828.473 566.146 819.627 549.367 819.627 530.818H815.677Z" fill="#26285E"/>
<path d="M776.672 567.085C776.672 557.467 781.258 548.78 788.674 542.473C796.095 536.174 806.328 532.284 817.652 532.28C828.976 532.284 839.205 536.174 846.631 542.473C854.047 548.78 858.627 557.467 858.632 567.085H862.578C862.578 546.008 842.469 528.929 817.652 528.929C792.84 528.929 772.722 546.008 772.722 567.085H776.672Z" fill="#26285E"/>
<path d="M740.395 385.657C748.273 375.512 761.323 370.016 774.636 370.012C782.386 370.016 790.207 371.873 797.162 375.772C809.112 382.462 815.578 393.546 815.583 404.857C815.583 411.436 813.392 418.082 808.806 423.985L812.103 425.835C817.125 419.368 819.533 412.067 819.533 404.857C819.533 392.467 812.427 380.305 799.34 372.972C791.726 368.706 783.129 366.657 774.636 366.661C760.053 366.657 745.733 372.692 737.099 383.812L740.395 385.657Z" fill="#26285E"/>
<path d="M912.492 527.287C894.429 525.849 880.885 512.936 880.885 497.838C880.885 496.911 880.937 495.976 881.04 495.038C882.738 479.692 897.937 468.193 915.718 468.193C916.809 468.193 917.91 468.237 919.02 468.325L919.391 464.986C918.159 464.886 916.932 464.838 915.718 464.838C895.91 464.838 879.004 477.639 877.109 494.722C876.991 495.769 876.935 496.807 876.935 497.838C876.939 514.661 892.012 529.016 912.121 530.626L912.492 527.287Z" fill="#26285E"/>
<path d="M851.865 445.39C869.326 447.247 882.103 459.893 882.103 474.46C882.103 475.678 882.014 476.912 881.831 478.158C879.634 492.993 864.746 503.841 847.595 503.841C846.156 503.841 844.707 503.765 843.245 503.609L842.751 506.936C844.378 507.112 845.996 507.196 847.595 507.196C866.725 507.196 883.293 495.11 885.748 478.578C885.95 477.192 886.049 475.818 886.049 474.46C886.049 458.215 871.818 444.14 852.354 442.063L851.865 445.39Z" fill="#26285E"/>
<path d="M794.9 463.959C787.07 470.921 776.602 474.42 766.096 474.424C756.211 474.42 746.326 471.32 738.608 465.066C730.411 458.419 726.292 449.524 726.287 440.605C726.292 432.205 729.941 423.81 737.31 417.255L734.451 414.939C726.362 422.132 722.337 431.383 722.337 440.605C722.337 450.399 726.88 460.193 735.881 467.494C744.35 474.36 755.242 477.779 766.096 477.779C777.627 477.779 789.158 473.921 797.755 466.276L794.9 463.959Z" fill="#26285E"/>
<path d="M739.483 536.154C731.206 529.5 727.04 520.561 727.035 511.586C727.04 503.238 730.647 494.89 737.936 488.348C745.771 481.318 756.295 477.779 766.858 477.775C776.686 477.779 786.515 480.842 794.223 487.033L796.936 484.601C788.481 477.799 777.651 474.42 766.858 474.424C755.261 474.42 743.668 478.322 735.067 486.043C727.063 493.224 723.085 502.419 723.089 511.586C723.085 521.435 727.679 531.281 736.77 538.59L739.483 536.154Z" fill="#26285E"/>
<path d="M783.661 599.306C786.623 604.235 788.025 609.479 788.025 614.656C788.02 626.962 780.091 638.824 766.303 644.8C760.5 647.316 754.325 648.506 748.235 648.506C733.746 648.502 719.778 641.772 712.738 630.057L709.221 631.583C716.957 644.452 732.316 651.861 748.235 651.861C754.931 651.861 761.732 650.547 768.099 647.787C783.251 641.217 791.975 628.176 791.975 614.656C791.975 608.968 790.428 603.188 787.178 597.78L783.661 599.306Z" fill="#26285E"/>
<path d="M725.963 678.271C730.003 662.434 746.509 651.609 764.836 651.609C767.629 651.609 770.46 651.861 773.305 652.384C791.956 655.811 804.696 669.827 804.696 685.392C804.696 687.765 804.4 690.177 803.784 692.594L807.645 693.305C808.322 690.653 808.646 688.004 808.646 685.392C808.646 668.269 794.642 652.88 774.142 649.105C771.02 648.53 767.907 648.254 764.836 648.254C744.675 648.254 726.551 660.153 722.102 677.56L725.963 678.271Z" fill="#26285E"/>
<path d="M845.601 667.566C839.755 670.131 833.519 671.341 827.373 671.341C812.945 671.341 799.029 664.663 791.961 653.028C788.942 648.063 787.517 642.767 787.517 637.546C787.522 625.292 795.38 613.473 809.084 607.47L807.273 604.486C792.215 611.089 783.567 624.086 783.567 637.546C783.567 643.286 785.142 649.117 788.453 654.565C796.222 667.351 811.525 674.696 827.373 674.696C834.131 674.696 840.997 673.362 847.411 670.55L845.601 667.566Z" fill="#26285E"/>
<path d="M813.076 276.48C813.076 276.48 846.964 173.359 877.255 206.247C903.924 235.208 826.935 238.3 813.076 276.48Z" fill="#F57B14"/>
<path d="M948.497 353.181C948.497 353.181 1026.66 316.067 1022.3 345.496C1018.46 371.41 978.091 340 948.497 353.181Z" fill="#5B77C4"/>
<path d="M932.404 342.292C932.404 342.292 991.672 282.587 958.005 286.326C928.373 289.613 953.872 319.701 932.404 342.292Z" fill="#5B77C4"/>
<path d="M997.231 583.389C997.231 583.389 1043.5 600.971 1043 576.747C1042.56 555.318 1008.05 584.22 997.231 583.389Z" fill="#6C5EB5"/>
<path d="M423.031 634.882C423.031 696.249 475.772 746 540.839 746C605.906 746 658.652 696.249 658.652 634.882C658.652 573.515 605.906 523.764 540.839 523.764C475.772 523.764 423.031 573.515 423.031 634.882Z" fill="#F57B14"/>
<path d="M488.61 335.686C488.61 373.244 524.459 403.691 568.684 403.691C612.909 403.691 650.752 528.957 648.758 335.686C648.367 298.129 612.909 267.681 568.684 267.681C524.459 267.681 488.61 298.125 488.61 335.686Z" fill="#6C5EB5"/>
<path d="M370.017 558.002C370.017 617.819 432.464 666.312 509.495 666.312C586.531 666.312 649.063 617.819 648.979 558.002C648.697 354.495 586.531 449.696 509.495 449.696C432.464 449.696 370.017 498.185 370.017 558.002Z" fill="#F57B14"/>
<path d="M401.713 524.247C401.713 569.381 444.8 605.98 497.945 605.98C551.091 605.98 594.178 569.381 594.178 524.247C594.178 479.105 551.091 442.514 497.945 442.514C444.8 442.514 401.713 479.105 401.713 524.247Z" fill="#6C5EB5"/>
<path d="M321.64 524.411C321.64 561.968 357.489 592.416 401.713 592.416C445.938 592.416 481.787 561.968 481.787 524.411C481.787 486.85 445.938 456.402 401.713 456.402C357.489 456.402 321.64 486.85 321.64 524.411Z" fill="#5B77C4"/>
<path d="M405.207 372.532C405.207 407.162 438.258 435.233 479.026 435.233C519.799 435.233 552.85 407.162 552.85 372.532C552.85 337.907 519.799 309.832 479.026 309.832C438.258 309.832 405.207 337.907 405.207 372.532Z" fill="#5B77C4"/>
<path d="M497.386 412.362C497.386 446.992 530.437 475.063 571.21 475.063C611.978 475.063 645.033 446.992 645.033 412.362C645.033 377.733 611.978 349.666 571.21 349.666C530.437 349.666 497.386 377.733 497.386 412.362Z" fill="#5B77C4"/>
<path d="M503.109 475.035C503.109 509.664 536.16 537.735 576.933 537.735C617.701 537.735 650.752 509.664 650.752 475.035C650.752 440.405 617.701 412.334 576.933 412.334C536.16 412.334 503.109 440.405 503.109 475.035Z" fill="#5B77C4"/>
<path d="M333.49 452.931C333.49 497.886 376.398 534.333 429.328 534.333C482.262 534.333 525.17 497.886 525.17 452.931C525.17 407.973 482.262 371.53 429.328 371.53C376.398 371.53 333.49 407.973 333.49 452.931Z" fill="#5B77C4"/>
<path d="M648.697 354.495L650.672 354.483C650.517 332.431 638.271 311.27 616.558 298.996C604.068 291.934 589.061 287.82 572.931 287.82C540.312 287.824 512.317 304.619 500.273 328.585L502.089 329.244L502.794 327.678C496.379 325.593 489.429 324.395 482.135 324.395C478.881 324.395 475.556 324.634 472.179 325.138C447.118 328.88 427.423 346.534 424.649 368.031C424.409 369.884 424.291 371.722 424.291 373.539C424.291 378.596 425.199 383.48 426.873 388.074L428.759 387.578L428.42 385.925C399.174 390.295 376.944 411.919 376.939 438.009C376.939 451.473 382.912 463.735 392.651 473.066L394.128 471.955L393.046 470.554C370.017 483.367 354.761 505.459 354.761 530.594C354.766 563.869 381.449 591.769 417.608 599.905L418.116 598.283L416.4 597.453C412.652 603.036 410.479 609.491 410.479 616.385C410.479 637.55 430.677 654.705 455.597 654.709H455.635L455.804 654.701L455.738 653.028L453.763 653.115C456.491 697.742 499.954 733.211 553.174 733.215C608.154 733.215 652.727 695.362 652.727 648.662C652.727 645.487 651.062 409.626 650.672 354.483L648.697 354.495L646.722 354.503C647.112 409.634 648.781 645.526 648.781 648.662C648.777 671.089 638.083 691.38 620.776 706.078C603.47 720.777 579.58 729.859 553.174 729.859C502.065 729.863 460.324 695.793 457.709 652.94L457.61 651.294L455.531 651.354L455.597 653.032V651.354C444.221 651.354 433.941 647.444 426.487 641.113C419.033 634.778 414.43 626.047 414.425 616.385C414.43 610.094 416.405 604.219 419.828 599.114L421.103 597.221L418.62 596.662C384.153 588.905 358.707 562.308 358.711 530.594C358.711 506.633 373.243 485.584 395.209 473.357L397.119 472.295L395.604 470.841C386.472 462.086 380.89 450.623 380.89 438.009C380.885 413.577 401.718 393.318 429.102 389.228L431.308 388.901L430.645 387.083C429.083 382.801 428.241 378.256 428.241 373.539C428.241 371.845 428.35 370.128 428.575 368.395C431.124 348.428 449.55 331.904 472.866 328.441C476.012 327.973 479.106 327.75 482.135 327.75C488.921 327.75 495.387 328.86 501.383 330.809L503.161 331.384L503.904 329.903C515.355 307.136 541.94 291.175 572.931 291.175C588.266 291.175 602.502 295.081 614.371 301.788C634.894 313.375 646.576 333.481 646.722 354.503L648.697 354.495Z" fill="#26285E"/>
<path d="M428.302 373.631C428.302 361.081 434.284 349.738 443.967 341.51C453.65 333.286 467.006 328.205 481.787 328.205C496.558 328.205 509.919 333.286 519.606 341.51C529.285 349.738 535.271 361.081 535.271 373.631H539.221C539.217 346.69 513.502 324.854 481.787 324.85C450.062 324.854 424.352 346.69 424.352 373.631H428.302Z" fill="#26285E"/>
<path d="M516.935 530.818C516.935 549.367 508.089 566.146 493.774 578.308C479.459 590.463 459.703 597.976 437.858 597.98C416.014 597.976 396.258 590.463 381.943 578.308C367.632 566.146 358.786 549.367 358.782 530.818H354.836C354.836 569.761 392.002 601.331 437.858 601.331C483.715 601.331 520.885 569.761 520.885 530.818H516.935Z" fill="#26285E"/>
<path d="M563.84 567.085C563.84 546.008 543.722 528.929 518.91 528.929C494.094 528.929 473.985 546.008 473.985 567.085H477.931C477.935 557.467 482.516 548.78 489.932 542.473C497.358 536.174 507.586 532.284 518.91 532.28C530.234 532.284 540.463 536.174 547.889 542.473C555.305 548.78 559.89 557.467 559.89 567.085H563.84Z" fill="#26285E"/>
<path d="M599.468 383.812C590.829 372.692 576.509 366.657 561.922 366.661C553.433 366.657 544.836 368.706 537.223 372.972C524.13 380.305 517.029 392.467 517.029 404.857C517.029 412.067 519.437 419.368 524.46 425.835L527.756 423.985C523.171 418.082 520.979 411.436 520.979 404.857C520.984 393.546 527.45 382.462 539.395 375.772C546.356 371.873 554.176 370.016 561.922 370.012C575.24 370.016 588.29 375.512 596.172 385.657L599.468 383.812Z" fill="#26285E"/>
<path d="M424.446 530.626C444.546 529.016 459.623 514.665 459.623 497.846C459.623 496.811 459.566 495.769 459.454 494.722C457.558 477.639 440.652 464.838 420.844 464.838C419.631 464.838 418.403 464.886 417.171 464.986L417.543 468.325C418.653 468.237 419.753 468.193 420.844 468.193C438.625 468.193 453.824 479.692 455.522 495.034C455.626 495.98 455.677 496.915 455.677 497.846C455.677 512.94 442.133 525.849 424.075 527.287L424.446 530.626Z" fill="#26285E"/>
<path d="M484.209 442.063C464.744 444.14 450.514 458.219 450.514 474.464C450.514 475.822 450.612 477.196 450.815 478.578C453.269 495.11 469.842 507.196 488.968 507.196C490.567 507.196 492.185 507.112 493.812 506.936L493.318 503.609C491.855 503.765 490.407 503.841 488.968 503.841C471.817 503.841 456.928 492.993 454.732 478.158C454.549 476.916 454.459 475.682 454.459 474.464C454.459 459.897 467.232 447.247 484.698 445.39L484.209 442.063Z" fill="#26285E"/>
<path d="M538.808 466.276C547.4 473.921 558.935 477.779 570.466 477.779C581.32 477.779 592.212 474.36 600.682 467.494C609.683 460.193 614.226 450.399 614.226 440.601C614.226 431.383 610.2 422.132 602.116 414.943L599.257 417.255C606.621 423.81 610.271 432.205 610.275 440.601C610.271 449.524 606.151 458.419 597.954 465.066C590.237 471.32 580.356 474.42 570.466 474.424C559.961 474.42 549.492 470.921 541.662 463.959L538.808 466.276Z" fill="#26285E"/>
<path d="M599.793 538.59C608.883 531.281 613.478 521.435 613.473 511.586C613.473 502.419 609.499 493.224 601.495 486.043C592.894 478.322 581.302 474.42 569.705 474.424C558.912 474.42 548.081 477.799 539.626 484.601L542.339 487.033C550.043 480.842 559.876 477.779 569.705 477.775C580.267 477.779 590.792 481.318 598.627 488.348C605.916 494.89 609.523 503.238 609.523 511.586C609.523 520.561 605.356 529.5 597.079 536.154L599.793 538.59Z" fill="#26285E"/>
<path d="M549.384 597.78C546.135 603.188 544.587 608.968 544.587 614.656C544.587 628.176 553.311 641.217 568.463 647.787C574.831 650.547 581.631 651.861 588.328 651.861C604.246 651.861 619.606 644.452 627.342 631.583L623.824 630.057C616.784 641.772 602.817 648.502 588.328 648.506C582.238 648.506 576.063 647.316 570.26 644.8C556.467 638.824 548.542 626.962 548.538 614.656C548.538 609.479 549.939 604.235 552.902 599.306L549.384 597.78Z" fill="#26285E"/>
<path d="M614.461 677.56C610.017 660.153 591.888 648.254 571.727 648.254C568.656 648.254 565.538 648.53 562.42 649.105C541.921 652.88 527.916 668.273 527.916 685.396C527.916 688.004 528.241 690.653 528.918 693.305L532.779 692.594C532.163 690.177 531.867 687.769 531.867 685.396C531.867 669.831 544.606 655.811 563.257 652.384C566.098 651.861 568.934 651.609 571.727 651.609C590.054 651.609 606.565 662.434 610.6 678.271L614.461 677.56Z" fill="#26285E"/>
<path d="M489.151 670.55C495.566 673.362 502.432 674.696 509.19 674.696C525.038 674.696 540.341 667.351 548.109 654.565C551.42 649.117 552.996 643.286 552.996 637.546C552.996 624.086 544.347 611.089 529.294 604.486L527.483 607.47C541.182 613.473 549.041 625.292 549.045 637.546C549.045 642.767 547.62 648.063 544.601 653.028C537.533 664.663 523.618 671.341 509.19 671.341C503.038 671.341 496.807 670.131 490.962 667.566L489.151 670.55Z" fill="#26285E"/>
<path d="M394.095 653.827C394.095 653.827 274.415 687.454 314.529 711.594C349.851 732.851 349.851 667.391 394.095 653.827Z" fill="#F57B14"/>
<path d="M489.029 273.129C489.029 273.129 455.136 170.003 424.846 202.895C398.177 231.853 475.17 234.945 489.029 273.129Z" fill="#6C5EB5"/>
<path d="M388.066 353.181C388.066 353.181 309.906 316.067 314.266 345.496C318.098 371.41 358.472 340 388.066 353.181Z" fill="#5B77C4"/>
<path d="M376.695 644.799C376.695 644.799 330.42 662.382 330.928 638.157C331.37 616.728 365.874 645.63 376.695 644.799Z" fill="#F57B14"/>
<path d="M45.7202 565.287C34.1561 565.287 24.7788 557.327 24.7788 547.505C24.7788 537.68 34.1561 529.719 45.7202 529.719C57.2842 529.719 66.6568 537.68 66.6568 547.505C66.6568 557.327 57.2842 565.287 45.7202 565.287ZM187.334 417.519C134.071 390.594 77.7506 397.46 60.5244 412.949C26.9656 443.113 75.7378 486.454 90.9558 496.144C106.174 505.838 90.3351 532.191 60.5244 519.841C46.7501 514.134 12.3965 503.737 2.18683 526.959C-12.387 560.107 49.2002 608.992 89.6908 625.715C149.326 650.347 247.364 629.937 272.303 565.076C298.375 497.254 240.597 444.447 187.334 417.519Z" fill="#FBC394"/>
<path d="M145.052 635.829C138.684 635.829 132.368 635.481 126.198 634.782L126.193 634.774C128.724 635.058 131.277 635.285 133.85 635.453L129.189 625.12C134.4 625.611 139.704 625.855 145.052 625.855C197.558 625.859 254.193 602.198 272.303 555.102C272.327 555.034 272.35 554.974 272.378 554.907C272.378 554.899 272.388 554.887 272.388 554.879C272.411 554.823 272.43 554.767 272.454 554.711C272.454 554.703 272.463 554.687 272.463 554.679C272.486 554.623 272.505 554.567 272.529 554.511C272.529 554.503 272.533 554.495 272.538 554.487C272.562 554.427 272.581 554.375 272.599 554.315C272.604 554.303 272.609 554.299 272.613 554.287C272.637 554.228 272.651 554.18 272.675 554.12C272.679 554.108 272.679 554.104 272.684 554.092C272.707 554.036 272.726 553.976 272.75 553.92C272.75 553.912 272.754 553.904 272.759 553.896C272.778 553.836 272.802 553.78 272.82 553.72C272.825 553.712 272.825 553.712 272.83 553.704C272.853 553.644 272.872 553.585 272.896 553.525C272.896 553.517 272.9 553.513 272.9 553.505C272.924 553.445 272.947 553.381 272.971 553.321V553.313C272.994 553.249 273.018 553.185 273.041 553.121C276.329 544.034 278.116 535.219 278.619 526.712C278.713 528.353 278.765 530.007 278.765 531.672C278.765 542.333 276.756 553.485 272.303 565.076C254.193 612.175 197.558 635.833 145.052 635.829ZM105.436 630.96C99.9616 629.53 94.6851 627.78 89.6908 625.715C53.3527 610.709 0.018811 569.793 0 537.604C0 535.95 0.136453 534.325 0.428023 532.723C5.34239 562.843 51.6033 598.727 85.7781 614.056C85.7781 614.056 85.7781 614.056 85.7828 614.056C85.8157 614.072 85.8534 614.088 85.8863 614.104C85.891 614.108 85.9004 614.112 85.9051 614.112C85.9333 614.124 85.9615 614.14 85.9897 614.152C86.0085 614.16 86.0274 614.164 86.0415 614.176C86.065 614.184 86.0838 614.192 86.1026 614.2C86.1261 614.212 86.1497 614.22 86.1732 614.232C86.1873 614.236 86.2013 614.244 86.2154 614.252C86.2484 614.264 86.2718 614.276 86.3001 614.288C86.3142 614.292 86.3236 614.3 86.333 614.304C87.4664 614.807 88.5857 615.287 89.6908 615.742C92.9686 617.096 96.3687 618.314 99.8628 619.397L105.436 630.96ZM25.6112 542.517C25.0704 540.935 24.7788 539.261 24.7788 537.532C24.7788 527.706 34.1561 519.746 45.7202 519.746C48.0104 519.746 50.2207 520.057 52.2805 520.637L58.4129 533.354C54.8905 531.073 50.4935 529.719 45.7202 529.719C36.1924 529.719 28.1507 535.119 25.6112 542.517ZM95.7667 501.448C94.8262 499.431 93.2414 497.602 90.9558 496.144C84.024 491.731 70.1273 480.331 60.2187 466.376C60.5949 465.353 60.576 464.223 60.0776 463.152C59.3862 461.675 57.9379 460.644 56.259 460.261C51.8995 452.815 48.9886 444.871 48.9791 437.014C48.9744 435.365 49.1015 433.719 49.3695 432.082C52.953 455.895 80.2524 479.357 90.9558 486.171C96.7543 489.865 98.0429 495.98 95.7667 501.448Z" fill="#F79254"/>
<path d="M45.7202 555.314C34.1561 555.314 24.7788 547.353 24.7788 537.532C24.7788 527.706 34.1561 519.746 45.7202 519.746C57.2842 519.746 66.6568 527.706 66.6568 537.532C66.6568 547.353 57.2842 555.314 45.7202 555.314ZM187.334 407.545C134.071 380.62 77.7506 387.486 60.5244 402.976C26.9656 433.14 75.7378 476.481 90.9558 486.171C106.174 495.864 90.3351 522.218 60.5244 509.868C46.7501 504.16 12.3965 493.763 2.18683 516.986C-12.387 550.133 49.2002 599.018 89.6908 615.742C149.326 640.374 247.364 619.96 272.303 555.102C298.375 487.281 240.597 434.474 187.334 407.545Z" fill="#FBC394"/>
<path d="M133.85 635.453C131.277 635.285 128.724 635.058 126.194 634.774L121.42 624.198C123.983 624.565 126.575 624.873 129.189 625.12L133.85 635.453Z" fill="#F46C36"/>
<path d="M75.4274 513.099C74.0636 513.099 72.6433 513.008 71.1666 512.816V512.808C72.6339 513 74.0447 513.091 75.4085 513.091C76.4949 513.091 77.5483 513.031 78.5688 512.924V512.932C77.5577 513.043 76.509 513.099 75.4274 513.099Z" fill="#EDAF8E"/>
<path d="M96.2323 568.371L71.1666 512.816C72.6433 513.008 74.0636 513.1 75.4274 513.1C76.509 513.1 77.5577 513.044 78.5688 512.932L101.659 564.101C99.6465 565.276 97.8171 566.706 96.2323 568.371Z" fill="#F79254"/>
<path d="M278.619 526.711V526.703C279.136 517.864 278.262 509.341 276.244 501.177C278.266 509.345 279.136 517.864 278.619 526.711ZM276.239 501.157C276.23 501.113 276.216 501.065 276.206 501.017C276.216 501.065 276.23 501.109 276.239 501.157ZM276.197 500.977C276.188 500.937 276.174 500.901 276.164 500.861C276.174 500.897 276.188 500.941 276.197 500.977ZM276.15 500.797C276.145 500.769 276.136 500.733 276.127 500.705C276.136 500.737 276.141 500.769 276.15 500.797ZM276.061 500.446C276.056 500.434 276.056 500.422 276.051 500.414C276.056 500.422 276.056 500.438 276.061 500.446Z" fill="#EFD8DA"/>
<path d="M272.303 555.102C272.326 555.038 272.35 554.974 272.378 554.906C272.35 554.974 272.326 555.034 272.303 555.102ZM272.388 554.878C272.411 554.819 272.43 554.767 272.453 554.711C272.43 554.767 272.411 554.823 272.388 554.878ZM272.463 554.679C272.486 554.623 272.505 554.571 272.529 554.511C272.505 554.567 272.486 554.623 272.463 554.679ZM272.538 554.487C272.557 554.431 272.58 554.371 272.599 554.315C272.58 554.375 272.562 554.427 272.538 554.487ZM272.613 554.287C272.632 554.231 272.656 554.172 272.674 554.12C272.651 554.18 272.637 554.227 272.613 554.287ZM272.684 554.092C272.707 554.036 272.731 553.976 272.75 553.92C272.726 553.976 272.707 554.036 272.684 554.092ZM272.759 553.896C272.778 553.84 272.802 553.78 272.82 553.72C272.802 553.78 272.778 553.836 272.759 553.896ZM272.83 553.704C272.849 553.644 272.872 553.584 272.896 553.524C272.872 553.584 272.853 553.644 272.83 553.704ZM272.9 553.504C272.924 553.441 272.947 553.385 272.971 553.321C272.947 553.381 272.924 553.445 272.9 553.504ZM273.041 553.121C276.333 544.03 278.12 535.219 278.619 526.704V526.712C278.116 535.219 276.329 544.034 273.041 553.121Z" fill="#F6864A"/>
<path d="M145.052 625.855C139.705 625.855 134.4 625.611 129.189 625.12L119.628 603.935C127.346 603.088 134.522 599.302 138.712 593.143C139.831 591.493 140.673 589.768 141.247 588.014C150.399 585.801 159.338 582.846 167.808 579.155C168.067 580.477 168.471 581.771 169.007 583.029C168.772 582.914 168.542 582.794 168.311 582.674C169.769 585.925 172.111 588.805 175.088 591.106C176.63 592.404 178.399 593.558 180.369 594.525C184.442 596.522 188.886 597.472 193.269 597.472C202.199 597.472 210.885 593.534 215.668 586.496C222.073 577.074 219.322 565.299 209.761 558.605C208.614 557.722 207.372 556.927 206.056 556.228C206.093 556.32 206.135 556.408 206.173 556.496C205.501 556.169 204.823 555.869 204.132 555.597C210.213 549.814 215.517 543.363 219.858 536.242C223.192 537.576 226.912 538.323 230.844 538.323C237.526 538.323 243.616 536.17 248.201 532.635C250.426 531.037 252.368 529.096 253.911 526.831C261.045 516.335 256.812 502.91 244.453 496.851C240.851 495.086 236.957 494.139 233.073 493.943C234.996 461.834 218.593 433.991 195.418 411.835C230.735 431.319 266.081 461.834 276.018 500.274C276.028 500.322 276.042 500.366 276.051 500.414C276.056 500.422 276.056 500.434 276.061 500.446C276.07 500.482 276.079 500.518 276.089 500.554C276.093 500.578 276.098 500.598 276.108 500.622C276.112 500.649 276.122 500.681 276.126 500.705C276.136 500.733 276.145 500.769 276.15 500.797C276.155 500.817 276.159 500.841 276.164 500.861C276.173 500.901 276.187 500.937 276.197 500.977C276.197 500.989 276.202 501.005 276.206 501.017C276.216 501.065 276.23 501.113 276.239 501.157C276.244 501.165 276.244 501.169 276.244 501.177C278.261 509.341 279.136 517.864 278.619 526.704C278.12 535.219 276.333 544.03 273.041 553.121C273.041 553.117 273.041 553.125 273.041 553.121C273.018 553.185 272.994 553.249 272.971 553.313C272.971 553.317 272.971 553.317 272.971 553.321C272.947 553.385 272.924 553.441 272.9 553.504C272.9 553.512 272.896 553.516 272.896 553.524C272.872 553.584 272.849 553.644 272.83 553.704C272.825 553.712 272.825 553.712 272.82 553.72C272.802 553.78 272.778 553.84 272.759 553.896C272.754 553.904 272.75 553.912 272.75 553.92C272.731 553.976 272.707 554.036 272.684 554.092C272.684 554.1 272.679 554.112 272.675 554.12C272.656 554.172 272.632 554.231 272.613 554.287C272.609 554.291 272.604 554.307 272.599 554.315C272.581 554.371 272.557 554.431 272.538 554.487C272.533 554.495 272.529 554.503 272.529 554.511C272.505 554.571 272.486 554.623 272.463 554.679C272.458 554.691 272.458 554.699 272.454 554.711C272.43 554.767 272.411 554.819 272.388 554.878C272.388 554.886 272.378 554.898 272.378 554.906C272.35 554.974 272.327 555.038 272.303 555.102C254.193 602.198 197.558 625.859 145.052 625.855Z" fill="#FAB47F"/>
<path d="M129.189 625.12C126.575 624.872 123.983 624.565 121.42 624.197L112.236 603.843C113.59 604.027 114.954 604.119 116.308 604.119C117.423 604.119 118.533 604.059 119.629 603.935L129.189 625.12Z" fill="#F6864A"/>
<path d="M86.3002 614.288C86.272 614.276 86.2485 614.264 86.2156 614.252C86.2438 614.264 86.272 614.276 86.3002 614.288ZM86.0416 614.176C86.0275 614.164 86.0087 614.16 85.9899 614.152C86.0087 614.16 86.0275 614.168 86.0416 614.176Z" fill="#F6864A"/>
<path d="M99.8629 619.397C96.3687 618.314 92.9687 617.096 89.6909 615.742C88.5857 615.287 87.4664 614.807 86.333 614.304C86.3236 614.3 86.3095 614.292 86.3001 614.288C86.2719 614.276 86.2437 614.264 86.2155 614.252C86.2014 614.244 86.1873 614.236 86.1732 614.232C86.1497 614.22 86.1261 614.212 86.1026 614.2C86.0838 614.192 86.0651 614.184 86.0415 614.176C86.0274 614.168 86.0086 614.16 85.9898 614.152C85.9615 614.14 85.9334 614.124 85.9051 614.112C85.9004 614.112 85.891 614.108 85.8863 614.104C85.8534 614.088 85.8158 614.072 85.7829 614.057C85.7782 614.057 85.7782 614.057 85.7782 614.057C67.1835 605.717 45.0241 591.286 27.8826 575.017C33.5118 578.081 39 580.733 44.1542 582.858C56.9974 588.162 71.6229 591.378 86.9115 592.512L99.8629 619.397Z" fill="#FAB47F"/>
<path d="M140.335 432.178C140.335 444.3 128.766 454.125 114.498 454.125C100.225 454.125 88.6562 444.3 88.6562 432.178C88.6562 420.059 100.225 410.234 114.498 410.234C128.766 410.234 140.335 420.059 140.335 432.178Z" fill="#5B77C4"/>
<path d="M212.24 455.559C212.24 467.682 200.671 477.503 186.403 477.503C172.13 477.503 160.561 467.682 160.561 455.559C160.561 443.437 172.13 433.611 186.403 433.611C200.671 433.611 212.24 443.437 212.24 455.559Z" fill="#6C5EB5"/>
<path d="M253.911 526.831C246.772 537.328 230.971 540.923 218.612 534.864C206.253 528.8 202.02 515.38 209.154 504.883C216.289 494.387 232.09 490.792 244.453 496.851C256.812 502.91 261.045 516.335 253.911 526.831Z" fill="#F57B14"/>
<path d="M215.668 586.496C208.534 596.993 192.733 600.588 180.369 594.525C168.01 588.465 163.778 575.041 170.912 564.544C178.051 554.052 193.852 550.453 206.211 556.516C218.569 562.571 222.802 575.996 215.668 586.496Z" fill="#F9AA0C"/>
<path d="M138.712 593.143C131.578 603.639 115.777 607.234 103.414 601.175C91.0547 595.116 86.8175 581.691 93.9562 571.199C101.095 560.698 116.896 557.099 129.255 563.162C141.614 569.221 145.846 582.646 138.712 593.143Z" fill="#4A2991"/>
<path d="M134.315 566.402C132.914 565.248 131.334 564.213 129.589 563.326C129.556 563.258 129.523 563.186 129.495 563.115C131.254 564.045 132.871 565.152 134.315 566.402Z" fill="#A4617E"/>
<path d="M115.866 603.683C114.573 603.683 113.303 603.603 112.057 603.448L107.265 592.823C120.654 591.996 131.211 582.514 131.211 570.931C131.211 568.255 130.623 565.699 129.589 563.326C131.334 564.213 132.914 565.247 134.315 566.402C138.882 570.352 141.703 575.76 141.703 581.735C141.703 593.858 130.134 603.683 115.866 603.683Z" fill="#322A74"/>
<path d="M23.1141 404.989C23.1141 404.989 21.3976 418.362 32.8582 425.803C51.8714 438.149 56.6823 459.43 42.9502 466.228C24.6472 475.291 11.3808 464.67 6.57928 452.584C1.806 440.569 -0.493686 420.582 23.1141 404.989Z" fill="#FBC394"/>
<path d="M124.369 651.054C120.033 652.512 115.118 650.795 113.242 647.172L29.6272 473.613L50.3381 466.647L129.34 641.756C130.896 645.487 128.7 649.593 124.369 651.054Z" fill="#F57B14"/>
<path d="M124.289 651.074C125.102 649.437 125.239 647.559 124.491 645.762L47.7189 472.515L52.2899 470.973L129.34 641.756C129.683 642.571 129.843 643.405 129.843 644.224C129.833 647.156 127.75 649.912 124.369 651.054L124.289 651.074Z" fill="#F35F19"/>
<path d="M56.8797 469.431L26.5564 479.636C23.6313 480.619 20.3205 479.401 19.1636 476.916C18.0067 474.432 19.4364 471.62 22.3615 470.638L52.6848 460.436C55.6099 459.45 58.9206 460.668 60.0775 463.152C61.2391 465.637 59.8048 468.449 56.8797 469.431Z" fill="#4A2991"/>
<path d="M26.1567 469.359C16.7795 467.921 10.0028 460.828 6.76263 453.027C6.73911 452.975 6.71564 452.919 6.69213 452.863C6.68743 452.847 6.678 452.831 6.6733 452.811C6.6639 452.791 6.65447 452.771 6.64976 452.751C6.62625 452.695 6.60278 452.64 6.57927 452.584C5.34715 449.48 4.29365 445.837 3.79046 441.879C3.93154 442.259 4.06799 442.658 4.21377 443.03C7.75964 451.949 15.9094 460.069 27.2948 460.069C31.3391 460.069 35.7879 459.042 40.5847 456.67C46.0681 453.954 48.5465 448.917 48.396 443.078C51.608 450.131 51.655 457.133 48.1091 461.974L26.1567 469.359Z" fill="#F9AB74"/>
<path d="M29.665 469.627C28.4563 469.627 27.2901 469.535 26.1567 469.359L48.1091 461.974C46.8488 463.695 45.137 465.145 42.9502 466.228C38.1581 468.6 33.7093 469.627 29.665 469.627Z" fill="#48287D"/>
<path d="M23.0491 407.889C23.0491 407.881 23.0442 407.877 23.0442 407.873C22.9663 406.104 23.1174 404.989 23.1174 404.989C23.1174 404.989 22.9761 406.123 23.0491 407.889Z" fill="#EFCDCA"/>
<path d="M23.0435 407.873C22.6861 407.146 22.3898 406.415 22.1265 405.7L23.1141 404.989C23.1141 404.989 22.9682 406.103 23.0435 407.873Z" fill="#F9AB74"/>
<path d="M32.858 425.803C21.3974 418.362 23.1139 404.989 23.1139 404.989C2.42186 418.657 1.63647 435.696 4.97071 447.787C8.10744 445.246 10.915 440.929 11.1877 437.306C11.6956 430.504 18.5852 431.762 21.1341 437.306C23.683 442.85 34.3958 440.645 34.6498 435.233C34.805 431.886 37.8852 431.514 40.2178 431.714C38.0639 429.605 35.6326 427.6 32.858 425.803Z" fill="#5B77C4"/>
<path d="M114.498 454.125C114.474 454.125 114.446 454.125 114.422 454.125C114.413 454.125 114.408 454.125 114.399 454.125C114.38 454.125 114.366 454.125 114.347 454.125C114.338 454.125 114.328 454.125 114.319 454.125C114.3 454.125 114.281 454.125 114.263 454.125C114.258 454.125 114.249 454.125 114.244 454.125C114.22 454.125 114.197 454.125 114.173 454.125C114.164 454.125 114.15 454.125 114.14 454.121C114.126 454.121 114.112 454.121 114.098 454.121C114.084 454.121 114.074 454.121 114.06 454.121C114.051 454.121 114.037 454.121 114.023 454.121C114.009 454.121 113.999 454.121 113.985 454.121C113.976 454.121 113.957 454.121 113.943 454.121C113.919 454.121 113.896 454.121 113.872 454.117C113.868 454.117 113.858 454.117 113.849 454.117C113.835 454.117 113.816 454.117 113.802 454.117C113.792 454.117 113.788 454.117 113.778 454.117C113.764 454.117 113.745 454.117 113.726 454.117C113.726 454.117 113.722 454.117 113.717 454.117C103.028 453.846 94.0032 448.054 90.3727 439.998C94.3324 442.087 98.9928 443.321 104.001 443.321C118.274 443.321 129.843 433.496 129.843 421.373C129.843 418.613 129.217 415.985 128.126 413.557C135.303 417.351 140.142 424.037 140.33 431.714C140.33 431.714 140.33 431.718 140.33 431.722C140.33 431.75 140.33 431.774 140.33 431.802C140.33 431.806 140.33 431.81 140.335 431.81C140.335 431.842 140.335 431.87 140.335 431.898C140.335 431.902 140.335 431.902 140.335 431.906C140.335 431.93 140.335 431.958 140.335 431.982C140.335 431.99 140.335 431.998 140.335 432.006C140.335 432.026 140.335 432.05 140.335 432.07C140.335 432.078 140.335 432.086 140.335 432.094C140.335 432.122 140.335 432.15 140.335 432.178C140.335 444.3 128.766 454.125 114.498 454.125Z" fill="#4B61B6"/>
<path d="M186.403 477.503C186.379 477.503 186.356 477.503 186.328 477.503C186.318 477.503 186.314 477.503 186.304 477.503C186.285 477.503 186.271 477.503 186.252 477.503C186.243 477.503 186.234 477.503 186.224 477.503C186.205 477.503 186.187 477.503 186.168 477.503C186.163 477.503 186.158 477.503 186.149 477.503C186.125 477.503 186.102 477.503 186.078 477.503C186.069 477.503 186.06 477.503 186.046 477.503C186.031 477.503 186.017 477.503 186.003 477.503C185.989 477.503 185.98 477.503 185.97 477.503C185.956 477.503 185.942 477.503 185.928 477.503C185.919 477.503 185.904 477.499 185.895 477.499C185.881 477.499 185.862 477.499 185.848 477.499C185.829 477.499 185.806 477.499 185.782 477.499C185.773 477.499 185.763 477.499 185.754 477.499C185.74 477.499 185.721 477.499 185.707 477.499C185.698 477.495 185.693 477.495 185.683 477.495C185.669 477.495 185.651 477.495 185.636 477.495C185.632 477.495 185.627 477.495 185.622 477.495C174.933 477.224 165.908 471.436 162.278 463.376C166.238 465.473 170.898 466.699 175.906 466.699C190.179 466.699 201.748 456.873 201.748 444.755C201.748 441.995 201.123 439.371 200.031 436.935C207.208 440.733 212.047 447.419 212.235 455.096C212.235 455.1 212.235 455.104 212.235 455.108C212.235 455.132 212.235 455.156 212.24 455.184C212.24 455.188 212.24 455.192 212.24 455.196C212.24 455.224 212.24 455.256 212.24 455.284V455.288C212.24 455.316 212.24 455.34 212.24 455.368C212.24 455.376 212.24 455.384 212.24 455.392C212.24 455.412 212.24 455.432 212.24 455.452C212.24 455.46 212.24 455.467 212.24 455.475C212.24 455.503 212.24 455.531 212.24 455.559C212.24 467.682 200.671 477.503 186.403 477.503Z" fill="#574DAA"/>
<path d="M219.858 536.242C213.848 533.829 209.112 529.508 206.723 524.195C207.118 524.407 207.523 524.607 207.932 524.799C210.072 528.885 213.702 532.455 218.612 534.864C219.148 535.127 219.693 535.371 220.244 535.603C220.117 535.815 219.99 536.026 219.858 536.242Z" fill="#F79448"/>
<path d="M230.844 538.323C226.912 538.323 223.192 537.576 219.858 536.242C219.99 536.026 220.117 535.814 220.244 535.603C223.855 537.093 227.702 537.807 231.507 537.807C237.564 537.807 243.513 535.998 248.202 532.635C243.616 536.17 237.526 538.323 230.844 538.323Z" fill="#F68941"/>
<path d="M231.507 537.807C227.702 537.807 223.855 537.092 220.244 535.603C219.693 535.371 219.148 535.127 218.612 534.864C213.702 532.455 210.072 528.884 207.932 524.798C211.619 526.524 215.842 527.518 220.347 527.518C234.615 527.518 246.189 517.693 246.189 505.574C246.189 502.814 245.559 500.186 244.468 497.754C251.79 501.628 256.681 508.51 256.681 516.379C256.681 522.821 253.412 528.617 248.201 532.635C243.513 535.998 237.564 537.807 231.507 537.807Z" fill="#F25D19"/>
<path d="M175.088 591.106C172.111 588.805 169.769 585.925 168.311 582.674C168.542 582.794 168.772 582.914 169.007 583.029C170.291 586.025 172.341 588.793 175.088 591.106ZM209.761 558.605C208.665 557.838 207.48 557.135 206.211 556.516C206.197 556.508 206.187 556.5 206.173 556.496C206.135 556.408 206.093 556.32 206.055 556.229C207.372 556.928 208.614 557.722 209.761 558.605Z" fill="#F7993E"/>
<path d="M192.432 596.801C185.749 596.801 179.668 594.644 175.088 591.106C172.341 588.793 170.291 586.025 169.007 583.029C172.812 584.907 177.223 585.997 181.935 585.997C196.203 585.997 207.777 576.171 207.777 564.049C207.777 561.393 207.194 558.857 206.173 556.496C206.187 556.5 206.197 556.508 206.211 556.516C207.48 557.135 208.665 557.838 209.761 558.605C214.981 562.615 218.269 568.403 218.269 574.853C218.269 586.976 206.704 596.801 192.432 596.801Z" fill="#F78F11"/>
<path d="M655.972 190.761L568.492 122.668C565.59 120.408 565.392 116.577 568.054 114.113L685.717 5.07195C692.588 -1.29477 704.236 -1.7261 711.732 4.10939L805.463 77.071L684.884 188.808L655.972 190.761Z" fill="#5B77C4"/>
<path d="M655.972 190.761L568.491 122.668C566.963 121.478 566.182 119.849 566.182 118.211C566.178 116.745 566.798 115.275 568.054 114.113L601.288 83.3139C636.625 110.67 679.222 124.813 717.408 124.813C733.299 124.813 748.433 122.361 761.948 117.392L684.884 188.808L655.972 190.761Z" fill="#4C61B7"/>
<path d="M663.416 208.703L568.505 134.827C561.663 129.499 561.197 120.464 567.471 114.648C573.744 108.837 584.382 108.445 591.224 113.773L686.135 187.65C674.482 190.454 665.692 198.602 663.416 208.703Z" fill="#FBC394"/>
<path d="M586.352 129.347L601.829 141.397L548.966 190.386L552.883 173.562L533.489 178.339L586.352 129.347Z" fill="#4A2991"/>
<path d="M748.654 104.575L677.83 49.6829L693.552 35.0523L764.375 89.9442L748.654 104.575Z" fill="#F9AA0C"/>
</svg>
