<svg width="355" height="194" viewBox="0 0 355 194" fill="none" xmlns="http://www.w3.org/2000/svg">
<path d="M303.35 0.531128V5.52113" stroke="#C8E6EB" stroke-width="0.75" stroke-miterlimit="10"/>
<path d="M311.98 174.941H2.26996C1.81909 174.941 1.38668 174.762 1.06787 174.443C0.749059 174.124 0.569946 173.692 0.569946 173.241C0.572588 172.792 0.752885 172.362 1.07141 172.046C1.38994 171.729 1.82082 171.551 2.26996 171.551H311.98C312.428 171.551 312.858 171.729 313.175 172.046C313.492 172.363 313.67 172.793 313.67 173.241C313.67 173.69 313.492 174.121 313.176 174.44C312.859 174.758 312.429 174.939 311.98 174.941Z" fill="#3C5A73"/>
<path d="M38.345 82.9H58.5275V172H38.345V82.9ZM74.3236 82.9H101.121C110.616 82.9 118.469 84.8125 124.679 88.6375C130.934 92.4175 135.614 97.66 138.719 104.365C141.824 111.07 143.376 118.742 143.376 127.382C143.376 136.067 141.824 143.762 138.719 150.467C135.614 157.172 130.934 162.437 124.679 166.262C118.469 170.087 110.616 172 101.121 172H74.3236V82.9ZM94.4386 100.787V154.112H99.2986C104.384 154.112 108.591 152.965 111.921 150.67C115.251 148.33 117.749 145.157 119.414 141.152C121.124 137.102 121.979 132.557 121.979 127.517C121.979 122.432 121.146 117.887 119.481 113.882C117.861 109.832 115.364 106.637 111.989 104.297C108.614 101.957 104.384 100.787 99.2986 100.787H94.4386ZM155.2 82.9H212.103V100.585H175.315V118.742H211.765V135.887H175.315V154.315H212.103V172H155.2V82.9ZM253.7 82.9H273.747L308.915 172H287.382L280.902 154.112H246.612L240.065 172H218.465L253.7 82.9ZM253.362 136.427H274.22L263.892 107.2H263.69L253.362 136.427Z" fill="#A5C8CD"/>
<path d="M41.46 87.4111C40.56 85.5211 36.38 74.9511 37.41 74.4111C38.44 73.8711 44.3 83.6911 45.2 85.5811C46.1 87.4711 45.98 89.3911 44.95 89.8811C43.92 90.3711 42.35 89.2911 41.46 87.4111Z" fill="#FAB9AF"/>
<path d="M34.14 94.5411C36.54 93.5411 48.14 90.3411 48.85 92.0311C49.56 93.7211 39.16 99.6411 36.75 100.671C34.34 101.701 31.81 101.151 31.09 99.4611C30.37 97.7711 31.73 95.5611 34.14 94.5411Z" fill="#FAB9AF"/>
<path d="M36.9499 73.2911C36.9499 73.2911 36.6999 75.2911 37.2899 75.5911C37.8799 75.8911 38.29 75.9511 38.77 75.1111C39.2009 74.15 39.4094 73.104 39.3799 72.0511C39.2785 71.2118 38.9767 70.4092 38.5 69.7111C37.88 69.3411 38.1199 70.8711 38.1999 71.6111C38.2799 72.3511 38.2899 73.2011 37.9199 73.1411C37.5499 73.0811 37.5099 71.6411 37.1099 71.4311C36.7099 71.2211 36.9499 73.2911 36.9499 73.2911Z" fill="#FAB9AF"/>
<path d="M12.2699 96.9311C8.96994 92.6711 7.92994 87.9311 8.88994 87.1911C9.84994 86.4511 14.2 89.4611 17.47 93.5011C20.86 97.7011 23.1899 99.9911 20.9599 101.841C19.5599 103.011 15.5799 101.191 12.2699 96.9311Z" fill="#FA968C"/>
<path d="M31.96 145.661C31.61 148.181 28.34 167.871 27.53 167.561C26.72 167.251 26.2599 147.441 26.6099 144.911C26.9599 142.381 28.45 140.501 29.93 140.711C31.41 140.921 32.27 143.131 31.96 145.661Z" fill="#FA968C"/>
<path d="M22.4599 145.601C21.4599 147.931 12.89 165.971 12.19 165.451C11.49 164.931 16.4899 145.751 17.5299 143.451C18.5699 141.151 20.5299 139.721 21.8699 140.321C23.2099 140.921 23.4899 143.261 22.4599 145.601Z" fill="#FAB9AF"/>
<path d="M26.99 163.531V168.331L26.16 171.051C26.1456 171.095 26.142 171.142 26.1493 171.187C26.1567 171.233 26.1748 171.276 26.2021 171.313C26.2295 171.35 26.2654 171.38 26.3068 171.401C26.3481 171.422 26.3938 171.432 26.44 171.431H28.34V170.811L29.2599 171.421C29.2599 171.421 34.18 171.691 34.34 171.421C34.98 170.421 32.12 170.001 30.03 169.191C27.94 168.381 29.3799 160.441 29.3799 160.441L26.99 163.531Z" fill="#FA968C"/>
<path d="M13.08 160.031L11.08 165.461C10.5972 165.761 10.1651 166.136 9.79998 166.571L9.07998 167.571C9.00698 167.671 8.97281 167.794 8.98384 167.917C8.99488 168.041 9.05038 168.156 9.13997 168.241L10.08 169.161C10.1658 169.244 10.2805 169.291 10.4 169.291C10.5194 169.291 10.6342 169.244 10.72 169.161L10.95 168.911L11.47 170.151C11.5548 170.358 11.6914 170.539 11.8665 170.677C12.0417 170.815 12.2495 170.906 12.47 170.941C13.65 171.101 15.83 171.351 15.91 171.071C16.14 170.191 12.91 169.011 12.91 169.011L12.58 166.181L14.04 162.681L13.08 160.031Z" fill="#FAB9AF"/>
<path d="M26.9499 168.501C27.2354 168.803 27.5818 169.042 27.9662 169.2C28.3506 169.359 28.7643 169.434 29.18 169.421C29.5192 169.416 29.856 169.362 30.18 169.261C32.25 170.031 34.96 170.431 34.34 171.431C34.18 171.701 29.2599 171.431 29.2599 171.431L28.34 170.821V171.431H26.44C26.3938 171.432 26.3481 171.421 26.3068 171.401C26.2654 171.38 26.2295 171.35 26.2021 171.313C26.1748 171.276 26.1567 171.233 26.1493 171.187C26.142 171.142 26.1456 171.095 26.16 171.051L26.9499 168.501Z" fill="#1B444F"/>
<path d="M9.07996 167.601L9.79997 166.601C10.0826 166.244 10.4201 165.933 10.8 165.681C10.8169 166.253 10.9973 166.809 11.3198 167.282C11.6423 167.755 12.0934 168.126 12.62 168.351C12.6979 168.404 12.7818 168.448 12.87 168.481L12.93 169.061C12.93 169.061 16.17 170.241 15.93 171.121C15.85 171.401 13.67 171.121 12.49 170.991C12.2695 170.956 12.0617 170.865 11.8865 170.727C11.7114 170.589 11.5748 170.408 11.49 170.201L10.97 168.961L10.74 169.211C10.6542 169.294 10.5394 169.341 10.42 169.341C10.3005 169.341 10.1858 169.294 10.1 169.211L9.15998 168.291C9.06194 168.208 8.99919 168.09 8.98435 167.962C8.96951 167.834 9.00366 167.705 9.07996 167.601Z" fill="#1B444F"/>
<path d="M11.9 162.181C13.4189 155.823 15.2987 149.556 17.53 143.411C18.53 141.081 20.53 139.681 21.87 140.281C23.21 140.881 23.49 143.281 22.46 145.601C21.75 147.201 17.58 157.821 14.77 163.141L11.9 162.181Z" fill="#46738C"/>
<path d="M26.5099 164.961C26.1399 158.831 26.3699 146.641 26.6099 144.961C26.9699 142.431 28.4499 140.551 29.9299 140.761C31.4099 140.971 32.3099 143.181 31.9299 145.761C31.6899 147.451 30.4799 159.131 29.2399 165.061L26.5099 164.961Z" fill="#3C5A73"/>
<path d="M33.9599 122.181C34.0499 125.871 32.7799 149.241 30.1899 149.301C27.5999 149.361 24.6599 126.081 24.5799 122.401C24.4999 118.721 26.5299 115.681 29.1199 115.621C31.7099 115.561 33.8799 118.501 33.9599 122.181Z" fill="#3C5A73"/>
<path d="M26.9999 121.451C27.0799 125.131 24.1499 146.281 21.5599 146.331C18.9699 146.381 17.2299 125.331 17.1499 121.601C17.0699 117.871 19.5699 114.941 22.1499 114.881C24.7299 114.821 26.9199 117.811 26.9999 121.451Z" fill="#46738C"/>
<path d="M30.39 86.1612C30.4143 86.9823 30.2724 87.7999 29.973 88.5649C29.6735 89.3299 29.2227 90.0266 28.6474 90.613C28.0721 91.1995 27.3843 91.6637 26.6252 91.9779C25.8661 92.292 25.0514 92.4496 24.23 92.4412C21.72 92.4412 21.8 87.9412 21.8 86.0112C21.8 84.0812 23.8 83.0612 26.33 83.0612C28.86 83.0612 30.39 84.2312 30.39 86.1612Z" fill="#373C41"/>
<path d="M27.72 95.9911L23.37 96.3611L24.29 91.3711L27.04 91.7111L27.72 95.9911Z" fill="#FA968C"/>
<path d="M30.0099 88.8112C30.0099 92.0412 29.38 93.6312 27.72 93.6312C26.4988 93.5006 25.365 92.9363 24.5246 92.0409C23.6842 91.1454 23.1928 89.9781 23.14 88.7512C23.14 86.0912 24.32 84.5511 26.34 84.5511C28.36 84.5511 30.0099 86.1712 30.0099 88.8112Z" fill="#FAB9AF"/>
<path d="M23.21 87.7312H28.34C28.8593 87.7322 29.3661 87.5714 29.7899 87.2712C29.5998 86.5 29.1566 85.815 28.5311 85.3255C27.9057 84.836 27.1342 84.5704 26.34 84.5712C24.6 84.5712 23.49 85.7112 23.21 87.7312Z" fill="#FF9669"/>
<path d="M25.6499 83.5211H30.8899V84.0111C30.8899 84.8678 30.5496 85.6893 29.9439 86.2951C29.3381 86.9008 28.5166 87.2411 27.6599 87.2411H22.4399V86.7311C22.4399 86.3096 22.5229 85.8922 22.6843 85.5027C22.8456 85.1133 23.0821 84.7594 23.3801 84.4613C23.6782 84.1632 24.0321 83.9268 24.4215 83.7655C24.811 83.6042 25.2284 83.5211 25.6499 83.5211Z" fill="#373C41"/>
<path d="M24.1299 89.2411V86.3112H25.41V87.9612C25.41 88.1292 25.3769 88.2957 25.3125 88.451C25.2482 88.6063 25.1539 88.7474 25.0351 88.8662C24.9162 88.9851 24.7751 89.0794 24.6198 89.1437C24.4645 89.2081 24.298 89.2411 24.1299 89.2411Z" fill="#373C41"/>
<path d="M24.6199 88.6711C24.6199 89.5511 24.3399 90.2711 23.6199 90.2711C22.8999 90.2711 22.4399 89.0611 22.4399 88.1711C22.4399 87.2811 22.8999 87.0811 23.6199 87.0811C24.3399 87.0811 24.6199 87.8111 24.6199 88.6711Z" fill="#FAB9AF"/>
<path d="M19.5099 96.3611L31.8099 94.6711C32.3786 94.5916 32.958 94.6485 33.5004 94.837C34.0427 95.0256 34.5324 95.3405 34.9291 95.7557C35.3257 96.1709 35.6179 96.6745 35.7815 97.2249C35.9451 97.7753 35.9754 98.3567 35.8699 98.9211L32.4599 117.481C32.1001 119.428 30.9834 121.152 29.3546 122.277C27.7257 123.401 25.7175 123.834 23.7699 123.481L17.9899 122.481L16.8199 100.171C16.7293 99.7428 16.7282 99.3003 16.8165 98.8715C16.9048 98.4427 17.0808 98.0367 17.3334 97.679C17.5859 97.3213 17.9096 97.0197 18.2841 96.7929C18.6586 96.5661 19.0759 96.4191 19.5099 96.3611Z" fill="#FA968C"/>
<path d="M16.14 96.8112L36.78 93.9812L32.44 117.591C32.0895 119.507 30.9939 121.206 29.3931 122.316C27.7924 123.425 25.8171 123.855 23.9 123.511L17.0099 122.251L16.14 96.8112Z" fill="#FA503C"/>
<path d="M34.14 94.5411C35.309 94.0898 36.5006 93.6993 37.71 93.3711C38.8878 95.1834 39.3675 97.3617 39.06 99.5011C38.06 100.041 37.24 100.501 36.75 100.671C34.34 101.671 31.81 101.151 31.09 99.4611C30.37 97.7711 31.73 95.5611 34.14 94.5411Z" fill="#FA503C"/>
<path d="M17.47 93.5011C20.86 97.7011 23.19 99.9911 20.96 101.841C19.58 102.991 15.6699 101.231 12.3799 97.0711C12.3799 97.0711 16.61 92.4411 17.47 93.5011Z" fill="#FA503C"/>
<path d="M16.46 70.0911C16.46 70.0911 17.93 71.5011 17.65 72.0911C17.37 72.6811 17.08 73.0312 16.2 72.6612C15.2564 72.1886 14.435 71.504 13.8 70.6612C13.352 69.9488 13.0811 69.1396 13.0099 68.3012C13.2499 67.6212 14.01 68.9512 14.44 69.5812C14.87 70.2112 15.37 70.8712 15.62 70.5812C15.87 70.2912 14.99 69.1611 15.17 68.7411C15.35 68.3211 16.46 70.0911 16.46 70.0911Z" fill="#FA968C"/>
<path d="M14.35 84.1012C15.28 82.0212 18.72 72.5111 17.35 71.9211C15.98 71.3311 10.64 80.1711 9.82997 82.3011C8.35997 86.2111 8.01997 89.3011 9.35997 89.9211C10.7 90.5411 13.42 86.1812 14.35 84.1012Z" fill="#FA968C"/>
<path d="M70.91 59.9111C68.91 59.4511 57.91 57.6611 57.69 58.7511C57.47 59.8411 68 63.4011 70 63.8611C72 64.3211 73.81 63.8611 74.06 62.7311C74.31 61.6011 72.91 60.3711 70.91 59.9111Z" fill="#FAB9AF"/>
<path d="M70 63.8611C66.8377 62.969 63.732 61.887 60.7 60.6211C60.83 59.8111 61.0099 59.2411 61.1299 58.4911C64.4131 58.7882 67.6779 59.2622 70.91 59.9111C72.91 60.3711 74.31 61.6311 74.06 62.7311C73.81 63.8311 71.99 64.3311 70 63.8611Z" fill="#73C8F0"/>
<path d="M56.27 59.8911C56.27 59.8911 58.27 59.8911 58.48 59.3211C58.69 58.7511 58.73 58.3211 57.86 57.9311C56.8946 57.6095 55.8682 57.5137 54.86 57.6511C54.0526 57.8377 53.3017 58.2149 52.67 58.7511C52.38 59.3911 53.84 59.0011 54.55 58.8511C55.26 58.7011 56.09 58.5911 56.07 58.9611C56.05 59.3311 54.65 59.5111 54.48 59.9611C54.31 60.4111 56.27 59.8911 56.27 59.8911Z" fill="#FAB9AF"/>
<path d="M64.34 68.6611C64.34 68.6611 66.5199 68.1811 66.8799 68.8011C67.2399 69.4211 67.38 69.9011 66.5 70.4711C65.496 71.0474 64.3747 71.3892 63.22 71.4711C62.2947 71.4393 61.3901 71.1892 60.58 70.7411C60.12 70.1011 61.8099 70.2111 62.6299 70.2211C63.4499 70.2311 64.37 70.1711 64.27 69.7711C64.17 69.3711 62.5899 69.4711 62.3199 69.0511C62.0499 68.6311 64.34 68.6611 64.34 68.6611Z" fill="#FAB9AF"/>
<path d="M56.27 59.8911C56.27 59.8911 54.27 60.3311 54.44 59.8911C54.61 59.4511 56.01 59.3011 56.03 58.8911C56.0394 58.8584 56.0394 58.8238 56.03 58.7911L56.48 58.6211L56.96 58.4011H57.0399L57.34 58.2311L57.56 58.0811L57.67 57.9911L57.8199 57.8911H57.9C58.77 58.2311 58.73 58.6811 58.52 59.2811C58.31 59.8811 56.27 59.8911 56.27 59.8911Z" fill="#FAB9AF"/>
<path d="M102.17 95.9911C96.6199 96.9911 84.45 98.4211 83.06 98.6111C80.58 98.9411 78.41 98.0411 78.22 96.6111C78.03 95.1811 79.8699 93.7211 82.3499 93.3811C83.7799 93.1911 96.72 93.0811 102.52 93.3811L102.17 95.9911Z" fill="#003C63"/>
<path d="M88.99 74.6812C86.99 77.2912 76.1299 95.0812 78.5499 96.9312C80.9699 98.7812 95.79 83.9312 97.77 81.3512C98.2773 80.7818 98.6614 80.1136 98.8981 79.3887C99.1348 78.6638 99.219 77.8977 99.1454 77.1386C99.0719 76.3796 98.8421 75.644 98.4705 74.978C98.099 74.312 97.5937 73.7301 96.9865 73.2688C96.3792 72.8074 95.6831 72.4767 94.9419 72.2973C94.2007 72.118 93.4304 72.0939 92.6794 72.2265C91.9284 72.3592 91.2129 72.6457 90.578 73.0681C89.9431 73.4905 89.4024 74.0397 88.99 74.6812Z" fill="#003C63"/>
<path d="M80.27 52.4211C78.27 53.9911 69.9999 62.3711 71.0999 63.8011C72.1999 65.2311 82.2399 59.1511 84.2599 57.5811C86.2799 56.0111 87.04 53.5811 85.94 52.1611C84.84 50.7411 82.27 50.8111 80.27 52.4211Z" fill="#73C8F0"/>
<path d="M92.8 77.8111C93.8 81.2811 103.08 100.091 105.85 99.3011C108.62 98.5111 104.27 78.2511 103.27 74.8111C102.27 71.3711 98.76 69.3711 95.99 70.1611C93.22 70.9511 91.81 74.3711 92.8 77.8111Z" fill="#0073AA"/>
<path d="M99.48 53.2411C99.4744 52.8146 99.3814 52.3938 99.2068 52.0046C99.0322 51.6155 98.7796 51.2662 98.4648 50.9785C98.1499 50.6908 97.7793 50.4707 97.376 50.3319C96.9727 50.193 96.5452 50.1383 96.12 50.1711L84 51.1211C83.4387 51.164 82.8957 51.3398 82.4157 51.6339C81.9358 51.928 81.5327 52.332 81.2396 52.8126C80.9466 53.2932 80.772 53.8366 80.7304 54.398C80.6887 54.9593 80.7811 55.5225 81 56.0411L89.27 75.8111C89.7505 76.9556 90.6068 77.9022 91.6975 78.4948C92.7882 79.0874 94.0482 79.2907 95.27 79.0711L104.27 76.0711L100.27 66.6111L99.48 53.2411Z" fill="#AFE6FF"/>
<path d="M78.1999 64.6511C75.8399 65.4511 65.3999 68.3711 65.8499 69.7111C66.2999 71.0511 77.4199 69.0911 79.7399 68.1711C84.0099 66.4811 86.8099 64.5611 86.3599 63.1711C85.9099 61.7811 80.5699 63.8111 78.1999 64.6511Z" fill="#FAB9AF"/>
<path d="M86.36 63.2212C85.91 61.8812 80.57 63.8511 78.2 64.6511C76.75 65.1411 72.2 66.4411 69.09 67.6511C69.2048 68.4766 69.4372 69.2815 69.78 70.0411C73.1673 69.7413 76.5168 69.1082 79.78 68.1511C84.01 66.4811 86.81 64.5612 86.36 63.2212Z" fill="#D2F0FF"/>
<path d="M106.85 100.031C109.23 100.811 127.93 106.471 128.01 105.621C128.09 104.771 110.89 95.7912 108.51 95.0112C106.13 94.2312 103.85 94.7112 103.39 96.1012C102.93 97.4912 104.48 99.2412 106.85 100.031Z" fill="#FAB9AF"/>
<path d="M123.5 102.711L128.75 104.821C129.287 104.671 129.843 104.604 130.4 104.621L131.62 104.771C131.741 104.785 131.853 104.843 131.936 104.933C132.018 105.023 132.066 105.139 132.07 105.261L132.12 106.551C132.12 106.67 132.074 106.784 131.992 106.87C131.91 106.955 131.798 107.006 131.68 107.011H131.36L131.91 108.201C132.008 108.403 132.05 108.627 132.032 108.85C132.015 109.073 131.938 109.287 131.81 109.471C131.15 110.471 129.9 112.181 129.65 112.051C128.86 111.641 130.13 108.521 130.13 108.521L128.27 106.411L124.77 105.171L123.5 102.711Z" fill="#FAB9AF"/>
<path d="M130.13 108.521L129.68 108.011C129.944 107.485 130.062 106.897 130.022 106.31C129.981 105.722 129.784 105.156 129.45 104.671C129.763 104.615 130.082 104.599 130.4 104.621L131.62 104.771C131.741 104.785 131.853 104.843 131.936 104.933C132.018 105.023 132.066 105.139 132.07 105.261L132.12 106.551C132.12 106.67 132.074 106.784 131.992 106.87C131.91 106.955 131.798 107.006 131.68 107.011H131.36L131.91 108.201C132.008 108.403 132.05 108.627 132.032 108.85C132.015 109.073 131.938 109.287 131.81 109.471C131.15 110.471 129.9 112.181 129.65 112.051C128.86 111.641 130.13 108.521 130.13 108.521Z" fill="#373C41"/>
<path d="M125.4 106.081C119.79 104.551 108.26 100.491 106.85 100.081C104.48 99.2911 102.93 97.5311 103.39 96.1511C103.85 94.7711 106.14 94.2711 108.51 95.0611C110.02 95.5611 120.72 100.411 125.96 103.341L125.4 106.081Z" fill="#0073AA"/>
<path d="M88.7599 52.8711C90.5299 53.4211 92.36 50.4711 92.36 50.4711L89.36 46.7611L87.14 48.3311L88.7599 52.8711Z" fill="#FA968C"/>
<path d="M81.73 45.0811C82.0909 45.7977 82.592 46.4346 83.2034 46.9542C83.8149 47.4738 84.5243 47.8654 85.2898 48.106C86.0553 48.3465 86.8612 48.4311 87.66 48.3547C88.4587 48.2783 89.234 48.0424 89.94 47.6611C92.11 46.5011 89.94 42.6611 89.08 40.9811C88.22 39.3011 85.97 39.3611 83.8 40.5211C81.63 41.6811 80.83 43.4111 81.73 45.0811Z" fill="#69280F"/>
<path d="M83.27 47.2111C84.76 50.0011 86.04 51.0911 87.47 50.3211C88.468 49.6475 89.1895 48.6364 89.5018 47.4735C89.8141 46.3106 89.6963 45.0741 89.17 43.9911C87.94 41.6911 86.17 40.9011 84.46 41.8411C82.75 42.7811 82.06 44.9111 83.27 47.2111Z" fill="#FAB9AF"/>
<path d="M88.64 43.1211L84.27 45.4911C83.8234 45.7313 83.3129 45.8257 82.81 45.7611C82.6153 45.0095 82.679 44.2142 82.991 43.5032C83.3029 42.7922 83.845 42.2068 84.53 41.8411C85.98 41.0311 87.47 41.5111 88.64 43.1211Z" fill="#FF9669"/>
<path d="M89.0775 42.3113L84.5724 44.7229C83.8335 45.1184 82.9678 45.2042 82.1656 44.9614C81.3635 44.7186 80.6906 44.1671 80.2951 43.4282L80.0686 43.005L84.5914 40.584C85.3256 40.191 86.1858 40.1057 86.9829 40.347C87.78 40.5883 88.4485 41.1363 88.8415 41.8705L89.0775 42.3113Z" fill="#69280F"/>
<path d="M88.55 44.8111L87.2 42.2811L86.09 42.8711L86.86 44.3011C86.9366 44.4464 87.0414 44.5749 87.1681 44.6794C87.2949 44.7838 87.4411 44.862 87.5983 44.9094C87.7556 44.9569 87.9207 44.9726 88.084 44.9557C88.2474 44.9389 88.4058 44.8897 88.55 44.8111Z" fill="#69280F"/>
<path d="M87.87 44.5811C88.28 45.3411 88.87 45.8311 89.47 45.5011C90.07 45.1711 89.92 43.9111 89.52 43.1511C89.12 42.3911 88.61 42.4111 87.99 42.7411C87.37 43.0711 87.46 43.8111 87.87 44.5811Z" fill="#FAB9AF"/>
<path d="M89.93 52.6911L91.92 49.9011L93.66 50.3711L91.15 54.6011L89.93 52.6911Z" fill="#D2F0FF"/>
<path d="M89.72 63.2112L90.67 63.3312C89.9459 68.8344 91.1623 74.4179 94.11 79.1212C93.6975 79.1035 93.2883 79.0398 92.89 78.9312C90.1215 74.1868 89.0066 68.6576 89.72 63.2112Z" fill="#D2F0FF"/>
<path d="M88.02 50.7511L88.7599 52.8711L87.93 54.6611L86.22 50.9511L88.02 50.7511Z" fill="#D2F0FF"/>
<path d="M88.7599 54.5512L90.37 54.2012L89.93 52.6912L88.7599 52.8712V54.5512Z" fill="#CD5014"/>
<path d="M88.7599 54.5512L90.37 54.2012L91.49 63.4312L90.42 66.1212L88.33 64.1212L88.7599 54.5512Z" fill="#CD5014"/>
<path d="M89.16 55.0911C85.46 58.8511 83.42 64.0911 84.32 64.9211C85.22 65.7511 89.91 62.8011 93.56 59.2411C97.21 55.6811 100.5 52.8211 98.31 50.6711C96.96 49.3511 92.86 51.3211 89.16 55.0911Z" fill="#D2F0FF"/>
<path d="M272.66 153.241C275.15 155.011 294.23 169.371 293.45 170.061C292.67 170.751 271.39 160.271 268.91 158.491C266.43 156.711 265.25 154.101 266.28 152.651C267.31 151.201 270.17 151.461 272.66 153.241Z" fill="#3C5A73"/>
<path d="M289.27 168.571C290.877 169.321 292.306 170.405 293.46 171.751C294.75 173.581 295.38 173.481 297.29 172.751C299.2 172.021 301.13 173.221 302.4 173.191C305.05 173.131 304.84 172.031 302.77 171.651C300.7 171.271 292.85 168.891 289.38 166.091L289.27 168.571Z" fill="#FA968C"/>
<path d="M302.74 171.661C300.661 171.195 298.619 170.577 296.63 169.811C296.339 170.373 295.894 170.84 295.346 171.157C294.799 171.474 294.172 171.628 293.54 171.601H293.3L293.43 171.771C294.72 173.601 295.35 173.501 297.26 172.771C299.17 172.041 301.1 173.241 302.37 173.211C305.02 173.141 304.81 172.041 302.74 171.661Z" fill="#823214"/>
<path d="M275.57 165.671C278.57 166.171 302.37 169.601 301.98 170.561C301.88 170.791 300.31 171.091 297.98 171.391C291.78 172.201 276.69 172.391 274.5 172.041C271.5 171.541 269.28 169.711 269.57 167.951C269.86 166.191 272.56 165.171 275.57 165.671Z" fill="#FAB9AF"/>
<path d="M297.38 171.441C299.15 171.434 300.902 171.802 302.52 172.521C304.52 173.621 305 173.261 306.42 171.801C307.84 170.341 309.96 170.181 311.22 170.001C312.48 169.821 312.98 168.811 310.98 168.791C308.98 168.771 300.75 170.211 296.41 169.171L297.38 171.441Z" fill="#FAB9AF"/>
<path d="M310.98 168.811C309.98 168.811 307.49 169.151 304.69 169.371C304.678 170.052 304.468 170.716 304.087 171.28C303.705 171.845 303.168 172.286 302.54 172.551C304.48 173.641 305.01 173.281 306.42 171.821C307.83 170.361 309.96 170.201 311.22 170.021C312.48 169.841 312.98 168.811 310.98 168.811Z" fill="#823214"/>
<path d="M260.98 131.491C260.791 131.907 260.65 132.343 260.56 132.791C260.466 133.255 260.433 133.729 260.46 134.201H260.3C260.186 133.72 260.132 133.226 260.14 132.731C260.137 132.222 260.197 131.715 260.32 131.221L260.98 131.491Z" fill="#965028"/>
<path d="M263.27 134.661C263.27 134.213 263.092 133.783 262.775 133.466C262.458 133.149 262.028 132.971 261.58 132.971C261.309 132.972 261.041 133.038 260.8 133.161C260.657 133.237 260.497 133.276 260.335 133.276C260.173 133.276 260.013 133.237 259.87 133.161C259.647 133.061 259.405 133.01 259.16 133.011C258.712 133.011 258.282 133.189 257.965 133.506C257.648 133.823 257.47 134.253 257.47 134.701C257.47 135.631 258.23 138.611 259.16 138.611C259.317 138.45 259.506 138.321 259.713 138.234C259.921 138.146 260.144 138.101 260.37 138.101C260.595 138.101 260.819 138.146 261.027 138.234C261.234 138.321 261.423 138.45 261.58 138.611C262.52 138.581 263.27 135.601 263.27 134.661Z" fill="#FA503C"/>
<path d="M262.97 133.701C262.975 133.748 262.975 133.795 262.97 133.841C262.97 134.771 262.21 137.761 261.28 137.761C260.95 137.757 260.627 137.66 260.35 137.481C260.274 137.427 260.183 137.398 260.09 137.398C259.997 137.398 259.906 137.427 259.83 137.481C259.538 137.689 259.188 137.798 258.83 137.791C258.78 137.793 258.732 137.807 258.69 137.834C258.647 137.86 258.613 137.897 258.59 137.941C258.565 137.984 258.552 138.032 258.552 138.081C258.552 138.13 258.565 138.179 258.59 138.221C258.653 138.322 258.738 138.408 258.838 138.472C258.938 138.536 259.052 138.577 259.17 138.591C259.327 138.43 259.516 138.301 259.723 138.214C259.931 138.126 260.154 138.081 260.38 138.081C260.605 138.081 260.829 138.126 261.037 138.214C261.244 138.301 261.433 138.43 261.59 138.591C262.52 138.591 263.28 135.591 263.28 134.671C263.28 134.323 263.172 133.984 262.97 133.701Z" fill="#FA2D14"/>
<path d="M259.78 135.021C259.66 135.731 259.15 136.231 258.64 136.151C258.13 136.071 257.8 135.421 257.92 134.721C258.04 134.021 258.55 133.501 259.06 133.591C259.341 133.691 259.572 133.896 259.706 134.162C259.84 134.428 259.867 134.736 259.78 135.021Z" fill="#FA735F"/>
<g style="mix-blend-mode:lighten" opacity="0.22">
<path d="M258.96 133.811C258.961 133.868 258.951 133.925 258.93 133.979C258.909 134.032 258.878 134.081 258.838 134.122C258.798 134.163 258.75 134.195 258.697 134.217C258.644 134.24 258.587 134.251 258.53 134.251C258.467 134.261 258.403 134.256 258.342 134.239C258.281 134.222 258.225 134.191 258.177 134.15C258.129 134.108 258.09 134.057 258.064 134C258.038 133.942 258.024 133.879 258.024 133.816C258.024 133.753 258.038 133.69 258.064 133.633C258.09 133.575 258.129 133.524 258.177 133.482C258.225 133.441 258.281 133.411 258.342 133.393C258.403 133.376 258.467 133.372 258.53 133.381C258.644 133.381 258.753 133.426 258.834 133.507C258.915 133.588 258.96 133.697 258.96 133.811Z" fill="white"/>
</g>
<path d="M260.91 131.461C260.91 131.541 260.74 131.561 260.59 131.461C260.44 131.361 260.35 131.311 260.38 131.231C260.41 131.151 260.55 131.131 260.7 131.231C260.85 131.331 260.94 131.381 260.91 131.461Z" fill="#823214"/>
<path d="M249.76 157.271C254.33 155.531 270.15 149.371 271.41 152.671C272.67 155.971 256.91 167.921 250.46 170.371C241.78 173.671 238.46 169.371 237.2 166.101C235.94 162.831 245.2 159.011 249.76 157.271Z" fill="#3C5A73"/>
<path d="M245.37 142.031C247.7 144.031 256.09 153.841 254.94 155.201C253.79 156.561 243.53 148.931 241.2 146.951C238.87 144.971 237.91 142.281 239.06 140.951C240.21 139.621 243.04 140.051 245.37 142.031Z" fill="#FA968C"/>
<path d="M256.94 152.501C257.57 150.611 260.87 138.501 259.83 138.131C258.79 137.761 253.83 149.361 253.15 151.251C252.47 153.141 252.87 154.961 253.91 155.311C254.95 155.661 256.27 154.401 256.94 152.501Z" fill="#FAB9AF"/>
<path d="M246.68 170.261L236.85 168.811L230.27 148.291C228.84 144.131 230.04 141.741 234.27 141.121L240.73 140.181C241.079 140.129 241.434 140.151 241.774 140.245C242.113 140.339 242.429 140.504 242.701 140.729C242.973 140.953 243.194 141.232 243.351 141.548C243.507 141.864 243.596 142.209 243.61 142.561L246.68 170.261Z" fill="#00A897"/>
<path d="M233.83 148.331C232.61 151.131 225.92 161.991 224.29 161.331C222.66 160.671 226.69 148.601 227.91 145.801C229.13 143.001 231.43 141.311 233.07 142.021C234.71 142.731 235.05 145.521 233.83 148.331Z" fill="#FA968C"/>
<path d="M251.08 148.351C249.335 146.107 247.427 143.994 245.37 142.031C243.04 140.031 240.22 139.561 239.06 140.921C237.9 142.281 238.87 144.981 241.2 146.921C242.29 147.851 245.11 150.011 247.92 151.921C249.01 152.671 251.08 148.351 251.08 148.351Z" fill="#00A897"/>
<path d="M229.93 155.061C231.373 152.904 232.676 150.656 233.83 148.331C235.05 145.521 234.71 142.681 233.07 141.971C231.43 141.261 229.12 142.971 227.91 145.751C226.901 148.264 226.023 150.827 225.28 153.431C225.12 153.981 229.93 155.061 229.93 155.061Z" fill="#00A897"/>
<path d="M246.96 171.481C251.84 171.351 277.87 172.401 277.77 168.881C277.67 165.361 247.96 158.671 243.08 158.811C238.2 158.951 236.63 164.481 236.72 168.011C236.81 171.541 242.08 171.611 246.96 171.481Z" fill="#46738C"/>
<path d="M293.71 168.571C286.66 167.321 277.38 165.971 275.57 165.671C272.57 165.171 269.88 166.191 269.57 167.951C269.26 169.711 271.48 171.541 274.5 172.041C276.28 172.331 286.57 172.261 293.69 171.781L293.71 168.571Z" fill="#46738C"/>
<path d="M227.86 159.121C229.78 159.681 241.64 163.861 241.33 164.921C241.02 165.981 228.65 163.511 226.74 162.921C224.83 162.331 223.53 161.051 223.84 159.991C224.15 158.931 225.95 158.551 227.86 159.121Z" fill="#FA968C"/>
<path d="M239.61 162.901C239.61 162.901 238.82 164.841 240.12 165.261C241.42 165.681 244.19 163.151 244.12 162.181C244.05 161.211 241.85 162.421 239.61 162.901Z" fill="#FA968C"/>
<path d="M238.46 163.331C238.427 163.168 238.461 162.999 238.553 162.86C238.644 162.722 238.787 162.625 238.95 162.591L245.95 161.191C246.03 161.175 246.113 161.175 246.193 161.191C246.273 161.207 246.349 161.239 246.417 161.284C246.485 161.33 246.543 161.388 246.588 161.457C246.633 161.525 246.664 161.601 246.68 161.681C246.712 161.844 246.679 162.014 246.587 162.152C246.496 162.291 246.353 162.387 246.19 162.421L239.19 163.821C239.028 163.851 238.862 163.816 238.725 163.725C238.589 163.633 238.494 163.492 238.46 163.331Z" fill="#A5C8CD"/>
<path d="M243 161.311C242.81 161.171 242.3 161.621 241.76 162.191C241.477 162.525 241.083 162.746 240.65 162.811C240.493 162.827 240.341 162.876 240.205 162.955C240.069 163.035 239.951 163.142 239.86 163.271C239.691 163.455 239.598 163.696 239.598 163.946C239.598 164.196 239.691 164.437 239.86 164.621C240.35 164.991 241.11 164.191 241.38 163.861C241.9 163.291 243.27 161.491 243 161.311Z" fill="#FA968C"/>
<path d="M259.98 137.521C259.98 137.521 258.35 138.591 258.51 139.191C258.67 139.791 258.89 140.191 259.78 139.971C260.745 139.691 261.635 139.196 262.38 138.521C262.923 137.929 263.318 137.216 263.53 136.441C263.42 135.761 262.46 136.871 261.96 137.391C261.46 137.911 260.86 138.441 260.68 138.131C260.5 137.821 261.52 136.911 261.43 136.491C261.34 136.071 259.98 137.521 259.98 137.521Z" fill="#FAB9AF"/>
<path d="M238.78 143.941C237.56 144.141 234.78 141.081 234.78 141.081L235.46 137.391L238.57 138.311C238.57 138.311 241.32 143.531 238.78 143.941Z" fill="#FA968C"/>
<path d="M242.98 129.971C243.311 130.354 243.522 130.826 243.585 131.329C243.648 131.831 243.56 132.341 243.334 132.794C243.107 133.247 242.751 133.622 242.311 133.872C241.871 134.123 241.366 134.237 240.861 134.201C240.356 134.164 239.873 133.979 239.473 133.668C239.074 133.357 238.775 132.935 238.615 132.454C238.456 131.974 238.442 131.456 238.577 130.968C238.711 130.48 238.987 130.042 239.37 129.711C240.195 129.825 241.013 129.985 241.82 130.191C242.27 130.331 242.65 129.601 242.98 129.971Z" fill="#00558C"/>
<path d="M241.66 132.661C241.36 136.871 237.78 137.561 235.43 137.391C233.08 137.221 233.5 133.761 233.63 131.951C233.76 130.141 235.72 129.321 238.07 129.491C240.42 129.661 241.79 130.861 241.66 132.661Z" fill="#00558C"/>
<path d="M241.44 133.971C241.26 136.471 240.15 140.381 238.26 140.251C236.37 140.121 234.53 137.121 234.71 134.621C234.89 132.121 236.09 130.771 237.98 130.901C239.87 131.031 241.62 131.481 241.44 133.971Z" fill="#FAB9AF"/>
<path d="M234.84 133.651L239.64 133.991C240.273 133.977 240.893 133.812 241.45 133.511C241.58 131.721 240.77 130.771 237.98 130.901C237.208 130.884 236.457 131.157 235.875 131.666C235.294 132.175 234.925 132.883 234.84 133.651Z" fill="#FF9669"/>
<path d="M237.364 129.93L242.271 130.283L242.238 130.742C242.181 131.536 241.811 132.274 241.209 132.795C240.608 133.315 239.824 133.576 239.031 133.519L234.123 133.165L234.158 132.686C234.22 131.897 234.592 131.164 235.193 130.647C235.793 130.131 236.574 129.873 237.364 129.93Z" fill="#00558C"/>
<path d="M235.59 135.131L235.79 132.381L236.99 132.471L236.88 134.011C236.854 134.33 236.705 134.625 236.464 134.835C236.222 135.044 235.909 135.15 235.59 135.131Z" fill="#00558C"/>
<path d="M236.09 134.631C236.03 135.451 235.72 136.101 235.09 136.051C234.46 136.001 234.2 135.051 234.26 134.211C234.32 133.371 234.63 133.021 235.26 133.071C235.89 133.121 236.15 133.811 236.09 134.631Z" fill="#FAB9AF"/>
<path d="M195.27 189.971C195.27 191.801 173.68 193.291 147.03 193.291C120.38 193.291 98.77 191.811 98.77 189.971C98.77 188.131 120.37 186.661 147.01 186.661C173.65 186.661 195.27 188.141 195.27 189.971Z" fill="#C8E6EB"/>
<path d="M106.16 147.811C106.16 148.96 106.501 150.084 107.139 151.039C107.778 151.994 108.685 152.739 109.747 153.179C110.808 153.619 111.976 153.734 113.103 153.509C114.23 153.285 115.266 152.732 116.078 151.919C116.891 151.107 117.444 150.072 117.668 148.945C117.893 147.818 117.777 146.649 117.338 145.588C116.898 144.526 116.153 143.619 115.198 142.98C114.242 142.342 113.119 142.001 111.97 142.001C110.429 142.001 108.951 142.613 107.862 143.703C106.772 144.792 106.16 146.27 106.16 147.811Z" fill="#FFDC8C"/>
<path d="M123.71 151.271C126.71 150.611 139.71 149.271 140.05 151.041C140.39 152.811 128.12 156.981 125.1 157.641C122.08 158.301 119.34 157.411 118.96 155.641C118.58 153.871 120.7 151.931 123.71 151.271Z" fill="#FAB9AF"/>
<path d="M126.4 150.811C125.24 150.961 124.29 151.121 123.71 151.241C120.71 151.901 118.57 153.861 118.96 155.621C119.35 157.381 122.09 158.271 125.1 157.621C125.43 157.551 125.88 157.431 126.4 157.281L128.87 156.531C128.8 155.499 128.56 154.485 128.16 153.531C127.813 152.49 127.208 151.554 126.4 150.811Z" fill="#FFA0BE"/>
<path d="M186.51 152.811C186.51 153.8 186.217 154.767 185.667 155.589C185.118 156.411 184.337 157.052 183.423 157.431C182.51 157.809 181.504 157.908 180.534 157.715C179.565 157.522 178.674 157.046 177.974 156.347C177.275 155.647 176.799 154.757 176.606 153.787C176.413 152.817 176.512 151.811 176.891 150.898C177.269 149.984 177.91 149.203 178.732 148.654C179.554 148.104 180.521 147.811 181.51 147.811C182.836 147.811 184.108 148.338 185.045 149.276C185.983 150.213 186.51 151.485 186.51 152.811Z" fill="#D72846"/>
<path d="M170.07 174.191C165.29 175.411 150.59 182.291 151.47 185.741C152.35 189.191 171.87 186.651 176.72 185.791C186.59 184.041 186.67 176.191 182.53 173.171C179.65 171.071 174.84 172.971 170.07 174.191Z" fill="#695A6E"/>
<path d="M175.16 151.751C172.16 151.091 159.16 149.751 158.82 151.521C158.48 153.291 170.75 157.461 173.77 158.121C176.79 158.781 179.53 157.881 179.91 156.121C180.29 154.361 178.17 152.411 175.16 151.751Z" fill="#FAB9AF"/>
<path d="M175.16 151.751C171.419 151.105 167.635 150.737 163.84 150.651C163.03 151.511 162.78 154.291 162.78 154.291C166.345 155.843 170.022 157.123 173.78 158.121C176.78 158.781 179.54 157.881 179.92 156.121C180.3 154.361 178.17 152.411 175.16 151.751Z" fill="#5046AF"/>
<path d="M160.77 148.581C159.55 146.981 151.35 137.291 150.46 137.971C149.57 138.651 156.35 149.411 157.57 150.971C158.79 152.531 160.49 153.331 161.37 152.661C162.25 151.991 161.99 150.181 160.77 148.581Z" fill="#FAB9AF"/>
<path d="M189.5 153.481H178.27C177.824 153.482 177.384 153.576 176.977 153.757C176.57 153.938 176.205 154.202 175.906 154.533C175.608 154.864 175.382 155.253 175.243 155.677C175.104 156.1 175.055 156.548 175.1 156.991L175.17 157.671L173.33 163.111C173.185 163.536 173.144 163.99 173.21 164.435C173.276 164.879 173.447 165.302 173.709 165.667C173.971 166.032 174.317 166.329 174.717 166.533C175.117 166.737 175.561 166.843 176.01 166.841H176.12L177.35 178.841L184.91 177.641L186.56 172.321L191.86 156.811C191.995 156.434 192.037 156.03 191.983 155.633C191.928 155.236 191.779 154.858 191.547 154.531C191.316 154.204 191.009 153.938 190.652 153.755C190.296 153.573 189.901 153.479 189.5 153.481Z" fill="#6E64C3"/>
<path d="M185.59 157.641C184.59 160.551 181.59 173.211 183.27 173.821C184.95 174.431 190.69 162.741 191.73 159.821C192.77 156.901 192.23 154.071 190.54 153.461C188.85 152.851 186.63 154.741 185.59 157.641Z" fill="#FAB9AF"/>
<path d="M186.72 169.931C188.633 166.696 190.304 163.323 191.72 159.841C192.72 156.931 192.22 154.091 190.53 153.481C188.84 152.871 186.62 154.741 185.58 157.641C184.415 161.414 183.545 165.273 182.98 169.181C182.96 169.441 186.72 169.931 186.72 169.931Z" fill="#5046AF"/>
<path d="M159.53 190.811C162.6 191.021 186.69 192.091 186.53 191.061C186.37 190.031 163.07 184.521 159.99 184.301C156.91 184.081 154.32 185.371 154.2 187.161C154.08 188.951 156.45 190.581 159.53 190.811Z" fill="#FAB9AF"/>
<path d="M181 170.971C179.14 171.761 167.76 177.381 168.2 178.401C168.64 179.421 180.73 175.461 182.58 174.671C184.43 173.881 185.58 172.401 185.14 171.381C184.7 170.361 182.85 170.171 181 170.971Z" fill="#FAB9AF"/>
<path d="M175.12 177.101C170.34 178.321 153.31 183.651 154.2 187.501C154.99 190.971 176.92 189.561 181.77 188.701C191.64 186.951 191.77 179.111 187.58 176.081C184.7 173.991 179.89 175.881 175.12 177.101Z" fill="#828291"/>
<path d="M180.33 189.121C180.33 189.121 184.96 190.691 185.64 189.221C186.32 187.751 187.42 187.511 188.3 188.421C188.712 188.926 189.171 189.392 189.67 189.811C191.19 190.811 193.56 191.191 193.6 191.681C193.66 192.351 191.32 192.031 189.91 191.831C186.91 191.431 183.97 191.751 179.51 191.511L180.33 189.121Z" fill="#FAB9AF"/>
<path d="M149.47 137.951C149.47 137.951 150.23 140.081 150.96 140.071C151.69 140.061 152.17 139.911 152.19 138.851C152.133 137.679 151.815 136.535 151.26 135.501C150.733 134.723 150.031 134.079 149.21 133.621C148.41 133.561 149.41 134.961 149.86 135.621C150.31 136.281 150.75 137.161 150.35 137.281C149.95 137.401 149.19 135.991 148.69 135.981C148.19 135.971 149.47 137.951 149.47 137.951Z" fill="#FAB9AF"/>
<path d="M170.62 176.721C169.159 176.977 167.72 177.352 166.32 177.841C165.85 178.221 163.59 180.121 164.07 180.271C164.55 180.421 166.07 179.701 167.07 179.041C167.703 178.65 168.458 178.507 169.19 178.641L170.62 176.721Z" fill="#FAB9AF"/>
<path d="M128.81 173.711C133.58 174.931 148 182.291 147.12 185.711C146.24 189.131 127 186.141 122.12 185.281C112.25 183.531 112.17 175.691 116.31 172.661C119.27 170.601 124.03 172.491 128.81 173.711Z" fill="#D72846"/>
<path d="M138.1 148.101C139.32 146.501 147.52 136.811 148.41 137.491C149.3 138.171 142.52 148.931 141.3 150.541C140.08 152.151 138.38 152.891 137.5 152.221C136.62 151.551 136.88 149.701 138.1 148.101Z" fill="#FAB9AF"/>
<path d="M121.53 178.341L113.98 177.141L112.32 171.811L107.01 156.281C106.883 155.906 106.847 155.506 106.905 155.115C106.963 154.723 107.114 154.351 107.345 154.03C107.575 153.708 107.879 153.446 108.232 153.265C108.584 153.085 108.974 152.991 109.37 152.991H120.61C121.056 152.992 121.496 153.086 121.903 153.267C122.31 153.448 122.675 153.712 122.973 154.043C123.272 154.374 123.498 154.763 123.637 155.187C123.776 155.61 123.825 156.058 123.78 156.501L121.53 178.341Z" fill="#FFA0BE"/>
<path d="M117.04 156.751H123.56L125.56 162.631C125.705 163.056 125.746 163.51 125.68 163.955C125.614 164.399 125.443 164.822 125.181 165.187C124.919 165.552 124.573 165.849 124.173 166.053C123.773 166.257 123.329 166.363 122.88 166.361H120.27L117.04 156.751Z" fill="#FFA0BE"/>
<path d="M110.58 151.811C108.87 149.241 100.51 139.271 99.0099 140.271C97.5099 141.271 103.44 152.841 105.14 155.411C106.84 157.981 109.45 159.261 110.95 158.261C112.45 157.261 112.27 154.411 110.58 151.811Z" fill="#FAB9AF"/>
<path d="M110.58 151.811C110.27 151.351 109.75 150.651 109.09 149.811H109.01C109.01 149.811 105.37 150.301 103.43 152.421C104.13 153.731 104.75 154.801 105.14 155.421C106.85 157.991 109.45 159.271 110.95 158.271C112.45 157.271 112.27 154.411 110.58 151.811Z" fill="#FFA0BE"/>
<path d="M139.34 190.321C136.27 190.531 112.18 191.611 112.34 190.571C112.5 189.531 135.8 184.031 138.88 183.811C141.96 183.591 144.55 184.881 144.67 186.681C144.79 188.481 142.42 190.101 139.34 190.321Z" fill="#FAB9AF"/>
<path d="M102.66 140.181C103.13 138.181 105.45 125.741 104.36 125.481C103.27 125.221 99.22 137.281 98.74 139.241C98.26 141.201 98.74 142.991 99.84 143.241C100.94 143.491 102.18 142.141 102.66 140.181Z" fill="#FAB9AF"/>
<path d="M123.76 176.621C128.53 177.841 145.56 183.181 144.67 187.021C143.88 190.491 121.95 189.091 117.1 188.221C107.23 186.471 107.15 178.631 111.29 175.611C114.17 173.511 118.98 175.401 123.76 176.621Z" fill="#E64B55"/>
<path d="M118.54 188.641C118.54 188.641 113.91 190.221 113.23 188.741C112.55 187.261 111.45 187.031 110.57 187.951C110.159 188.449 109.7 188.904 109.2 189.311C107.68 190.311 105.31 190.701 105.27 191.191C105.21 191.851 107.55 191.531 108.96 191.341C111.96 190.931 114.9 191.251 119.36 191.011L118.54 188.641Z" fill="#FAB9AF"/>
<path d="M148.89 136.891C148.89 136.891 148.56 139.141 147.89 139.261C147.22 139.381 146.67 139.351 146.44 138.311C146.258 137.154 146.344 135.97 146.69 134.851C147.045 133.981 147.604 133.21 148.32 132.601C149.09 132.381 148.39 133.951 148.09 134.731C147.79 135.511 147.52 136.411 147.93 136.451C148.34 136.491 148.82 134.961 149.31 134.851C149.8 134.741 148.89 136.891 148.89 136.891Z" fill="#FAB9AF"/>
<path d="M105.45 125.011C105.45 125.011 105.13 127.261 104.45 127.391C103.77 127.521 103.23 127.471 103 126.391C102.818 125.234 102.904 124.05 103.25 122.931C103.61 122.064 104.168 121.293 104.88 120.681C105.66 120.471 104.95 122.031 104.65 122.811C104.35 123.591 104.08 124.491 104.49 124.531C104.9 124.571 105.38 123.041 105.87 122.931C106.36 122.821 105.45 125.011 105.45 125.011Z" fill="#FAB9AF"/>
<path d="M176.44 144.131C176.521 144.931 176.762 145.705 177.149 146.41C177.535 147.114 178.059 147.734 178.69 148.232C179.32 148.73 180.044 149.096 180.819 149.309C181.594 149.522 182.404 149.577 183.2 149.471C185.64 149.161 185.01 144.801 184.77 142.931C184.53 141.061 182.44 140.301 180 140.611C177.56 140.921 176.2 142.261 176.44 144.131Z" fill="#D72846"/>
<path d="M181.07 157.031C182.07 157.431 184.59 154.441 184.59 154.441L184.48 153.441L183.74 147.181L180.99 149.841L180.42 153.431C180.42 153.431 180.27 156.701 181.07 157.031Z" fill="#FA968C"/>
<path d="M177.14 146.681C177.54 149.821 178.35 151.291 179.96 151.081C181.132 150.807 182.166 150.118 182.871 149.143C183.577 148.167 183.906 146.97 183.8 145.771C183.47 143.181 182.14 141.831 180.17 142.081C178.2 142.331 176.81 144.091 177.14 146.681Z" fill="#FAB9AF"/>
<path d="M183.6 144.811L178.6 145.441C178.095 145.509 177.581 145.419 177.13 145.181C177.217 144.409 177.559 143.689 178.103 143.135C178.647 142.58 179.36 142.223 180.13 142.121C181.86 141.871 183.09 142.811 183.6 144.811Z" fill="#FF9669"/>
<path d="M184.289 144.195L179.21 144.842C178.798 144.895 178.38 144.866 177.98 144.757C177.579 144.648 177.204 144.461 176.876 144.207C176.548 143.953 176.273 143.637 176.067 143.277C175.861 142.917 175.728 142.519 175.675 142.108L175.614 141.632L180.703 140.982C181.529 140.877 182.363 141.104 183.022 141.614C183.681 142.123 184.11 142.874 184.215 143.7L184.279 144.196L184.289 144.195Z" fill="#D72846"/>
<path d="M182.91 146.351L182.54 143.501L181.3 143.661L181.5 145.261C181.545 145.592 181.718 145.891 181.982 146.095C182.245 146.299 182.579 146.391 182.91 146.351Z" fill="#D72846"/>
<path d="M182.36 145.861C182.47 146.711 182.83 147.371 183.53 147.281C184.23 147.191 184.53 145.961 184.41 145.101C184.29 144.241 183.83 144.101 183.13 144.181C182.43 144.261 182.27 145.001 182.36 145.861Z" fill="#FAB9AF"/>
<path d="M182.76 144.161L184.72 142.651L187.75 158.601L182.76 158.901V144.161Z" fill="#D72846"/>
<path d="M187.76 158.901C187.76 159.651 187.538 160.383 187.121 161.007C186.705 161.63 186.113 162.116 185.42 162.403C184.728 162.689 183.966 162.765 183.231 162.618C182.495 162.472 181.82 162.111 181.29 161.581C180.76 161.051 180.399 160.376 180.253 159.641C180.107 158.905 180.182 158.143 180.468 157.451C180.755 156.758 181.241 156.166 181.864 155.75C182.488 155.333 183.22 155.111 183.97 155.111C184.468 155.11 184.961 155.207 185.422 155.397C185.882 155.587 186.301 155.866 186.653 156.218C187.005 156.57 187.284 156.989 187.474 157.449C187.664 157.91 187.761 158.403 187.76 158.901Z" fill="#D72846"/>
<path d="M122.43 143.651C122.349 144.45 122.108 145.225 121.721 145.93C121.335 146.634 120.811 147.254 120.18 147.752C119.55 148.25 118.825 148.616 118.051 148.829C117.276 149.042 116.466 149.097 115.67 148.991C113.23 148.681 113.86 144.321 114.1 142.451C114.34 140.581 116.43 139.831 118.87 140.141C121.31 140.451 122.67 141.811 122.43 143.651Z" fill="#FFDC8C"/>
<path d="M118.15 157.751C116.7 158.201 114.4 152.991 114.4 152.991L115.13 146.741L117.89 149.411L118.45 153.001C118.45 153.001 119.27 157.391 118.15 157.751Z" fill="#FA968C"/>
<path d="M121.73 146.201C121.33 149.341 120.52 150.811 118.91 150.601C117.738 150.327 116.704 149.638 115.999 148.663C115.293 147.687 114.964 146.49 115.07 145.291C115.4 142.711 116.73 141.361 118.7 141.611C120.67 141.861 122.06 143.611 121.73 146.201Z" fill="#FAB9AF"/>
<path d="M115.27 144.291L120.27 144.921C120.775 144.989 121.289 144.899 121.74 144.661C121.654 143.89 121.312 143.17 120.768 142.617C120.224 142.064 119.51 141.71 118.74 141.611C117.01 141.391 115.78 142.361 115.27 144.291Z" fill="#FF9669"/>
<path d="M118.157 140.51L123.246 141.159L123.185 141.635C123.079 142.467 122.647 143.222 121.984 143.735C121.321 144.248 120.482 144.476 119.651 144.37L114.572 143.722L114.635 143.226C114.687 142.816 114.82 142.421 115.025 142.062C115.231 141.704 115.505 141.389 115.832 141.137C116.159 140.885 116.533 140.699 116.932 140.592C117.331 140.484 117.747 140.456 118.157 140.51Z" fill="#FFDC8C"/>
<path d="M115.97 145.871L116.33 143.021L117.57 143.181L117.37 144.781C117.328 145.111 117.157 145.41 116.894 145.614C116.632 145.818 116.3 145.911 115.97 145.871Z" fill="#FFDC8C"/>
<path d="M116.51 145.381C116.4 146.231 116.04 146.891 115.35 146.811C114.66 146.731 114.35 145.481 114.46 144.631C114.57 143.781 115.04 143.631 115.74 143.701C116.44 143.771 116.62 144.521 116.51 145.381Z" fill="#FAB9AF"/>
<path d="M54.48 40.0411C52.4812 36.5385 49.6587 33.5759 46.257 31.4098C42.8552 29.2438 38.9767 27.9397 34.9573 27.6104C30.9379 27.2812 26.8989 27.9367 23.1899 29.5201C19.481 31.1036 16.214 33.5674 13.6718 36.698C11.1296 39.8287 9.38887 43.5319 8.6004 47.4869C7.81192 51.4419 7.99944 55.5295 9.14672 59.3957C10.294 63.2619 12.3664 66.7901 15.1846 69.6749C18.0027 72.5596 21.4816 74.7139 25.32 75.9511C30.5185 77.6864 35.0732 80.9483 38.39 85.3111C38.5205 85.4774 38.7065 85.5911 38.914 85.6315C39.1215 85.6719 39.3366 85.6363 39.52 85.5311L58.14 74.9111C58.3235 74.8076 58.4638 74.6417 58.5354 74.4435C58.607 74.2453 58.6051 74.028 58.53 73.8311L58.4 73.5011C56.4332 68.3707 56.0194 62.7751 57.21 57.4111C58.4576 51.4822 57.4862 45.3015 54.48 40.0411Z" fill="#FFC305"/>
<path d="M54.4799 40.0411C52.5556 36.6638 49.8641 33.7862 46.6227 31.6409C43.3812 29.4956 39.6807 28.1426 35.8199 27.6911C31.946 27.269 28.0381 28.0884 24.66 30.0311L24.5 30.1311C11.78 37.3111 9.24995 51.0411 14.4299 62.0511C17.5299 68.6211 24.4299 72.3511 30.6799 74.3711C33.8611 75.4101 36.8118 77.0535 39.37 79.2111C40.7173 80.3291 42.3741 81.0086 44.1185 81.1587C45.8628 81.3089 47.6114 80.9224 49.1299 80.0511L58.1299 74.9111C58.3132 74.8075 58.4528 74.641 58.5226 74.4424C58.5925 74.2438 58.588 74.0266 58.5099 73.8311L58.3299 73.3911C56.3826 68.3394 55.9755 62.824 57.16 57.5411C58.4549 51.5769 57.5004 45.3445 54.4799 40.0411Z" fill="#FFD23C"/>
<path d="M50.1499 43.4311C48.5967 40.7082 46.4057 38.4029 43.7653 36.7133C41.1249 35.0237 38.1138 34.0001 34.9906 33.7306C31.8675 33.461 28.7256 33.9535 25.8346 35.1657C22.9437 36.3779 20.3902 38.2736 18.3934 40.6901C16.3965 43.1065 15.016 45.9716 14.3703 49.0391C13.7246 52.1067 13.8331 55.2851 14.6864 58.3015C15.5397 61.3179 17.1124 64.0821 19.2693 66.3569C21.4263 68.6316 24.1031 70.3488 27.0699 71.3611C31.2308 72.76 34.889 75.3506 37.59 78.8111C38.5073 80.3809 40.0073 81.5252 41.7637 81.9953C43.5202 82.4653 45.3912 82.223 46.97 81.3211L50.72 79.1911C52.2949 78.2921 53.4534 76.81 53.9454 75.0646C54.4374 73.3192 54.2235 71.4503 53.3499 69.8611L53.2099 69.6011C51.6701 65.6222 51.3396 61.2771 52.2599 57.1111C53.2713 52.447 52.5196 47.5737 50.1499 43.4311Z" fill="#FFD95C"/>
<g style="mix-blend-mode:lighten" opacity="0.15">
<path d="M51.0623 47.5799C53.4495 41.736 49.1469 34.4506 41.4523 31.3073C33.7577 28.1641 25.5847 30.3533 23.1975 36.1971C20.8103 42.041 25.1129 49.3264 32.8075 52.4697C40.5021 55.6129 48.6751 53.4237 51.0623 47.5799Z" fill="white"/>
</g>
<g style="mix-blend-mode:lighten" opacity="0.51">
<path d="M40.52 35.3511L41.11 35.6111C41.2638 35.6934 41.4356 35.7365 41.61 35.7365C41.7844 35.7365 41.9562 35.6934 42.11 35.6111H42.18C42.3497 35.5257 42.4915 35.3938 42.589 35.2307C42.6864 35.0676 42.7354 34.8801 42.7301 34.6902C42.7249 34.5003 42.6656 34.3159 42.5594 34.1584C42.4531 34.0009 42.3041 33.877 42.13 33.8011C41.6816 33.5605 41.221 33.3436 40.75 33.1511C37.3651 31.6686 33.5331 31.5752 30.08 32.8911C29.9413 32.9437 29.8161 33.0266 29.7134 33.1336C29.6106 33.2406 29.533 33.3691 29.4861 33.5098C29.4392 33.6506 29.4242 33.7999 29.4422 33.9472C29.4601 34.0944 29.5106 34.2358 29.59 34.3611C29.7025 34.5684 29.8846 34.7292 30.1042 34.8152C30.3238 34.9012 30.5667 34.9068 30.79 34.8311C33.996 33.8752 37.4341 34.059 40.52 35.3511Z" fill="white"/>
</g>
<g style="mix-blend-mode:lighten" opacity="0.51">
<path d="M43.4999 36.9511C44.4713 37.61 45.3609 38.3821 46.1499 39.2511C46.269 39.394 46.4352 39.4897 46.6185 39.5209C46.8019 39.552 46.9904 39.5167 47.1499 39.4211C47.2417 39.3697 47.322 39.2999 47.3858 39.2163C47.4496 39.1326 47.4956 39.0367 47.5209 38.9346C47.5462 38.8324 47.5503 38.7262 47.5329 38.6224C47.5155 38.5186 47.4771 38.4195 47.4199 38.3311C46.6855 37.2742 45.807 36.325 44.8099 35.5111C44.6869 35.4132 44.5374 35.3542 44.3806 35.3417C44.2238 35.3293 44.0669 35.3639 43.9299 35.4411L43.5799 35.6411C43.4637 35.703 43.3654 35.7937 43.2942 35.9044C43.2231 36.0152 43.1815 36.1423 43.1734 36.2737C43.1654 36.4051 43.1912 36.5364 43.2484 36.655C43.3055 36.7736 43.3921 36.8755 43.4999 36.9511Z" fill="white"/>
</g>
<path d="M46.6299 81.6311L28.1699 60.1711" stroke="#D77D14" stroke-miterlimit="10"/>
<path d="M28.2699 60.0911L25.4799 61.6811C25.1131 61.8916 24.7084 62.0276 24.2889 62.0812C23.8694 62.1348 23.4435 62.1051 23.0355 61.9935C22.6276 61.882 22.2457 61.691 21.9118 61.4315C21.5779 61.1719 21.2986 60.8489 21.0899 60.4811C20.881 60.1147 20.7462 59.7108 20.6935 59.2924C20.6407 58.8739 20.6708 58.4492 20.7823 58.0424C20.8937 57.6357 21.0842 57.2548 21.3429 56.9217C21.6016 56.5886 21.9234 56.3098 22.2899 56.1011C22.6567 55.8906 23.0615 55.7546 23.481 55.701C23.9005 55.6473 24.3264 55.6771 24.7343 55.7886C25.1423 55.9002 25.5242 56.0912 25.8581 56.3507C26.192 56.6103 26.4713 56.9333 26.6799 57.3011L28.2699 60.0911Z" stroke="#D77D14" stroke-miterlimit="10"/>
<path d="M51.6199 78.7812L42.5499 51.9712" stroke="#D77D14" stroke-miterlimit="10"/>
<path d="M42.41 52.0511L45.2 50.4611C45.9408 50.0377 46.4834 49.3376 46.7084 48.5144C46.9334 47.6913 46.8225 46.8125 46.4 46.0711C45.9766 45.3302 45.2764 44.7877 44.4533 44.5627C43.6301 44.3377 42.7513 44.4486 42.01 44.8711C41.2691 45.2945 40.7265 45.9947 40.5015 46.8178C40.2765 47.6409 40.3875 48.5197 40.81 49.2611L42.41 52.0511Z" stroke="#D77D14" stroke-miterlimit="10"/>
<path d="M28.3099 60.0911L42.0999 52.2311" stroke="#D77D14" stroke-miterlimit="10"/>
<path d="M61.93 90.6811C62.93 92.4211 61.93 96.2311 59.12 97.8511C56.31 99.4711 52.61 98.3011 51.62 96.5611C50.63 94.8211 52.13 92.0911 54.98 90.4711C57.83 88.8511 60.94 88.9411 61.93 90.6811Z" fill="#3C5A73"/>
<path d="M60.5199 75.9112C60.6594 76.1427 60.7504 76.4001 60.7876 76.6677C60.8248 76.9354 60.8074 77.2079 60.7363 77.4686C60.6653 77.7294 60.5422 77.973 60.3743 78.1849C60.2065 78.3967 59.9975 78.5724 59.7599 78.7012L41.96 88.8112C41.7284 88.9506 41.4711 89.0417 41.2034 89.0788C40.9357 89.116 40.6632 89.0986 40.4025 89.0276C40.1417 88.9565 39.8981 88.8334 39.6862 88.6656C39.4744 88.4978 39.2988 88.2887 39.1699 88.0512C39.0305 87.8197 38.9395 87.5623 38.9023 87.2946C38.8651 87.0269 38.8825 86.7545 38.9535 86.4937C39.0246 86.233 39.1477 85.9893 39.3155 85.7775C39.4834 85.5656 39.6924 85.39 39.93 85.2612L57.7299 75.1112C57.9615 74.9718 58.2188 74.8807 58.4865 74.8435C58.7542 74.8063 59.0266 74.8237 59.2874 74.8948C59.5482 74.9658 59.7918 75.0889 60.0037 75.2568C60.2155 75.4246 60.3911 75.6336 60.5199 75.8712V75.9112Z" fill="#C8E6EB"/>
<path d="M61.7799 82.2511L43.9899 92.4011C43.7584 92.5406 43.501 92.6316 43.2334 92.6688C42.9657 92.706 42.6932 92.6886 42.4325 92.6175C42.1717 92.5465 41.928 92.4234 41.7162 92.2555C41.5044 92.0877 41.3287 91.8787 41.1999 91.6411C41.0605 91.4096 40.9694 91.1523 40.9322 90.8846C40.895 90.6169 40.9125 90.3445 40.9835 90.0837C41.0545 89.8229 41.1777 89.5793 41.3455 89.3674C41.5133 89.1556 41.7223 88.98 41.9599 88.8512L59.7599 78.7011C59.9914 78.5617 60.2488 78.4707 60.5165 78.4335C60.7842 78.3963 61.0566 78.4137 61.3174 78.4847C61.5781 78.5558 61.8218 78.6789 62.0336 78.8467C62.2455 79.0146 62.4211 79.2236 62.5499 79.4611C62.689 79.6933 62.7795 79.9512 62.8159 80.2193C62.8524 80.4874 62.8341 80.7601 62.7621 81.021C62.6901 81.2818 62.566 81.5253 62.3971 81.7367C62.2283 81.9482 62.0183 82.1232 61.7799 82.2511Z" fill="#C8E6EB"/>
<path d="M63.81 85.8111L46.0099 95.9611C45.7784 96.1005 45.5211 96.1915 45.2534 96.2287C44.9857 96.2659 44.7133 96.2485 44.4525 96.1775C44.1918 96.1064 43.9481 95.9833 43.7362 95.8155C43.5244 95.6476 43.3488 95.4387 43.22 95.2011C43.0793 94.9686 42.9875 94.7098 42.9501 94.4406C42.9128 94.1715 42.9307 93.8975 43.0027 93.6355C43.0748 93.3734 43.1995 93.1288 43.3692 92.9166C43.539 92.7044 43.7502 92.5289 43.99 92.4011L61.78 82.2511C62.0121 82.112 62.27 82.0215 62.5381 81.985C62.8062 81.9486 63.079 81.9669 63.3398 82.0389C63.6006 82.1109 63.8441 82.235 64.0556 82.4038C64.267 82.5727 64.442 82.7826 64.5699 83.0211C64.7094 83.2526 64.8005 83.51 64.8376 83.7776C64.8748 84.0453 64.8574 84.3178 64.7863 84.5785C64.7153 84.8393 64.5922 85.0829 64.4244 85.2948C64.2566 85.5066 64.0475 85.6822 63.81 85.8111Z" fill="#C8E6EB"/>
<path d="M64.81 89.0411L48.2699 98.4611C47.8906 98.6781 47.4406 98.7358 47.0188 98.6214C46.597 98.5071 46.2377 98.23 46.0199 97.8511C45.9129 97.6627 45.844 97.455 45.8172 97.2399C45.7904 97.0248 45.8063 96.8066 45.8638 96.5976C45.9214 96.3887 46.0196 96.1932 46.1528 96.0222C46.2859 95.8512 46.4515 95.7081 46.6399 95.6011L63.16 86.1711C63.3484 86.064 63.5561 85.9951 63.7711 85.9683C63.9862 85.9416 64.2044 85.9574 64.4134 86.015C64.6223 86.0725 64.8179 86.1707 64.9889 86.3039C65.1599 86.437 65.303 86.6026 65.41 86.7911C65.6278 87.1692 65.687 87.6183 65.5746 88.04C65.4621 88.4617 65.1872 88.8216 64.81 89.0411Z" fill="#C8E6EB"/>
<path d="M47.2699 81.1012L43.3799 83.3311C43.1415 83.4591 42.9316 83.6341 42.7627 83.8456C42.5939 84.057 42.4697 84.3005 42.3977 84.5613C42.3258 84.8222 42.3075 85.0949 42.3439 85.363C42.3804 85.6311 42.4709 85.889 42.6099 86.1212C42.7387 86.3587 42.9144 86.5677 43.1262 86.7356C43.3381 86.9034 43.5817 87.0265 43.8425 87.0976C44.1032 87.1686 44.3757 87.186 44.6434 87.1488C44.9111 87.1116 45.1684 87.0206 45.3999 86.8812L49.2999 84.6612C49.5375 84.5323 49.7465 84.3567 49.9143 84.1449C50.0822 83.933 50.2053 83.6894 50.2763 83.4286C50.3474 83.1679 50.3648 82.8954 50.3276 82.6277C50.2904 82.36 50.1994 82.1027 50.0599 81.8712C49.932 81.6327 49.757 81.4228 49.5455 81.2539C49.3341 81.0851 49.0906 80.961 48.8298 80.889C48.5689 80.817 48.2962 80.7987 48.0281 80.8351C47.76 80.8716 47.5021 80.9621 47.2699 81.1012Z" fill="#E4F2F6"/>
<path d="M49.2699 84.6611L45.37 86.8811C45.1324 87.0099 44.9234 87.1855 44.7555 87.3974C44.5877 87.6092 44.4646 87.8529 44.3935 88.1136C44.3225 88.3744 44.3051 88.6468 44.3423 88.9145C44.3795 89.1822 44.4705 89.4396 44.6099 89.6711C44.8803 90.1405 45.3248 90.4845 45.8469 90.6286C46.3691 90.7727 46.9271 90.7054 47.4 90.4411L51.2999 88.2111C51.5375 88.0823 51.7465 87.9066 51.9144 87.6948C52.0822 87.4829 52.2053 87.2393 52.2764 86.9785C52.3474 86.7178 52.3648 86.4453 52.3276 86.1777C52.2904 85.91 52.1994 85.6526 52.06 85.4211C51.9311 85.1835 51.7555 84.9745 51.5437 84.8067C51.3318 84.6389 51.0882 84.5157 50.8274 84.4447C50.5667 84.3737 50.2942 84.3562 50.0265 84.3934C49.7588 84.4306 49.5015 84.5217 49.2699 84.6611Z" fill="#E4F2F6"/>
<path d="M51.34 88.2111L47.44 90.4411C47.2024 90.57 46.9934 90.7456 46.8256 90.9574C46.6577 91.1693 46.5346 91.4129 46.4636 91.6737C46.3925 91.9344 46.3751 92.2069 46.4123 92.4746C46.4495 92.7422 46.5405 92.9996 46.68 93.2311C46.8088 93.4687 46.9844 93.6777 47.1962 93.8455C47.4081 94.0133 47.6517 94.1365 47.9125 94.2075C48.1733 94.2786 48.4457 94.296 48.7134 94.2588C48.9811 94.2216 49.2384 94.1306 49.47 93.9911L53.3599 91.7711C53.5984 91.6432 53.8083 91.4682 53.9772 91.2568C54.146 91.0453 54.2701 90.8018 54.3421 90.541C54.4141 90.2801 54.4324 90.0074 54.396 89.7393C54.3595 89.4712 54.269 89.2133 54.1299 88.9811C54.002 88.7427 53.827 88.5328 53.6156 88.3639C53.4041 88.1951 53.1606 88.0709 52.8998 87.9989C52.6389 87.927 52.3662 87.9087 52.0981 87.9451C51.83 87.9816 51.5721 88.0721 51.34 88.2111Z" fill="#E4F2F6"/>
<path d="M45.5 82.1211L43.97 83.0011C43.58 83.2111 43.72 84.1911 44.28 85.1711C44.84 86.1711 45.6099 86.7711 45.9899 86.5511L47.5199 85.6811C47.9099 85.4611 47.7699 84.4811 47.2099 83.5011C46.6499 82.5211 45.88 81.9011 45.5 82.1211Z" fill="white"/>
<path d="M47.52 85.6811L45.99 86.5511C45.61 86.7711 45.75 87.7411 46.31 88.7211C46.87 89.7211 47.64 90.3211 48.02 90.1011L49.55 89.2311C49.94 89.0111 49.79 88.0411 49.23 87.0611C48.67 86.0711 47.91 85.4611 47.52 85.6811Z" fill="white"/>
<path d="M49.5499 89.2311L48.0199 90.1011C47.6399 90.3211 47.7799 91.3011 48.3399 92.2811C48.8999 93.2811 49.6599 93.8811 50.0499 93.6611L51.5799 92.7811C51.9599 92.5711 51.8199 91.5911 51.2599 90.6111C50.6999 89.6311 49.9399 89.0111 49.5499 89.2311Z" fill="white"/>
<path d="M55.0799 90.8111L50.5 93.4211C50.3115 93.5281 50.1459 93.6712 50.0127 93.8422C49.8796 94.0132 49.7814 94.2088 49.7238 94.4177C49.6663 94.6266 49.6504 94.8449 49.6772 95.0599C49.704 95.275 49.7729 95.4827 49.8799 95.6711C49.9869 95.8596 50.13 96.0252 50.301 96.1583C50.472 96.2915 50.6676 96.3897 50.8765 96.4472C51.0855 96.5048 51.3037 96.5207 51.5188 96.4939C51.7338 96.4671 51.9415 96.3982 52.1299 96.2911L56.72 93.6711C57.0989 93.4533 57.3759 93.0941 57.4903 92.6723C57.6047 92.2505 57.547 91.8005 57.3299 91.4211C57.2231 91.2325 57.0799 91.0669 56.9086 90.934C56.7374 90.8011 56.5414 90.7035 56.3322 90.6467C56.123 90.59 55.9046 90.5753 55.6896 90.6036C55.4747 90.6318 55.2674 90.7023 55.0799 90.8111Z" fill="#E4F2F6"/>
<path d="M52.37 92.3311L51.0099 93.1111C50.7699 93.2411 50.95 93.9911 51.4 94.7811C51.85 95.5811 52.3999 96.1111 52.6399 95.9811L54 95.2011C54.24 95.0711 54.0599 94.3211 53.6099 93.5311C53.1599 92.7311 52.6 92.2011 52.37 92.3311Z" fill="white"/>
</svg>
